<svg width="389" height="249" viewBox="0 0 389 249" fill="none" xmlns="http://www.w3.org/2000/svg">
<path d="M25.2714 189.943C25.2704 189.906 25.2946 189.887 25.3441 189.885C25.3936 189.883 25.4189 189.901 25.4199 189.938C25.445 190.408 25.7432 190.9 26.3145 191.413C26.873 191.915 27.6104 192.386 28.5264 192.826L33.8162 195.38L35.3196 195.329C36.0497 195.305 36.6057 195.255 36.9876 195.18C37.3568 195.094 37.6438 194.941 37.8484 194.724C38.0531 194.507 38.1887 194.254 38.2552 193.967C38.3093 193.68 38.3285 193.246 38.3128 192.664C38.3111 192.603 38.3223 192.559 38.3464 192.533C38.3704 192.508 38.3952 192.507 38.4206 192.531C38.446 192.555 38.4596 192.598 38.4612 192.659C38.4753 193.179 38.4791 193.774 38.4725 194.443C38.4782 195.112 38.4812 195.452 38.4816 195.465L38.5294 197.228C38.5297 197.241 38.5452 197.581 38.5757 198.249C38.6185 198.916 38.647 199.51 38.6611 200.03C38.6628 200.092 38.6516 200.135 38.6275 200.161C38.6034 200.187 38.5787 200.187 38.5533 200.163C38.5278 200.14 38.5143 200.097 38.5126 200.035C38.4965 199.441 38.4537 199.002 38.3841 198.72C38.3021 198.438 38.1531 198.195 37.937 197.991C37.721 197.788 37.4265 197.662 37.0536 197.612C36.668 197.551 36.1101 197.532 35.38 197.557L34.0065 197.603L28.5418 200.927C27.4937 201.557 26.765 202.089 26.3557 202.524C25.9945 202.908 25.8101 203.415 25.8025 204.047C25.8035 204.085 25.7918 204.11 25.7674 204.123C25.743 204.136 25.7182 204.137 25.6931 204.125C25.6681 204.114 25.655 204.09 25.654 204.052C25.6453 203.731 25.6411 203.347 25.6414 202.901L25.6599 202.213L25.6015 200.059C25.6011 200.047 25.5877 199.781 25.5612 199.261C25.5221 198.73 25.4971 198.266 25.4864 197.87C25.4854 197.833 25.4971 197.808 25.5215 197.795C25.5455 197.769 25.5703 197.768 25.5957 197.792C25.6208 197.804 25.6338 197.828 25.6349 197.865C25.6687 198.657 25.8975 199.102 26.3213 199.199C26.7326 199.297 27.4568 199.055 28.4939 198.476L33.5408 195.5L28.7221 193.191C27.9177 192.759 27.1848 192.679 26.5233 192.949C25.8739 193.206 25.5488 193.78 25.5483 194.672C25.5493 194.709 25.5377 194.741 25.5137 194.766C25.4892 194.779 25.4645 194.78 25.4394 194.769C25.414 194.745 25.4008 194.714 25.3998 194.677C25.3924 194.405 25.3887 193.81 25.3886 192.894C25.3885 192.435 25.3838 192.033 25.3744 191.686C25.369 191.488 25.3566 191.26 25.3372 191C25.2984 190.481 25.2764 190.129 25.2714 189.943Z" fill="white"/>
<path d="M26.4831 173.707C26.7427 171.594 27.5622 169.948 28.9416 168.769C30.3102 167.577 31.9799 167.082 33.9507 167.282C35.8968 167.481 37.4321 168.334 38.5564 169.842C39.6683 171.349 40.0983 173.128 39.8463 175.181C39.5942 177.233 38.7846 178.849 37.4175 180.028C36.0397 181.195 34.3776 181.678 32.4315 181.48C30.4853 181.282 28.9486 180.441 27.8213 178.958C26.6817 177.473 26.2356 175.723 26.4831 173.707ZM39.6442 174.693C39.772 173.45 39.4014 172.354 38.5325 171.407C37.6512 170.459 36.2222 169.909 34.2454 169.757C32.4209 169.584 30.7484 169.899 29.228 170.702C27.6983 171.48 26.856 172.601 26.701 174.066C26.5717 175.322 26.9477 176.424 27.8289 177.372C28.7348 178.323 30.1762 178.874 32.153 179.026C33.2754 179.127 34.4035 179.031 35.5372 178.736C36.6202 178.448 37.5541 177.952 38.3389 177.248C39.1115 176.543 39.5466 175.691 39.6442 174.693Z" fill="white"/>
<path d="M33.3409 143.386C33.3542 143.338 33.3789 143.318 33.415 143.327C33.4477 143.348 33.4651 143.378 33.4672 143.416C33.3058 144.039 33.4502 144.603 33.9001 145.108C34.3501 145.612 34.954 145.957 35.7118 146.142L39.5911 147.088C40.7699 147.375 41.7844 147.814 42.6347 148.403C44.3299 149.555 44.8924 151.151 44.3224 153.19C43.9023 154.692 43.1497 155.89 42.0644 156.785C40.8563 157.751 39.1937 157.976 37.0767 157.46L32.9087 156.444C32.34 156.318 31.9003 156.236 31.5896 156.198C31.2669 156.158 30.9889 156.141 30.7557 156.148C30.5138 156.14 30.3291 156.203 30.2016 156.338C30.0654 156.457 29.9559 156.596 29.8731 156.754C29.7783 156.91 29.6722 157.151 29.5548 157.479C29.5448 157.515 29.5245 157.542 29.4937 157.56C29.4663 157.566 29.4423 157.56 29.4216 157.542C29.4042 157.512 29.4005 157.48 29.4105 157.444C29.5072 157.098 29.6292 156.708 29.7766 156.272C29.9153 155.822 29.9863 155.591 29.9897 155.579L30.5047 153.737C30.508 153.725 30.5654 153.497 30.6767 153.053C30.7793 152.594 30.879 152.191 30.9756 151.846C30.9856 151.81 31.0043 151.789 31.0317 151.783C31.0624 151.765 31.0865 151.771 31.1039 151.8C31.1246 151.818 31.13 151.845 31.12 151.881C31.0061 152.426 30.9809 152.815 31.0445 153.047C31.1081 153.279 31.307 153.487 31.6412 153.67C31.9787 153.842 32.6013 154.051 33.5088 154.297L37.388 155.243C38.627 155.545 39.6965 155.672 40.5965 155.624C42.343 155.49 43.4629 154.54 43.9563 152.776C44.3463 151.38 44.1612 150.227 43.401 149.316C42.6407 148.404 41.3705 147.732 39.5902 147.298L36.7214 146.598C35.6749 146.343 34.7104 146.369 33.8279 146.676C32.9488 146.971 32.3789 147.539 32.1181 148.38C32.1081 148.415 32.0878 148.442 32.057 148.46C32.0176 148.463 31.9875 148.456 31.9668 148.438C31.9374 148.406 31.9277 148.371 31.9377 148.336C32.0144 148.061 32.1847 147.498 32.4488 146.645C32.4988 146.466 32.5548 146.289 32.6169 146.113C32.6669 145.934 32.7112 145.799 32.7499 145.706C32.7766 145.611 32.7949 145.545 32.8049 145.509C32.8749 145.259 32.9489 144.971 33.0269 144.646C33.1829 143.997 33.2875 143.576 33.3409 143.386Z" fill="white"/>
<path d="M54.6887 125.94C54.704 125.906 54.7256 125.888 54.7537 125.886C54.7818 125.884 54.8048 125.893 54.8227 125.913C54.8406 125.934 54.842 125.961 54.8267 125.995C54.6946 126.288 54.5313 126.636 54.3369 127.038L54.028 127.634L53.563 128.667C53.3594 128.998 53.0548 129.223 52.6491 129.341C52.2318 129.454 51.637 129.51 50.8646 129.508L49.6639 129.509C48.5646 129.51 47.676 129.782 46.998 130.324C46.3085 130.861 45.6817 131.756 45.1176 133.009L45.0033 133.263L47.4011 134.22C47.9058 134.394 48.3127 134.53 48.6219 134.626C48.9196 134.719 49.207 134.773 49.4841 134.79C49.7612 134.808 49.975 134.8 50.1256 134.767C50.2697 134.718 50.4278 134.607 50.5998 134.436C50.7768 134.254 50.9226 134.066 51.0371 133.872C51.1515 133.678 51.3092 133.388 51.5101 133.002C51.5355 132.945 51.5648 132.91 51.5979 132.897C51.6311 132.883 51.6541 132.893 51.6669 132.924C51.6798 132.956 51.6735 133 51.6481 133.057C51.4245 133.553 51.1589 134.113 50.8513 134.736C50.5603 135.353 50.4123 135.667 50.4072 135.678L49.6602 137.338C49.6551 137.349 49.5617 137.571 49.3801 138.005C49.21 138.443 49.0513 138.826 48.9039 139.153C48.8887 139.187 48.8645 139.211 48.8313 139.224C48.8032 139.226 48.7802 139.217 48.7623 139.197C48.7495 139.165 48.7507 139.132 48.7659 139.098C48.8852 138.773 48.9632 138.524 48.9998 138.353C49.0249 138.176 49.0278 138.004 49.0082 137.837C48.9823 137.653 48.876 137.498 48.6893 137.37C48.4962 137.226 48.2635 137.08 47.9912 136.932C47.7075 136.779 47.2979 136.589 46.7624 136.362L40.3451 133.803C39.7995 133.599 39.3753 133.456 39.0725 133.375C38.7583 133.29 38.4849 133.234 38.2525 133.208C38.0137 133.166 37.821 133.203 37.6744 133.317C37.5214 133.416 37.3921 133.538 37.2865 133.682C37.1693 133.822 37.0281 134.045 36.8628 134.352C36.8476 134.386 36.8234 134.409 36.7902 134.423C36.7621 134.425 36.7391 134.416 36.7212 134.395C36.7084 134.364 36.7096 134.331 36.7248 134.297C36.8722 133.97 37.0539 133.596 37.27 133.176C37.4746 132.752 37.5795 132.534 37.5846 132.522L39.3607 128.577C40.997 124.941 42.8847 123.55 45.0238 124.403C45.8979 124.751 46.4305 125.436 46.6217 126.458C46.8129 127.48 46.6645 128.759 46.1764 130.296C47.1488 128.406 48.336 127.441 49.7377 127.401L50.8101 127.369C52.088 127.333 52.9821 127.23 53.4924 127.061C54.0129 126.869 54.4116 126.495 54.6887 125.94ZM39.3968 129.31L38.8022 130.631C39.2215 130.905 39.8453 131.207 40.6733 131.537L44.7962 133.181L45.0249 132.673C45.6754 131.228 45.9203 129.96 45.7595 128.871C45.5758 127.772 44.9894 127.026 44.0004 126.631C43.0113 126.237 42.142 126.27 41.3923 126.73C40.6362 127.174 39.971 128.034 39.3968 129.31Z" fill="white"/>
<path d="M55.5743 97.0894L61.1667 99.0063C61.1983 99.0258 61.2001 99.0559 61.172 99.0967C61.151 99.1274 61.1211 99.138 61.0825 99.1288C57.7798 98.3885 55.4093 99.0641 53.9711 101.155L52.7399 102.946L57.7697 106.041L59.1377 104.052C59.5586 103.44 59.7355 102.888 59.6683 102.396C59.5975 101.888 59.3038 101.475 58.7871 101.157C58.7555 101.138 58.7414 101.115 58.7449 101.088C58.7378 101.054 58.7519 101.034 58.787 101.026C58.8116 101.013 58.8397 101.015 58.8713 101.035L62.3985 103.205C62.4301 103.225 62.4442 103.248 62.4407 103.275C62.4372 103.302 62.4232 103.322 62.3986 103.336C62.374 103.35 62.3459 103.347 62.3143 103.328C61.1966 102.64 60.2062 102.923 59.3433 104.178L57.9753 106.168L61.0279 108.046C61.6535 108.402 62.128 108.65 62.4513 108.791C62.7746 108.932 63.0873 108.979 63.3894 108.933C63.6809 108.88 63.9214 108.759 64.1109 108.571C64.2898 108.376 64.56 108.049 64.9214 107.589C64.9564 107.538 64.9915 107.509 65.0267 107.501C65.0618 107.494 65.0829 107.507 65.0899 107.54C65.097 107.574 65.083 107.616 65.0479 107.667C64.7673 108.075 64.4375 108.533 64.0586 109.04C63.6903 109.554 63.5026 109.816 63.4956 109.826L62.4538 111.341C62.4468 111.351 62.3153 111.553 62.0592 111.947C61.8137 112.348 61.5892 112.696 61.3858 112.992C61.3647 113.023 61.3366 113.042 61.3015 113.049C61.2734 113.046 61.2523 113.033 61.2383 113.01C61.2312 112.977 61.2382 112.945 61.2592 112.914C61.4346 112.616 61.5555 112.385 61.6221 112.223C61.6782 112.054 61.7114 111.886 61.7218 111.718C61.7286 111.533 61.6512 111.362 61.4894 111.205C61.3241 111.031 61.1202 110.847 60.8777 110.654C60.6245 110.455 60.2537 110.198 59.7651 109.882L53.8813 106.262C53.3786 105.967 52.985 105.754 52.7004 105.622C52.4051 105.484 52.1451 105.382 51.9202 105.316C51.6918 105.234 51.4951 105.236 51.3301 105.323C51.1615 105.394 51.0123 105.491 50.8825 105.614C50.7421 105.731 50.5631 105.926 50.3456 106.198C50.3246 106.229 50.2965 106.248 50.2614 106.255C50.2333 106.253 50.2122 106.24 50.1981 106.216C50.191 106.183 50.198 106.151 50.2191 106.121C50.4225 105.825 50.6681 105.489 50.9558 105.115C51.2329 104.734 51.375 104.538 51.382 104.528L54.9073 99.4013C55.5808 98.4219 55.7821 97.6819 55.5111 97.1812C55.4935 97.0978 55.5145 97.0672 55.5743 97.0894Z" fill="white"/>
<path d="M67.2371 83.763C68.6633 82.1816 70.2918 81.2897 72.1226 81.0875C73.952 80.8682 75.6358 81.3827 77.1741 82.631C78.6931 83.8636 79.493 85.4044 79.5737 87.2533C79.6449 89.0944 78.9881 90.7827 77.6033 92.3181C76.2185 93.8536 74.6156 94.7263 72.7945 94.9364C70.972 95.1295 69.3013 94.6097 67.7823 93.377C66.2632 92.1444 65.4551 90.6128 65.3577 88.7823C65.2507 86.944 65.8772 85.2709 67.2371 83.763ZM77.7124 91.8095C78.5306 90.8653 78.8461 89.7678 78.6587 88.5171C78.4618 87.2586 77.5776 86.0236 76.0061 84.8121C74.575 83.6667 72.9921 83.0033 71.2577 82.8219C69.5301 82.6143 68.1826 83.0653 67.2151 84.1751C66.3885 85.1285 66.0738 86.2345 66.2707 87.493C66.4869 88.7671 67.3807 90.0099 68.9521 91.2214C69.8353 91.9221 70.8367 92.464 71.9564 92.8472C73.0293 93.2083 74.0962 93.3176 75.157 93.1753C76.2081 93.0251 77.0599 92.5699 77.7124 91.8095Z" fill="white"/>
<path d="M99.3453 71.8117C99.3738 71.7879 99.4012 71.7811 99.4275 71.7913C99.4538 71.8016 99.4706 71.8198 99.478 71.8459C99.4853 71.872 99.4747 71.897 99.4462 71.9208C99.1992 72.1273 98.9006 72.369 98.5502 72.6458L98.0121 73.0474L97.143 73.7741C96.815 73.984 96.442 74.0541 96.024 73.9844C95.5977 73.9057 95.0357 73.6986 94.3383 73.363L93.2526 72.8442C92.2585 72.3698 91.3373 72.2294 90.489 72.4229C89.6322 72.6073 88.6767 73.1403 87.6224 74.0219L87.4087 74.2006L89.1609 76.0964C89.5413 76.4715 89.8502 76.7693 90.0877 76.9898C90.3168 77.2012 90.5528 77.3746 90.7957 77.5099C91.0387 77.6453 91.2355 77.7306 91.386 77.7659C91.5376 77.7842 91.7283 77.7537 91.9581 77.6744C92.1974 77.5872 92.4109 77.4812 92.5987 77.3564C92.7865 77.2316 93.055 77.0393 93.4042 76.7795C93.4517 76.7398 93.4934 76.7211 93.5292 76.7234C93.565 76.7257 93.5818 76.7439 93.5796 76.778C93.5774 76.812 93.5526 76.8489 93.5051 76.8886C93.0871 77.2381 92.6038 77.6261 92.0551 78.0527C91.5243 78.4804 91.2542 78.6982 91.2447 78.7062L89.8484 79.8737C89.8389 79.8816 89.6579 80.041 89.3054 80.3519C88.9613 80.6719 88.6515 80.9471 88.376 81.1774C88.3476 81.2012 88.3154 81.212 88.2796 81.2097C88.2533 81.1994 88.2365 81.1813 88.2292 81.1551C88.2314 81.1211 88.2467 81.0921 88.2752 81.0683C88.5243 80.8277 88.7028 80.6382 88.8106 80.4997C88.9099 80.3522 88.9872 80.1989 89.0423 80.04C89.0986 79.864 89.0701 79.6783 88.9568 79.4828C88.8446 79.2704 88.6977 79.0386 88.5161 78.7874C88.3261 78.5272 88.0384 78.1795 87.6529 77.7442L82.9637 72.6706C82.5592 72.2512 82.2377 71.9398 81.9991 71.7363C81.7521 71.5237 81.5292 71.3555 81.3305 71.2315C81.1328 71.0905 80.9428 71.0398 80.7605 71.0794C80.5793 71.102 80.4096 71.1552 80.2514 71.2392C80.0848 71.314 79.8602 71.4535 79.5774 71.6577C79.5489 71.6815 79.5168 71.6923 79.481 71.69C79.4547 71.6797 79.4378 71.6615 79.4305 71.6354C79.4327 71.6013 79.4481 71.5724 79.4766 71.5486C79.752 71.3182 80.0786 71.0613 80.4563 70.7777C80.8257 70.4849 81.0151 70.3346 81.0246 70.3267L84.3442 67.5509C87.4026 64.9935 89.7134 64.5604 91.2764 66.2516C91.9151 66.9426 92.099 67.7883 91.828 68.7886C91.557 69.789 90.8671 70.8736 89.7584 72.0424C91.4582 70.7662 92.9504 70.413 94.235 70.9831L95.2182 71.4183C96.3892 71.9382 97.2421 72.2325 97.777 72.3011C98.3308 72.3538 98.8536 72.1906 99.3453 71.8117ZM84.0582 68.2253L82.9469 69.1545C83.2071 69.5817 83.6397 70.1227 84.2448 70.7773L87.2575 74.0369L87.6849 73.6796C88.9007 72.663 89.6725 71.6307 90.0005 70.5827C90.3117 69.5165 90.1059 68.5925 89.3832 67.8105C88.6605 67.0286 87.8604 66.6821 86.9828 66.7711C86.1064 66.8431 85.1315 67.3278 84.0582 68.2253Z" fill="white"/>
<path d="M121.593 57.5038C121.625 57.4846 121.653 57.482 121.677 57.4962C121.712 57.5039 121.731 57.5213 121.734 57.5484C121.738 57.5754 121.718 57.6017 121.676 57.6275C121.369 57.8138 121.007 58.0188 120.592 58.2424C120.193 58.4699 119.989 58.5869 119.978 58.5933L118.369 59.5921C118.316 59.6242 118.097 59.7643 117.713 60.0124C117.346 60.2644 117.023 60.4823 116.744 60.6661C116.712 60.6854 116.679 60.6911 116.644 60.6834C116.619 60.6692 116.606 60.6486 116.602 60.6216C116.61 60.5881 116.629 60.5618 116.661 60.5425C116.898 60.3844 117.073 60.2564 117.186 60.1587C117.31 60.0546 117.415 59.933 117.5 59.7941C117.579 59.6449 117.614 59.5079 117.605 59.383C117.607 59.2518 117.564 59.0754 117.475 58.854C117.398 58.6262 117.285 58.3906 117.138 58.1472C116.994 57.8872 116.794 57.5531 116.536 57.1449L111.611 49.7595L111.269 57.2395L112.376 57.6959C112.078 58.5424 111.962 59.1704 112.027 59.5796C112.026 59.6234 112 59.6395 111.947 59.6278L102.333 55.98L106.671 62.4848C107.2 63.2779 107.858 63.8408 108.645 64.1734C109.418 64.4854 110.171 64.4332 110.905 64.0168C110.936 63.9975 110.964 63.9949 110.989 64.0091C111.024 64.0168 111.037 64.0374 111.03 64.0709C111.033 64.0979 111.019 64.1211 110.987 64.1404C110.775 64.2689 110.292 64.5478 109.538 64.9771C109.171 65.1853 108.845 65.3762 108.559 65.5497C108.337 65.6846 108.086 65.844 107.808 66.0279C107.25 66.3955 106.881 66.634 106.701 66.7432C106.659 66.7689 106.627 66.7663 106.607 66.7354C106.597 66.6981 106.604 66.6646 106.629 66.6351C107.176 66.2738 107.447 65.7548 107.442 65.0778C107.447 64.3945 107.219 63.7077 106.759 63.0176C106.106 62.0391 105.493 61.1307 104.919 60.2925L103.075 57.5268C102.546 56.7337 102.11 56.1806 101.767 55.8677C101.425 55.5547 101.105 55.409 100.807 55.4307C100.513 55.4356 100.128 55.5827 99.6513 55.8719C99.5878 55.9104 99.5424 55.9091 99.5149 55.8679C99.4874 55.8267 99.5054 55.7868 99.5689 55.7483C99.9075 55.5426 100.295 55.3216 100.732 55.0851C101.173 54.8319 101.399 54.7021 101.409 54.6956L102.743 53.8859L111.039 57.1621L111.426 48.6127L112.775 47.7933C112.786 47.7869 112.983 47.6596 113.368 47.4115C113.756 47.1467 114.104 46.9211 114.411 46.7347C114.496 46.6833 114.539 46.693 114.542 46.7638C114.541 46.8075 114.525 46.8391 114.493 46.8583C114.147 47.0975 113.903 47.289 113.761 47.4331C113.63 47.5707 113.563 47.7707 113.56 48.0332C113.549 48.2855 113.628 48.5706 113.795 48.8886C113.956 49.1963 114.227 49.6469 114.608 50.2404L118.431 55.9726C118.833 56.5533 119.15 56.9834 119.381 57.2628C119.605 57.532 119.842 57.7207 120.093 57.829C120.337 57.927 120.552 57.9484 120.738 57.8932C120.935 57.8315 121.22 57.7018 121.593 57.5038Z" fill="white"/>
<path d="M143.602 48.3583C141.86 49.0034 140.146 49.0047 138.461 48.362C136.775 47.7193 135.568 46.4905 134.838 44.6753C134.09 42.8143 134.084 41.0548 134.818 39.397C135.575 37.7305 136.86 36.5619 138.671 35.8909C139.159 35.7103 139.731 35.5577 140.388 35.4331C141.045 35.3086 141.419 35.2291 141.512 35.1947C141.954 35.0313 142.147 34.6495 142.092 34.0493C142.125 33.9316 142.16 33.9187 142.197 34.0106L145.664 38.9032C145.682 38.9491 145.666 38.975 145.615 38.9807C145.603 38.985 145.579 38.9742 145.542 38.9483C144.384 37.6613 143.151 36.7985 141.841 36.3599C140.531 35.9213 139.458 35.8569 138.622 36.1665C137.507 36.5794 136.758 37.4046 136.375 38.6419C136.004 39.875 136.134 41.2785 136.767 42.8523C137.473 44.61 138.536 45.8596 139.954 46.6012C141.384 47.3385 142.895 47.4125 144.485 46.8233C146.517 46.0706 147.595 44.2723 147.719 41.4282C147.747 41.3651 147.785 41.3443 147.834 41.3658C147.878 41.3759 147.9 41.414 147.9 41.48C147.74 45.0634 146.307 47.3562 143.602 48.3583Z" fill="white"/>
<path d="M161.094 29.3016C163.17 28.8289 164.993 29.0424 166.562 29.9422C168.14 30.8272 169.163 32.2323 169.63 34.1574C170.091 36.0584 169.799 37.7945 168.754 39.3656C167.706 40.9247 166.173 41.9338 164.157 42.3928C162.141 42.8518 160.35 42.6374 158.784 41.7496C157.228 40.847 156.219 39.4453 155.757 37.5442C155.296 35.6432 155.575 33.9099 156.597 32.3442C157.615 30.7666 159.114 29.7523 161.094 29.3016ZM164.549 42.037C165.762 41.7354 166.67 41.0145 167.272 39.8743C167.872 38.7222 167.913 37.189 167.398 35.275C166.953 33.497 166.1 32.028 164.838 30.8681C163.596 29.6905 162.26 29.2773 160.829 29.6285C159.604 29.9329 158.691 30.6612 158.092 31.8133C157.499 32.9896 157.46 34.5347 157.975 36.4488C158.253 37.541 158.72 38.5711 159.375 39.5392C160.007 40.4619 160.785 41.1736 161.709 41.6742C162.63 42.1628 163.577 42.2837 164.549 42.037Z" fill="white"/>
<path d="M198.261 37.6263C198.298 37.6236 198.324 37.6341 198.338 37.6579C198.364 37.6808 198.372 37.705 198.362 37.7306C198.351 37.7562 198.321 37.7709 198.272 37.7745C197.913 37.801 197.499 37.8193 197.028 37.8293C196.57 37.8507 196.335 37.8619 196.323 37.8628L194.435 38.021C194.373 38.0256 194.114 38.0509 193.658 38.0971C193.216 38.1547 192.828 38.2019 192.496 38.239C192.459 38.2417 192.427 38.2316 192.4 38.2088C192.386 38.185 192.384 38.1603 192.395 38.1347C192.418 38.1081 192.448 38.0935 192.485 38.0908C192.768 38.0574 192.983 38.0229 193.129 37.9872C193.288 37.9507 193.439 37.8899 193.582 37.8048C193.724 37.7074 193.821 37.6009 193.875 37.4851C193.941 37.3685 193.991 37.1911 194.023 36.9528C194.068 36.7136 194.086 36.4515 194.078 36.1666C194.082 35.8683 194.072 35.478 194.05 34.9954L193.413 26.141L189.433 32.6739L190.169 33.5878C189.493 34.2089 189.083 34.7172 188.938 35.1128C188.916 35.1517 188.885 35.154 188.845 35.1196L182.299 27.4658L182.86 35.2643C182.929 36.2152 183.222 37.0191 183.741 37.676C184.258 38.3081 184.938 38.6055 185.779 38.5681C185.816 38.5654 185.842 38.5759 185.856 38.5997C185.882 38.6225 185.884 38.6472 185.861 38.6738C185.85 38.6994 185.827 38.7136 185.79 38.7163C185.543 38.7346 184.986 38.7633 184.12 38.8025C183.699 38.8212 183.322 38.8429 182.989 38.8676C182.73 38.8867 182.434 38.9148 182.101 38.9518C181.436 39.0258 180.999 39.0706 180.789 39.0861C180.74 39.0898 180.714 39.0731 180.711 39.036C180.721 38.9981 180.743 38.9716 180.78 38.9565C181.432 38.8834 181.923 38.5429 182.252 37.9351C182.593 37.3264 182.733 36.6083 182.674 35.7809C182.589 34.6077 182.505 33.5153 182.419 32.5036L182.181 29.1878C182.113 28.2369 182.007 27.5433 181.864 27.1069C181.721 26.6706 181.514 26.3941 181.245 26.2774C180.988 26.1475 180.581 26.1031 180.026 26.1441C179.951 26.1496 179.913 26.1277 179.909 26.0783C179.906 26.0289 179.941 26.0014 180.015 25.996C180.41 25.9667 180.855 25.9462 181.351 25.9344C181.858 25.9093 182.118 25.8963 182.13 25.8954L183.686 25.7803L189.271 32.4996L193.817 25.031L195.391 24.9146C195.404 24.9137 195.638 24.8902 196.094 24.844C196.561 24.7846 196.974 24.7417 197.332 24.7152C197.431 24.7079 197.464 24.7365 197.431 24.801C197.409 24.8398 197.38 24.8607 197.343 24.8634C196.925 24.9191 196.619 24.979 196.425 25.043C196.243 25.1061 196.086 25.2543 195.954 25.4875C195.821 25.7084 195.749 25.9993 195.737 26.3602C195.725 26.7087 195.738 27.2354 195.777 27.9402L196.271 34.8125C196.334 35.5155 196.397 36.0447 196.46 36.4001C196.522 36.7432 196.635 37.0203 196.799 37.2317C196.962 37.4306 197.138 37.548 197.327 37.5837C197.528 37.6185 197.839 37.6327 198.261 37.6263Z" fill="white"/>
<path d="M213.305 32.8959L210.747 32.7292L210.586 34.6912C210.567 35.2234 210.557 35.6507 210.555 35.9731C210.555 36.2832 210.587 36.5707 210.652 36.8354C210.717 37.1002 210.788 37.2971 210.864 37.4261C210.954 37.5436 211.106 37.6528 211.322 37.7537C211.549 37.8554 211.773 37.9258 211.994 37.965C212.214 38.0042 212.539 38.0502 212.97 38.103C213.032 38.1071 213.074 38.1222 213.097 38.1485C213.119 38.1748 213.117 38.1995 213.09 38.2226C213.064 38.2456 213.019 38.2551 212.958 38.2511C212.414 38.2157 211.797 38.1631 211.107 38.0933C210.429 38.0366 210.084 38.0079 210.071 38.0071L208.255 37.8887C208.243 37.8879 208.001 37.8784 207.531 37.8601C207.059 37.8542 206.644 37.8396 206.286 37.8162C206.249 37.8138 206.219 37.7994 206.196 37.7731C206.186 37.7477 206.188 37.723 206.202 37.6991C206.229 37.676 206.261 37.6657 206.298 37.6681C206.646 37.666 206.908 37.6521 207.084 37.6263C207.261 37.5882 207.427 37.5308 207.583 37.4541C207.751 37.3659 207.87 37.2123 207.937 36.9934C208.018 36.763 208.09 36.4948 208.153 36.1887C208.216 35.8703 208.278 35.4215 208.338 34.8423L208.904 27.9569C208.94 27.3761 208.951 26.9303 208.94 26.6194C208.929 26.2962 208.902 26.0215 208.858 25.7953C208.828 25.5577 208.736 25.3904 208.583 25.2936C208.443 25.1852 208.288 25.1068 208.118 25.0586C207.949 24.9979 207.693 24.944 207.349 24.8968C207.312 24.8943 207.282 24.88 207.259 24.8537C207.249 24.8282 207.251 24.8035 207.265 24.7797C207.292 24.7566 207.324 24.7463 207.361 24.7487C207.719 24.772 208.132 24.8114 208.599 24.8666C209.068 24.9096 209.308 24.9315 209.321 24.9323L213.639 25.2138C215.529 25.337 216.983 25.7853 218 26.5587C219.031 27.3083 219.498 28.2754 219.401 29.4599C219.303 30.6445 218.714 31.5427 217.633 32.1546C216.551 32.7664 215.109 33.0135 213.305 32.8959ZM212.953 25.3924L211.508 25.2981C211.368 25.7853 211.262 26.4731 211.189 27.3615L210.767 32.4886L212.417 32.5961C213.739 32.6823 214.803 32.4291 215.609 31.8366C216.416 31.2441 216.865 30.3925 216.956 29.282C217.045 28.1961 216.728 27.3008 216.003 26.5961C215.292 25.8798 214.275 25.4786 212.953 25.3924Z" fill="white"/>
<path d="M234.557 30.7455L232.456 40.2476L234.609 40.6584C236.311 40.9834 237.699 40.8135 238.771 40.1488C239.841 39.4961 240.846 38.1573 241.789 36.1322C241.809 36.0983 241.832 36.0776 241.859 36.0701C241.886 36.0627 241.911 36.0673 241.932 36.0841C241.954 36.1008 241.961 36.1273 241.953 36.1636L239.048 42.5073C239.02 42.5775 238.983 42.5706 238.939 42.4864C238.72 41.9281 237.984 41.5294 236.731 41.2903L230.383 40.0787C230.371 40.0764 230.132 40.0372 229.668 39.961C229.2 39.897 228.79 39.8314 228.437 39.764C228.401 39.7571 228.373 39.7392 228.354 39.7104C228.347 39.6839 228.353 39.6597 228.37 39.6378C228.4 39.6183 228.433 39.612 228.469 39.619C228.815 39.6598 229.077 39.6783 229.256 39.6745C229.437 39.6587 229.609 39.6224 229.774 39.5656C229.954 39.4991 230.092 39.3616 230.188 39.1533C230.3 38.9352 230.408 38.6785 230.511 38.3833C230.617 38.0759 230.739 37.6393 230.877 37.0734L232.364 30.3458C232.478 29.7753 232.55 29.3355 232.58 29.0263C232.613 28.705 232.623 28.4298 232.61 28.2006C232.613 27.9616 232.544 27.7847 232.405 27.6699C232.28 27.5453 232.137 27.4487 231.974 27.3799C231.815 27.2991 231.567 27.214 231.232 27.1249C231.196 27.1179 231.168 27.1 231.149 27.0712C231.142 27.0447 231.148 27.0205 231.165 26.9987C231.195 26.9791 231.228 26.9728 231.264 26.9798C231.617 27.0471 232.022 27.137 232.479 27.2493C232.938 27.3496 233.174 27.4009 233.186 27.4033L235.014 27.7333C235.087 27.7472 235.393 27.7992 235.93 27.8892C236.471 27.9672 236.937 28.0373 237.329 28.0994C237.402 28.1134 237.433 28.1445 237.422 28.1929C237.412 28.2412 237.37 28.2584 237.297 28.2445C236.793 28.1735 236.42 28.1402 236.178 28.1444C235.949 28.151 235.725 28.2468 235.506 28.4319C235.288 28.6171 235.117 28.8742 234.993 29.2034C234.882 29.535 234.737 30.049 234.557 30.7455Z" fill="white"/>
<path d="M262.162 43.0189C262.222 42.9994 262.269 43.0147 262.303 43.0649L259.001 48.196C258.959 48.2735 258.924 48.262 258.895 48.1615L258.693 47.7445C258.462 47.37 257.935 47.0486 257.111 46.7803L250.118 44.5032C250.106 44.4994 249.874 44.4304 249.423 44.2964C248.967 44.1739 248.568 44.0571 248.227 43.946C248.191 43.9345 248.166 43.9133 248.151 43.8824C248.148 43.8553 248.157 43.8321 248.177 43.8127C248.209 43.7971 248.243 43.7951 248.278 43.8066C248.616 43.8907 248.874 43.9422 249.052 43.961C249.234 43.9682 249.411 43.9542 249.582 43.9189C249.769 43.8758 249.925 43.7575 250.05 43.5637C250.19 43.3623 250.332 43.1221 250.474 42.8433C250.621 42.5529 250.801 42.1366 251.015 41.5947L253.411 35.1146C253.601 34.5649 253.732 34.1392 253.804 33.8374C253.88 33.5239 253.927 33.2531 253.946 33.0249C253.98 32.7889 253.936 32.6054 253.813 32.4742C253.706 32.3353 253.576 32.2216 253.425 32.1331C253.277 32.033 253.043 31.9177 252.721 31.7871C252.686 31.7756 252.661 31.7544 252.646 31.7235C252.643 31.6964 252.651 31.6732 252.672 31.6538C252.704 31.6383 252.738 31.6362 252.773 31.6477C253.114 31.7589 253.504 31.8989 253.943 32.0678C254.386 32.2251 254.614 32.3057 254.626 32.3095L260.683 34.2818C261.825 34.6537 262.625 34.6475 263.083 34.2634C263.164 34.2245 263.199 34.236 263.189 34.2979L262.436 40.0831C262.427 40.1063 262.409 40.1199 262.381 40.1238C262.365 40.1316 262.347 40.1259 262.328 40.1066C262.309 40.0873 262.298 40.0641 262.294 40.0371C262.287 36.7038 261.082 34.6461 258.681 33.8641L256.508 33.1568L254.416 38.8182L256.482 39.491C257.165 39.7133 257.74 39.7252 258.21 39.5266C258.683 39.3165 259.027 38.9211 259.242 38.3404C259.259 38.294 259.285 38.2765 259.32 38.288C259.351 38.3111 259.366 38.342 259.365 38.3807L257.929 42.2652C257.916 42.3001 257.888 42.3234 257.844 42.3351C257.813 42.312 257.8 42.2753 257.806 42.225C258.037 41.5979 258.038 41.0778 257.809 40.6647C257.591 40.2554 257.123 39.9338 256.404 39.7L254.338 39.0272L252.155 44.9325L254.575 45.7202C257.435 46.6518 259.964 45.7513 262.162 43.0189Z" fill="white"/>
<path d="M274.758 53.8946L273.162 53.1425C273.151 53.1372 272.84 52.9975 272.229 52.7234C271.613 52.4603 271.069 52.2179 270.599 51.9962C270.543 51.9698 270.51 51.9404 270.499 51.908C270.488 51.8755 270.5 51.8537 270.534 51.8423C270.568 51.831 270.613 51.8385 270.669 51.8649C271.206 52.1183 271.618 52.2783 271.905 52.345C272.197 52.4007 272.488 52.3805 272.777 52.2842C273.066 52.1879 273.325 51.9889 273.555 51.687C273.802 51.3796 274.096 50.903 274.438 50.2575L278.942 41.7565L278.202 41.4082C277.374 41.0176 276.392 41.0337 275.259 41.4565C274.142 41.8736 272.946 42.7046 271.671 43.9494C271.636 43.9878 271.6 43.9911 271.561 43.959L271.579 43.8854L275.471 39.0342C275.511 38.9847 275.545 39.0006 275.572 39.0817C275.59 39.4181 275.757 39.7227 276.075 39.9953C276.398 40.257 276.985 40.5884 277.836 40.9896L282.255 43.0717C283.106 43.4729 283.739 43.7168 284.155 43.8034C284.577 43.8791 284.936 43.8226 285.232 43.6339C285.311 43.5894 285.345 43.6052 285.333 43.6814L283.557 49.5303C283.545 49.5793 283.522 49.5959 283.488 49.5801C283.466 49.5695 283.452 49.5426 283.447 49.4992C283.754 47.7843 283.743 46.3778 283.415 45.2798C283.098 44.1871 282.509 43.4376 281.646 43.0312L280.958 42.7066L276.454 51.2076C276.112 51.8531 275.879 52.3586 275.756 52.7242C275.649 53.0841 275.642 53.4019 275.734 53.6776C275.825 53.9533 275.983 54.1847 276.206 54.3717C276.434 54.5478 276.812 54.7599 277.338 55.008C277.394 55.0344 277.427 55.0638 277.438 55.0962C277.449 55.1287 277.437 55.1505 277.404 55.1619C277.37 55.1732 277.325 55.1657 277.269 55.1393C276.798 54.9176 276.266 54.6533 275.673 54.3464C275.074 54.0505 274.769 53.8998 274.758 53.8946Z" fill="white"/>
<path d="M294.961 49.9175L296.585 50.8928C296.596 50.8992 296.801 51.0152 297.2 51.2408C297.617 51.4625 297.98 51.6657 298.288 51.8506C298.373 51.9016 298.382 51.9432 298.316 51.9755C298.284 52 298.247 51.9994 298.205 51.9739C297.707 51.7179 297.333 51.5871 297.083 51.5815C296.834 51.5759 296.563 51.7018 296.271 51.9592C295.99 52.2229 295.576 52.739 295.03 53.5074L291.179 59.2429C290.675 60.0369 290.357 60.6103 290.225 60.9633C290.102 61.3226 290.097 61.6079 290.209 61.8191C290.32 62.0302 290.604 62.2946 291.061 62.6123C291.093 62.6315 291.107 62.6545 291.104 62.6814C291.111 62.7147 291.103 62.7385 291.079 62.7527C291.054 62.7669 291.021 62.7612 290.978 62.7357C290.67 62.5508 290.322 62.327 289.932 62.0642C289.546 61.8181 289.348 61.6918 289.338 61.6854L287.714 60.7101C287.703 60.7037 287.493 60.5845 287.082 60.3526C286.665 60.1309 286.303 59.9276 285.995 59.7427C285.963 59.7236 285.943 59.6974 285.936 59.6641C285.939 59.6372 285.953 59.6166 285.977 59.6024C286.013 59.5946 286.046 59.6003 286.078 59.6194C286.389 59.7773 286.629 59.8855 286.798 59.9439C286.974 59.9921 287.15 60.0184 287.326 60.0229C287.519 60.0236 287.699 59.9441 287.866 59.7846C288.05 59.6212 288.244 59.4206 288.449 59.1827C288.66 58.9346 288.933 58.5722 289.268 58.0955L293.12 52.36C293.434 51.8705 293.661 51.4877 293.802 51.2116C293.949 50.9253 294.059 50.6736 294.13 50.4567C294.218 50.236 294.218 50.0481 294.128 49.8933C294.056 49.7346 293.956 49.5952 293.828 49.4751C293.707 49.3447 293.505 49.18 293.222 48.981C293.19 48.9619 293.17 48.9357 293.163 48.9023C293.166 48.8754 293.18 48.8549 293.204 48.8407C293.239 48.8329 293.273 48.8385 293.305 48.8576C293.612 49.0425 293.961 49.2663 294.351 49.5291C294.747 49.7817 294.95 49.9111 294.961 49.9175Z" fill="white"/>
<path d="M312.086 61.1902C313.778 62.4835 314.748 63.9955 314.996 65.7262C315.263 67.455 314.754 69.0739 313.471 70.5829C312.203 72.073 310.598 72.8921 308.654 73.0402C306.718 73.1789 304.928 72.6204 303.286 71.3647C301.643 70.109 300.693 68.6205 300.437 66.8992C300.198 65.1761 300.713 63.5694 301.98 62.0793C303.247 60.5892 304.843 59.7625 306.768 59.5994C308.7 59.4268 310.473 59.9571 312.086 61.1902ZM303.823 71.4486C304.833 72.1892 305.994 72.4464 307.306 72.2201C308.626 71.9845 309.909 71.0971 311.153 69.5581C312.33 68.1548 312.997 66.626 313.154 64.9719C313.339 63.3234 312.838 62.0612 311.652 61.1853C310.632 60.4372 309.462 60.181 308.142 60.4166C306.806 60.6711 305.515 61.5679 304.271 63.107C303.551 63.9727 303 64.9446 302.619 66.0227C302.26 67.0555 302.166 68.0729 302.336 69.0747C302.515 70.0671 303.01 70.8584 303.823 71.4486Z" fill="white"/>
<path d="M335.544 82.8189C335.578 82.8543 335.582 82.8843 335.554 82.9089C335.517 82.9247 335.482 82.9234 335.446 82.9051C334.968 82.453 334.377 82.283 333.673 82.3949C332.968 82.5238 332.31 82.8593 331.698 83.4013L324.304 89.9543C324.276 89.9789 324.245 89.9735 324.21 89.9382C324.175 89.9199 324.163 89.8895 324.173 89.8472L325.18 74.9526L319.523 79.9659C318.809 80.5982 318.349 81.3034 318.142 82.0815C317.962 82.852 318.136 83.5239 318.664 84.0972C318.69 84.1237 318.698 84.1496 318.688 84.1749C318.687 84.209 318.669 84.2254 318.633 84.2242C318.606 84.2318 318.579 84.2223 318.553 84.1958C318.371 84.0101 318.012 83.6262 317.475 83.0441C317.207 82.753 316.965 82.4969 316.748 82.2759C316.557 82.0815 316.34 81.869 316.097 81.6385C315.61 81.1776 315.293 80.872 315.146 80.7217C315.111 80.6864 315.108 80.6564 315.136 80.6317C315.172 80.6159 315.208 80.6172 315.243 80.6355C315.721 81.0876 316.308 81.2532 317.004 81.1325C317.708 81.0206 318.37 80.6895 318.991 80.1393L323.759 75.9144C324.528 75.2328 325.045 74.6918 325.31 74.2914C325.594 73.8915 325.704 73.554 325.642 73.2786C325.58 73.0033 325.354 72.6667 324.964 72.2689C324.912 72.2159 324.904 72.173 324.941 72.1401C324.988 72.0991 325.037 72.105 325.089 72.1581C325.366 72.441 325.669 72.7674 325.997 73.1374C326.343 73.5081 326.521 73.6978 326.53 73.7066L327.505 74.7011L326.386 87.812L331.167 83.5747C331.881 82.9424 332.332 82.2369 332.521 81.4582C332.727 80.6801 332.562 80.0085 332.025 79.4434C331.999 79.4169 331.987 79.3866 331.988 79.3525C331.998 79.3272 332.017 79.3108 332.044 79.3032C332.08 79.3044 332.111 79.3183 332.137 79.3449C332.319 79.5305 332.678 79.9144 333.214 80.4966C333.482 80.7876 333.725 81.0437 333.941 81.2647C334.132 81.4592 334.349 81.6716 334.593 81.9021C335.079 82.363 335.396 82.6686 335.544 82.8189Z" fill="white"/>
<path d="M338.205 109.714C337.813 109.127 337.442 108.47 337.09 107.742C336.739 107.015 336.519 106.584 336.429 106.451C336.216 106.131 335.822 106.052 335.246 106.214C335.207 106.223 335.178 106.212 335.157 106.181C335.143 106.161 335.149 106.136 335.174 106.106L339.518 101.818C339.553 101.782 339.578 101.774 339.592 101.795C339.626 101.846 339.631 101.887 339.606 101.916C338.623 103.208 338.023 104.571 337.805 106.006C337.584 107.457 337.786 108.652 338.411 109.589C338.926 110.361 339.557 110.883 340.302 111.154C341.065 111.429 341.754 111.38 342.368 111.007C343.097 110.651 343.458 110.033 343.452 109.154C343.455 108.892 343.416 108.554 343.333 108.141L343.055 106.921C343.008 106.717 342.861 106.184 342.613 105.322C342.18 103.848 342.032 102.679 342.169 101.814C342.317 100.943 342.803 100.257 343.629 99.7555C344.475 99.2414 345.382 99.1397 346.347 99.4506C347.323 99.755 348.169 100.443 348.883 101.514C349.199 101.988 349.509 102.552 349.812 103.208C350.115 103.863 350.315 104.263 350.411 104.407C350.528 104.538 350.655 104.628 350.791 104.676C350.944 104.727 351.074 104.743 351.179 104.722C351.291 104.712 351.43 104.686 351.595 104.643C351.633 104.634 351.659 104.64 351.673 104.661C351.687 104.681 351.681 104.706 351.656 104.736L347.605 108.76C347.541 108.798 347.503 108.785 347.49 108.721C347.476 108.701 347.487 108.672 347.522 108.636C348.487 107.385 349.063 106.109 349.251 104.808C349.442 103.534 349.218 102.418 348.579 101.46C348.201 100.893 347.69 100.517 347.045 100.329C346.413 100.163 345.838 100.237 345.32 100.552C344.893 100.826 344.599 101.12 344.437 101.436C344.282 101.761 344.238 102.229 344.304 102.841C344.376 103.462 344.584 104.342 344.926 105.48C345.438 107.094 345.652 108.419 345.569 109.453C345.486 110.488 345.037 111.253 344.222 111.747C343.259 112.332 342.201 112.418 341.048 112.004C339.894 111.59 338.947 110.827 338.205 109.714Z" fill="white"/>
<path d="M347.948 126.185L347.164 124.604C347.158 124.593 347.001 124.291 346.693 123.697C346.373 123.109 346.097 122.581 345.866 122.116C345.838 122.06 345.83 122.016 345.842 121.984C345.853 121.951 345.876 121.941 345.91 121.953C345.943 121.965 345.974 121.999 346.001 122.054C346.265 122.586 346.489 122.967 346.672 123.197C346.866 123.421 347.106 123.584 347.391 123.685C347.676 123.787 348.002 123.788 348.367 123.69C348.75 123.597 349.273 123.4 349.938 123.097L358.694 119.112L358.331 118.381C357.924 117.56 357.146 116.969 356 116.607C354.87 116.251 353.423 116.175 351.66 116.379C351.609 116.389 351.578 116.369 351.568 116.319L351.627 116.272L357.658 114.812C357.72 114.798 357.736 114.831 357.707 114.912C357.514 115.19 357.457 115.536 357.538 115.948C357.629 116.355 357.884 116.98 358.303 117.822L360.474 122.197C360.893 123.04 361.238 123.624 361.51 123.949C361.793 124.269 362.108 124.445 362.456 124.477C362.545 124.491 362.562 124.524 362.505 124.577L357.515 128.132C357.475 128.164 357.447 128.163 357.431 128.13C357.42 128.108 357.426 128.078 357.449 128.04C358.744 126.866 359.602 125.742 360.022 124.667C360.447 123.603 360.448 122.644 360.024 121.791L359.685 121.109L350.929 125.093C350.264 125.396 349.771 125.654 349.449 125.869C349.144 126.089 348.943 126.337 348.845 126.613C348.747 126.889 348.727 127.169 348.786 127.455C348.856 127.736 349.021 128.137 349.28 128.658C349.307 128.714 349.315 128.757 349.304 128.79C349.292 128.822 349.27 128.833 349.236 128.821C349.203 128.809 349.172 128.775 349.144 128.72C348.913 128.254 348.66 127.716 348.385 127.107C348.099 126.503 347.954 126.196 347.948 126.185Z" fill="white"/>
<path d="M357.616 150.681C357.632 150.728 357.616 150.759 357.569 150.774C357.521 150.788 357.49 150.772 357.474 150.725C357.384 150.455 357.284 150.136 357.174 149.768L357.027 149.211L356.368 147.239C356.364 147.227 356.277 146.988 356.109 146.522C355.932 146.071 355.787 145.676 355.673 145.335C355.661 145.3 355.663 145.267 355.679 145.236C355.699 145.217 355.722 145.21 355.75 145.214C355.781 145.23 355.803 145.256 355.815 145.291C356.062 145.992 356.405 146.333 356.842 146.314C357.295 146.303 357.977 145.924 358.889 145.175C358.944 145.106 359.118 144.962 359.409 144.742L358.456 141.888L357.444 138.858L357.036 138.81C356.142 138.672 355.41 138.808 354.842 139.217C354.294 139.646 354.137 140.232 354.373 140.976C354.385 141.011 354.381 141.038 354.361 141.057C354.345 141.088 354.321 141.095 354.29 141.079C354.262 141.075 354.243 141.055 354.231 141.02C354.145 140.761 353.984 140.241 353.748 139.458C353.631 139.067 353.523 138.725 353.425 138.431C353.366 138.255 353.293 138.057 353.207 137.838C353.034 137.399 352.922 137.103 352.871 136.951C352.86 136.915 352.877 136.89 352.925 136.876C352.972 136.861 353.001 136.871 353.013 136.907C353.162 137.314 353.578 137.658 354.259 137.94C354.94 138.221 355.793 138.43 356.817 138.566L365.227 139.655C365.831 139.04 366.267 138.588 366.535 138.297C366.571 138.247 366.602 138.244 366.63 138.287C366.889 138.674 367.179 139.012 367.497 139.302C367.82 139.603 368.115 139.784 368.383 139.844C368.415 139.86 368.423 139.883 368.407 139.914L359.636 147.412C358.693 148.222 358.078 148.841 357.789 149.267C357.521 149.674 357.463 150.145 357.616 150.681ZM357.71 138.893L358.681 141.799L359.611 144.582C362.088 142.545 363.891 140.969 365.02 139.855L357.71 138.893Z" fill="white"/>
<path d="M360.648 165.067L360.329 163.332C360.327 163.32 360.26 162.986 360.127 162.331C359.982 161.677 359.862 161.095 359.768 160.583C359.757 160.523 359.761 160.478 359.781 160.449C359.801 160.421 359.826 160.416 359.855 160.436C359.883 160.457 359.903 160.497 359.915 160.558C360.022 161.142 360.132 161.569 360.244 161.839C360.369 162.106 360.554 162.325 360.799 162.496C361.044 162.667 361.356 162.751 361.733 162.748C362.124 162.755 362.68 162.696 363.399 162.57L372.876 160.917L372.729 160.114C372.564 159.212 371.981 158.441 370.982 157.798C369.998 157.165 368.633 156.725 366.888 156.476C366.837 156.472 366.813 156.445 366.816 156.394L366.886 156.363L373.062 156.474C373.125 156.475 373.132 156.512 373.082 156.583C372.82 156.805 372.672 157.126 372.636 157.547C372.612 157.966 372.685 158.638 372.855 159.564L373.736 164.368C373.906 165.293 374.077 165.949 374.248 166.333C374.432 166.716 374.685 166.967 375.009 167.087C375.092 167.123 375.098 167.159 375.03 167.196L369.276 169.387C369.23 169.408 369.203 169.4 369.197 169.364C369.192 169.339 369.206 169.312 369.238 169.281C370.801 168.468 371.93 167.592 372.627 166.654C373.325 165.728 373.588 164.796 373.416 163.858L373.279 163.109L363.802 164.762C363.082 164.888 362.539 165.014 362.172 165.141C361.819 165.278 361.558 165.468 361.389 165.711C361.22 165.954 361.124 166.222 361.102 166.515C361.093 166.806 361.141 167.237 361.246 167.81C361.257 167.871 361.252 167.915 361.232 167.944C361.213 167.973 361.188 167.977 361.159 167.957C361.13 167.937 361.11 167.896 361.099 167.835C361.005 167.324 360.91 166.737 360.814 166.075C360.705 165.416 360.65 165.08 360.648 165.067Z" fill="white"/>
<path d="M376.756 192.243C376.761 192.292 376.744 192.319 376.707 192.322C376.669 192.313 376.642 192.291 376.627 192.255C376.555 191.615 376.218 191.13 375.616 190.8C375.013 190.47 374.324 190.341 373.547 190.413L369.571 190.781C368.363 190.892 367.254 190.808 366.246 190.528C364.245 189.992 363.146 188.67 362.952 186.562C362.808 185.008 363.085 183.634 363.783 182.438C364.57 181.134 366.049 180.382 368.218 180.181L372.49 179.787C373.069 179.721 373.51 179.655 373.815 179.59C374.132 179.523 374.399 179.449 374.615 179.366C374.845 179.295 374.995 179.176 375.067 179.008C375.152 178.851 375.205 178.684 375.226 178.508C375.259 178.331 375.272 178.069 375.265 177.721C375.262 177.684 375.271 177.652 375.293 177.625C375.317 177.611 375.342 177.608 375.367 177.618C375.394 177.641 375.409 177.67 375.413 177.707C375.446 178.065 375.471 178.473 375.489 178.931C375.52 179.401 375.536 179.642 375.537 179.654L375.713 181.559C375.714 181.571 375.742 181.805 375.796 182.26C375.864 182.726 375.915 183.138 375.948 183.496C375.951 183.533 375.941 183.558 375.918 183.573C375.895 183.6 375.871 183.602 375.844 183.58C375.818 183.57 375.803 183.546 375.8 183.509C375.712 182.958 375.596 182.583 375.453 182.385C375.311 182.187 375.05 182.056 374.671 181.991C374.293 181.939 373.635 181.944 372.695 182.006L368.719 182.373C367.45 182.49 366.401 182.718 365.574 183.055C363.985 183.749 363.274 185.009 363.443 186.833C363.576 188.276 364.162 189.303 365.201 189.916C366.24 190.529 367.672 190.751 369.497 190.582L372.437 190.311C373.51 190.211 374.405 189.874 375.122 189.298C375.841 188.734 376.172 188.013 376.116 187.136C376.113 187.099 376.122 187.067 376.145 187.04C376.181 187.024 376.211 187.021 376.237 187.031C376.276 187.053 376.298 187.082 376.301 187.119C376.327 187.402 376.369 187.989 376.427 188.879C376.444 189.064 376.455 189.249 376.459 189.435C376.476 189.62 376.483 189.763 376.48 189.862C376.489 189.961 376.495 190.029 376.499 190.066C376.523 190.325 376.556 190.62 376.599 190.952C376.686 191.615 376.738 192.046 376.756 192.243Z" fill="white"/>
<path d="M364.909 208.346C364.844 207.643 364.83 206.886 364.867 206.074C364.904 205.263 364.915 204.777 364.9 204.617C364.865 204.234 364.556 203.989 363.974 203.881C363.936 203.873 363.915 203.85 363.912 203.813C363.91 203.788 363.926 203.768 363.962 203.752L369.806 201.795C369.854 201.778 369.879 201.782 369.881 201.806C369.887 201.868 369.872 201.907 369.836 201.922C368.362 202.655 367.189 203.622 366.318 204.821C365.435 206.034 365.046 207.202 365.149 208.324C365.235 209.248 365.54 209.997 366.066 210.57C366.605 211.155 367.232 211.414 367.947 211.348C368.755 211.348 369.365 210.949 369.776 210.153C369.903 209.917 370.029 209.595 370.153 209.186L370.487 207.961C370.543 207.757 370.667 207.211 370.858 206.323C371.178 204.801 371.603 203.68 372.133 202.96C372.675 202.238 373.427 201.833 374.389 201.744C375.375 201.653 376.218 201.961 376.918 202.667C377.629 203.372 378.044 204.366 378.163 205.648C378.215 206.215 378.219 206.861 378.174 207.586C378.129 208.312 378.115 208.761 378.131 208.933C378.171 209.104 378.24 209.24 378.337 209.343C378.447 209.457 378.553 209.528 378.655 209.556C378.758 209.597 378.892 209.634 379.057 209.668C379.095 209.677 379.115 209.694 379.117 209.719C379.12 209.743 379.103 209.764 379.067 209.779L373.605 211.627C373.531 211.634 373.504 211.605 373.523 211.541C373.52 211.517 373.543 211.496 373.591 211.479C375.031 210.774 376.141 209.876 376.923 208.784C377.695 207.718 378.028 206.611 377.922 205.465C377.86 204.787 377.59 204.221 377.113 203.768C376.638 203.339 376.098 203.153 375.494 203.209C374.99 203.268 374.592 203.404 374.301 203.617C374.011 203.843 373.75 204.246 373.518 204.827C373.287 205.421 373.051 206.307 372.812 207.485C372.495 209.168 372.055 210.458 371.491 211.356C370.928 212.254 370.171 212.746 369.222 212.834C368.1 212.938 367.131 212.548 366.316 211.666C365.501 210.784 365.032 209.677 364.909 208.346Z" fill="white"/>
</svg>
