<svg width="299" height="196" viewBox="0 0 299 196" fill="none" xmlns="http://www.w3.org/2000/svg">
<path d="M19.6721 149.051C19.6703 149.014 19.6942 148.994 19.7436 148.992C19.7931 148.989 19.8187 149.006 19.8204 149.043C19.8552 149.513 20.1634 149.998 20.7451 150.5C21.3138 150.99 22.0606 151.445 22.9855 151.867L28.3264 154.312L29.8285 154.231C30.5579 154.191 31.1128 154.13 31.4931 154.048C31.8604 153.953 32.1442 153.795 32.3444 153.574C32.5445 153.352 32.6749 153.097 32.7356 152.809C32.7838 152.521 32.7941 152.086 32.7664 151.505C32.7635 151.443 32.7738 151.399 32.7973 151.373C32.8209 151.347 32.8456 151.346 32.8715 151.369C32.8974 151.393 32.9118 151.435 32.9148 151.497C32.9395 152.016 32.9554 152.611 32.9625 153.28C32.982 153.948 32.992 154.289 32.9926 154.301L33.0765 156.064C33.0771 156.076 33.0995 156.416 33.1436 157.083C33.2002 157.749 33.2408 158.342 33.2655 158.862C33.2685 158.924 33.2582 158.967 33.2346 158.994C33.2111 159.02 33.1863 159.021 33.1604 158.998C33.1345 158.974 33.1201 158.932 33.1172 158.87C33.0889 158.276 33.0371 157.839 32.9617 157.558C32.874 157.277 32.72 157.038 32.4999 156.839C32.2797 156.64 31.9827 156.519 31.6088 156.478C31.222 156.424 30.6639 156.417 29.9345 156.457L28.5622 156.531L23.1667 159.966C22.1317 160.617 21.4141 161.164 21.0137 161.607C20.6605 161.998 20.4866 162.51 20.4919 163.142C20.4936 163.179 20.4825 163.204 20.4583 163.218C20.4342 163.232 20.4095 163.233 20.3841 163.222C20.3588 163.211 20.3453 163.187 20.3435 163.15C20.3282 162.828 20.3161 162.445 20.3073 161.999L20.3117 161.31L20.2092 159.158C20.2086 159.146 20.1898 158.881 20.1527 158.362C20.1026 157.831 20.0682 157.368 20.0493 156.973C20.0476 156.935 20.0587 156.91 20.0829 156.896C20.1064 156.87 20.1312 156.869 20.1571 156.892C20.1824 156.903 20.1959 156.927 20.1977 156.964C20.2477 157.755 20.4856 158.195 20.9112 158.284C21.3245 158.373 22.0436 158.117 23.0686 157.516L28.0535 154.438L23.1886 152.228C22.3755 151.813 21.6411 151.747 20.9853 152.031C20.3412 152.301 20.028 152.882 20.0457 153.774C20.0475 153.811 20.0366 153.842 20.0131 153.869C19.9889 153.882 19.9642 153.884 19.9389 153.873C19.913 153.849 19.8991 153.819 19.8974 153.782C19.8844 153.51 19.8685 152.915 19.8496 151.999C19.8402 151.541 19.8273 151.138 19.8108 150.792C19.8013 150.594 19.7843 150.366 19.7595 150.107C19.7101 149.589 19.6809 149.237 19.6721 149.051Z" fill="white"/>
<path d="M20.3865 138.08C20.6027 135.962 21.3884 134.299 22.7434 133.093C24.0873 131.873 25.7465 131.344 27.7209 131.504C29.6707 131.662 31.2231 132.484 32.378 133.969C33.5206 135.452 33.9869 137.223 33.777 139.28C33.567 141.337 32.7907 142.969 31.448 144.176C30.0943 145.37 28.4425 145.888 26.4927 145.73C24.5429 145.571 22.9893 144.762 21.8319 143.302C20.6621 141.841 20.1803 140.1 20.3865 138.08ZM33.565 138.797C33.6673 137.551 33.2744 136.463 32.3862 135.534C31.4857 134.604 30.0457 134.083 28.0662 133.972C26.2386 133.836 24.5729 134.185 23.0693 135.02C21.5558 135.828 20.7366 136.966 20.6117 138.434C20.5081 139.692 20.9066 140.787 21.8071 141.717C22.7322 142.649 24.1846 143.17 26.1641 143.281C27.2883 143.36 28.4142 143.241 29.5416 142.922C30.6185 142.612 31.542 142.097 32.3123 141.378C33.0703 140.657 33.4878 139.796 33.565 138.797Z" fill="white"/>
<path d="M25.6549 112.912C25.6672 112.864 25.6915 112.844 25.7278 112.852C25.761 112.872 25.779 112.901 25.7818 112.94C25.6333 113.566 25.7891 114.127 26.2493 114.622C26.7095 115.117 27.3203 115.45 28.0818 115.619L31.9796 116.485C33.1641 116.748 34.1874 117.166 35.0495 117.738C36.7679 118.855 37.363 120.439 36.8348 122.489C36.4456 124 35.7177 125.213 34.651 126.13C33.4629 127.121 31.8053 127.38 29.6781 126.907L25.4902 125.976C24.9191 125.862 24.4778 125.789 24.1664 125.758C23.8428 125.724 23.5646 125.713 23.3316 125.725C23.0896 125.721 22.9062 125.788 22.7815 125.926C22.6477 126.048 22.5411 126.189 22.4616 126.349C22.37 126.506 22.2689 126.75 22.1582 127.08C22.1489 127.116 22.1291 127.143 22.0988 127.162C22.0715 127.168 22.0474 127.163 22.0263 127.146C22.0083 127.116 22.0039 127.084 22.0132 127.048C22.1028 126.7 22.2168 126.307 22.3552 125.869C22.4847 125.416 22.551 125.183 22.5541 125.171L23.0313 123.319C23.0344 123.307 23.087 123.078 23.1892 122.632C23.2824 122.171 23.3738 121.766 23.4634 121.419C23.4726 121.383 23.4909 121.361 23.5182 121.355C23.5485 121.336 23.5727 121.341 23.5907 121.371C23.6118 121.388 23.6177 121.415 23.6084 121.451C23.5057 121.998 23.4885 122.388 23.5568 122.618C23.6252 122.849 23.8283 123.053 24.1662 123.229C24.5071 123.394 25.1338 123.59 26.0462 123.818L29.944 124.684C31.1889 124.961 32.2607 125.066 33.1596 125C34.9029 124.829 36.0032 123.857 36.4603 122.082C36.8217 120.68 36.6131 119.53 35.8343 118.635C35.0555 117.739 33.7718 117.093 31.983 116.695L29.1005 116.054C28.0489 115.821 27.0852 115.866 26.2092 116.191C25.3363 116.505 24.7781 117.084 24.5346 117.93C24.5254 117.966 24.5056 117.993 24.4752 118.012C24.4359 118.016 24.4057 118.009 24.3846 117.992C24.3545 117.96 24.3441 117.926 24.3534 117.89C24.4244 117.614 24.5832 117.047 24.8298 116.189C24.8761 116.009 24.9285 115.831 24.9869 115.654C25.0332 115.474 25.0748 115.337 25.1116 115.244C25.1363 115.148 25.1533 115.082 25.1625 115.046C25.2274 114.794 25.2955 114.505 25.3668 114.179C25.5094 113.526 25.6055 113.104 25.6549 112.912Z" fill="white"/>
<path d="M43.9457 99.7972C43.9602 99.763 43.9815 99.7446 44.0096 99.7419C44.0376 99.7392 44.0608 99.7479 44.0791 99.768C44.0975 99.7881 44.0994 99.8152 44.0848 99.8494C43.9587 100.146 43.8026 100.497 43.6164 100.902L43.3198 101.504L42.876 102.547C42.6793 102.883 42.3793 103.113 41.9761 103.24C41.5613 103.361 40.9677 103.429 40.1954 103.443L38.995 103.469C37.896 103.492 37.0131 103.782 36.3463 104.338C35.668 104.889 35.0596 105.797 34.5213 107.061L34.4122 107.318L36.8292 108.225C37.3373 108.389 37.7469 108.516 38.058 108.606C38.3575 108.692 38.646 108.741 38.9234 108.753C39.2007 108.764 39.4144 108.752 39.5642 108.716C39.7073 108.664 39.8631 108.551 40.0316 108.376C40.2049 108.19 40.3467 107.999 40.4572 107.802C40.5677 107.606 40.7194 107.313 40.9123 106.923C40.9365 106.866 40.9651 106.83 40.998 106.816C41.0309 106.802 41.0541 106.811 41.0675 106.842C41.081 106.874 41.0757 106.918 41.0514 106.975C40.838 107.476 40.584 108.042 40.2892 108.671C40.0109 109.293 39.8693 109.61 39.8644 109.621L39.1516 111.296C39.1467 111.307 39.0579 111.531 38.8852 111.969C38.7242 112.41 38.5733 112.796 38.4326 113.127C38.4181 113.161 38.3944 113.185 38.3615 113.199C38.3335 113.202 38.3103 113.193 38.2919 113.173C38.2785 113.141 38.279 113.109 38.2935 113.074C38.4061 112.747 38.479 112.497 38.5121 112.324C38.5336 112.147 38.5329 111.975 38.51 111.808C38.4803 111.625 38.3708 111.472 38.1816 111.348C37.9856 111.208 37.7499 111.067 37.4747 110.924C37.1878 110.777 36.7744 110.595 36.2344 110.38L29.7661 107.953C29.2164 107.76 28.7894 107.626 28.485 107.551C28.1691 107.472 27.8947 107.422 27.6618 107.401C27.4221 107.364 27.2302 107.404 27.086 107.522C26.9351 107.624 26.8083 107.748 26.7056 107.894C26.5914 108.036 26.4547 108.263 26.2958 108.573C26.2812 108.607 26.2575 108.631 26.2246 108.645C26.1966 108.648 26.1734 108.639 26.1551 108.619C26.1416 108.588 26.1421 108.555 26.1567 108.521C26.2973 108.19 26.4713 107.813 26.6788 107.389C26.8747 106.96 26.9751 106.74 26.9799 106.729L28.6748 102.747C30.2364 99.0792 32.0952 97.6496 34.2513 98.4586C35.1323 98.7892 35.6789 99.4633 35.891 100.481C36.1031 101.498 35.9809 102.78 35.5243 104.327C36.4579 102.418 37.625 101.429 39.0256 101.36L40.0971 101.306C41.374 101.243 42.2658 101.122 42.7726 100.942C43.289 100.74 43.68 100.358 43.9457 99.7972ZM28.7259 103.48L28.1585 104.813C28.5834 105.078 29.2132 105.367 30.0478 105.68L34.2036 107.24L34.4218 106.727C35.0425 105.269 35.2614 103.997 35.0784 102.911C34.8722 101.816 34.2707 101.082 33.2737 100.708C32.2768 100.334 31.4083 100.384 30.6682 100.86C29.9214 101.319 29.2739 102.193 28.7259 103.48Z" fill="white"/>
<path d="M41.9287 77.2741L47.5592 79.0761C47.5912 79.0949 47.5936 79.125 47.5664 79.1664C47.546 79.1974 47.5163 79.2087 47.4775 79.2002C44.1603 78.5278 41.8042 79.2518 40.4091 81.3721L39.2148 83.1874L44.3069 86.1789L45.6339 84.162C46.0422 83.5414 46.2078 82.9861 46.1305 82.4961C46.0494 81.9895 45.7472 81.5826 45.2242 81.2753C45.1921 81.2565 45.1776 81.2336 45.1805 81.2066C45.1728 81.1734 45.1864 81.1527 45.2214 81.1446C45.2456 81.1302 45.2738 81.1324 45.3058 81.1512L48.8767 83.249C48.9087 83.2678 48.9232 83.2907 48.9203 83.3177C48.9174 83.3446 48.9038 83.3653 48.8795 83.3797C48.8552 83.3942 48.827 83.392 48.795 83.3731C47.6634 82.7084 46.6791 83.0121 45.8421 84.2843L44.5151 86.3012L47.6055 88.1168C48.2383 88.4599 48.7178 88.6985 49.0439 88.8328C49.37 88.967 49.6836 89.0078 49.9846 88.9552C50.275 88.8963 50.513 88.7708 50.6986 88.5787C50.8735 88.3803 51.1369 88.0475 51.4888 87.5802C51.5228 87.5284 51.5573 87.4985 51.5923 87.4904C51.6273 87.4822 51.6486 87.4948 51.6563 87.528C51.6641 87.5612 51.6509 87.6037 51.6169 87.6554C51.3447 88.0691 51.0244 88.5335 50.656 89.0485C50.2982 89.5697 50.116 89.8355 50.1092 89.8458L49.0986 91.3818C49.0918 91.3921 48.9644 91.597 48.7165 91.9963C48.4792 92.4018 48.2619 92.7546 48.0646 93.0546C48.0442 93.0856 48.0165 93.1052 47.9815 93.1133C47.9534 93.1111 47.932 93.0986 47.9175 93.0757C47.9097 93.0425 47.9161 93.0103 47.9365 92.9793C48.1057 92.6772 48.2219 92.4443 48.2851 92.2807C48.3377 92.1108 48.3675 91.9418 48.3744 91.7738C48.3775 91.5892 48.2965 91.4197 48.1316 91.2654C47.9628 91.0946 47.7552 90.9152 47.5087 90.7274C47.2516 90.5333 46.8755 90.2837 46.3806 89.9786L40.4238 86.4791C39.9153 86.1946 39.5174 85.9895 39.2301 85.8638C38.9321 85.7318 38.67 85.6352 38.4439 85.574C38.2138 85.4962 38.0172 85.5026 37.854 85.5931C37.6869 85.6671 37.5397 85.7671 37.4124 85.893C37.2745 86.0128 37.0995 86.2112 36.8876 86.4882C36.8672 86.5193 36.8395 86.5388 36.8046 86.547C36.7764 86.5448 36.7551 86.5322 36.7405 86.5094C36.7328 86.4761 36.7391 86.444 36.7595 86.413C36.9569 86.113 37.1955 85.7728 37.4755 85.3923C37.7448 85.0055 37.8828 84.807 37.8896 84.7966L41.3092 79.5992C41.9625 78.6062 42.1486 77.8622 41.8674 77.3672C41.8481 77.2841 41.8685 77.2531 41.9287 77.2741Z" fill="white"/>
<path d="M50.2608 67.7058C51.6544 66.0955 53.2643 65.1706 55.0905 64.9309C56.915 64.6742 58.6091 65.1541 60.1725 66.3706C61.7165 67.5719 62.5477 69.0959 62.6664 70.9428C62.7752 72.7821 62.1531 74.4835 60.8001 76.047C59.447 77.6104 57.8623 78.5158 56.0458 78.7631C54.2277 78.9934 52.5467 78.508 51.0027 77.3067C49.4588 76.1054 48.6194 74.5907 48.4846 72.7626C48.34 70.9268 48.9321 69.2412 50.2608 67.7058ZM60.8987 75.5362C61.6974 74.5754 61.9903 73.4717 61.7774 72.2251C61.5547 70.9709 60.6454 69.7542 59.0495 68.5752C57.5952 67.4593 55.9991 66.8285 54.2613 66.6826C52.5299 66.5104 51.1919 66.989 50.2473 68.1183C49.4404 69.0884 49.1483 70.2006 49.371 71.4548C49.6133 72.7243 50.5324 73.9485 52.1282 75.1275C53.0256 75.8101 54.0379 76.3314 55.1652 76.6915C56.2453 77.0305 57.3141 77.118 58.3718 76.954C59.4197 76.7823 60.2619 76.3097 60.8987 75.5362Z" fill="white"/>
<path d="M78.2729 58.9307C78.3009 58.9063 78.3281 58.8989 78.3547 58.9086C78.3812 58.9183 78.3983 58.9362 78.4062 58.9621C78.414 58.9881 78.4039 59.0133 78.3759 59.0377C78.1333 59.2492 77.8396 59.4969 77.495 59.7809L76.9653 60.1934L76.1112 60.9378C75.7875 61.1543 75.4161 61.232 74.9968 61.1709C74.5689 61.101 74.0028 60.9054 73.2986 60.5841L72.2026 60.0877C71.199 59.6338 70.275 59.5122 69.4309 59.7231C68.5781 59.925 67.6337 60.4775 66.5977 61.3804L66.3877 61.5635L68.1783 63.423C68.5663 63.7902 68.8812 64.0816 69.1232 64.2972C69.3566 64.5039 69.5961 64.6724 69.8418 64.8027C70.0875 64.9331 70.2859 65.0144 70.4371 65.0466C70.5891 65.0618 70.7791 65.0274 71.0072 64.9434C71.2447 64.8513 71.456 64.7409 71.6412 64.6123C71.8264 64.4837 72.0909 64.286 72.4347 64.0191C72.4814 63.9784 72.5227 63.9589 72.5585 63.9604C72.5943 63.962 72.6115 63.9798 72.61 64.0139C72.6085 64.048 72.5845 64.0854 72.5378 64.1261C72.1271 64.484 71.6519 64.8819 71.112 65.3196C70.5901 65.7581 70.3244 65.9814 70.3151 65.9896L68.9431 67.1854C68.9337 67.1935 68.756 67.3566 68.4099 67.6747C68.0724 68.0016 67.7683 68.2831 67.4977 68.519C67.4697 68.5434 67.4377 68.5548 67.4019 68.5532C67.3754 68.5435 67.3582 68.5257 67.3504 68.4997C67.3519 68.4656 67.3666 68.4364 67.3946 68.412C67.6388 68.1663 67.8133 67.9732 67.9182 67.8326C68.0145 67.683 68.0886 67.5282 68.1405 67.3682C68.1932 67.1911 68.1608 67.006 68.0436 66.8129C67.9271 66.6028 67.7755 66.374 67.5888 66.1267C67.3935 65.8704 67.0987 65.5286 66.7044 65.1013L61.9122 60.1248C61.4993 59.7138 61.1714 59.409 60.9287 59.2104C60.6774 59.003 60.4512 58.8393 60.2499 58.7194C60.0494 58.5825 59.8584 58.5357 59.677 58.5791C59.4963 58.6053 59.3277 58.662 59.1713 58.7492C59.0062 58.8274 58.7845 58.9715 58.506 59.1814C58.478 59.2058 58.446 59.2172 58.4102 59.2157C58.3837 59.206 58.3665 59.1881 58.3587 59.1622C58.3601 59.1281 58.3749 59.0988 58.4029 59.0744C58.6736 58.8385 58.9948 58.5749 59.3667 58.2836C59.7299 57.9834 59.9162 57.8292 59.9256 57.8211L63.1877 54.9779C66.1931 52.3584 68.4945 51.8781 70.0918 53.537C70.7445 54.2148 70.9457 55.0565 70.6952 56.0622C70.4448 57.0678 69.7773 58.1663 68.6927 59.3576C70.366 58.0468 71.8507 57.6632 73.1467 58.2068L74.1386 58.6218C75.3199 59.1177 76.1787 59.3944 76.7149 59.452C77.2697 59.4934 77.789 59.3196 78.2729 58.9307ZM62.9155 55.658L61.8235 56.6098C62.0924 57.0316 62.536 57.5636 63.1543 58.2057L66.2331 61.4029L66.6531 61.0369C67.8478 59.9956 68.5984 58.9477 68.9049 57.8932C69.1941 56.8209 68.9695 55.9013 68.2309 55.1343C67.4923 54.3673 66.6853 54.0373 65.8098 54.1443C64.935 54.2342 63.9702 54.7387 62.9155 55.658Z" fill="white"/>
<path d="M95.2909 47.8334C95.3223 47.8135 95.3503 47.8104 95.3749 47.824C95.4099 47.8311 95.4293 47.8481 95.433 47.875C95.4367 47.902 95.4177 47.9287 95.3759 47.9553C95.0729 48.1479 94.7158 48.3603 94.3046 48.5924C93.9109 48.828 93.7088 48.9491 93.6984 48.9557L92.1103 49.9872C92.0581 50.0204 91.8422 50.165 91.4627 50.4209C91.1007 50.6803 90.7822 50.9048 90.5071 51.0943C90.4758 51.1142 90.4426 51.1206 90.4075 51.1136C90.3829 51.0999 90.3688 51.0796 90.3651 51.0527C90.3718 51.0191 90.3908 50.9923 90.4222 50.9724C90.6554 50.8095 90.8277 50.678 90.9389 50.578C91.0606 50.4713 91.1629 50.3476 91.2458 50.207C91.3216 50.0562 91.3538 49.9185 91.3423 49.7938C91.3413 49.6626 91.2944 49.4871 91.2017 49.2676C91.1194 49.0414 91.0021 48.8081 90.8498 48.5679C90.7008 48.3108 90.4934 47.9809 90.2278 47.5781L85.152 40.2951L84.9634 47.7805L86.0798 48.2141C85.7995 49.0666 85.6959 49.6968 85.769 50.1046C85.7694 50.1484 85.7432 50.165 85.6907 50.1545L76.0035 46.7043L80.474 53.1188C81.0191 53.9009 81.6884 54.4502 82.4819 54.7667C83.2613 55.0628 84.0133 54.9952 84.7379 54.5638C84.7693 54.5439 84.7972 54.5408 84.8219 54.5544C84.8569 54.5615 84.8711 54.5818 84.8643 54.6154C84.868 54.6423 84.8542 54.6658 84.8229 54.6857C84.6139 54.8185 84.1366 55.1073 83.3911 55.5519C83.0287 55.7676 82.7065 55.9651 82.4244 56.1444C82.205 56.2839 81.9577 56.4484 81.6827 56.6379C81.1326 57.0169 80.7688 57.2628 80.5911 57.3757C80.5494 57.4023 80.5178 57.4004 80.4966 57.3699C80.4858 57.3328 80.4925 57.2992 80.5168 57.2691C81.0564 56.8967 81.3166 56.3722 81.2974 55.6956C81.2885 55.0123 81.047 54.3303 80.5727 53.6498C79.9001 52.6848 79.2684 51.7892 78.6775 50.9629L76.7767 48.2355C76.2316 47.4534 75.7846 46.9094 75.4357 46.6035C75.0868 46.2976 74.7637 46.1585 74.4664 46.1863C74.1725 46.1972 73.7904 46.3522 73.3202 46.651C73.2575 46.6909 73.212 46.6905 73.1837 46.6499C73.1554 46.6092 73.1726 46.569 73.2353 46.5292C73.5696 46.3166 73.9529 46.0876 74.385 45.8423C74.8205 45.5801 75.0434 45.4457 75.0539 45.4391L76.3704 44.6022L84.7319 47.7078L84.9436 39.1523L86.2758 38.3054C86.2862 38.2988 86.4812 38.1675 86.8607 37.9116C87.2436 37.6389 87.5866 37.4062 87.8896 37.2136C87.9732 37.1605 88.017 37.1693 88.0211 37.24C88.0214 37.2837 88.0059 37.3156 87.9746 37.3355C87.6335 37.5816 87.3935 37.7782 87.2546 37.9251C87.1262 38.0653 87.063 38.2667 87.0651 38.5293C87.06 38.7817 87.1445 39.0651 87.3184 39.3796C87.4853 39.6839 87.7653 40.1289 88.1583 40.7146L92.0979 46.3673C92.5119 46.9396 92.8372 47.3631 93.0738 47.6378C93.3034 47.9022 93.5446 48.0861 93.7974 48.1892C94.0431 48.2822 94.2585 48.2991 94.4436 48.2401C94.6391 48.1745 94.9215 48.0389 95.2909 47.8334Z" fill="white"/>
<path d="M110.13 41.7515C108.403 42.4322 106.689 42.4685 104.991 41.8605C103.293 41.2525 102.06 40.0486 101.294 38.2488C100.508 36.4034 100.465 34.6445 101.165 32.9719C101.888 31.2903 103.148 30.0956 104.946 29.3877C105.429 29.1971 105.998 29.0329 106.653 28.8949C107.307 28.7569 107.68 28.6698 107.772 28.6335C108.21 28.461 108.395 28.0754 108.329 27.4764C108.359 27.3581 108.394 27.3445 108.432 27.4356L111.999 32.2562C112.018 32.3017 112.002 32.3279 111.951 32.3346C111.94 32.3392 111.915 32.3289 111.878 32.3038C110.694 31.0408 109.443 30.2034 108.124 29.7917C106.805 29.3801 105.731 29.3376 104.902 29.6643C103.796 30.0999 103.064 30.9402 102.707 32.1852C102.361 33.4256 102.52 34.8261 103.184 36.3866C103.927 38.1295 105.014 39.3571 106.448 40.0695C107.893 40.7773 109.404 40.8204 110.983 40.1987C112.998 39.4047 114.039 37.5846 114.105 34.7386C114.132 34.6749 114.17 34.6533 114.219 34.6739C114.263 34.683 114.286 34.7206 114.287 34.7867C114.2 38.3726 112.815 40.6942 110.13 41.7515Z" fill="white"/>
<path d="M122.111 23.9607C124.178 23.4456 126.004 23.6218 127.591 24.4892C129.187 25.3418 130.238 26.7256 130.745 28.6407C131.245 30.5319 130.989 32.2736 129.976 33.8658C128.96 35.4461 127.448 36.4863 125.442 36.9864C123.436 37.4866 121.641 37.3089 120.057 36.4534C118.482 35.5829 117.445 34.2021 116.944 32.3109C116.444 30.4198 116.688 28.6811 117.677 27.0948C118.663 25.4966 120.141 24.4519 122.111 23.9607ZM125.826 36.6228C127.033 36.2963 127.926 35.557 128.505 34.4048C129.08 33.2405 129.091 31.7069 128.536 29.8038C128.055 28.0353 127.172 26.5841 125.886 25.4502C124.621 24.2984 123.277 23.9126 121.854 24.2929C120.634 24.6224 119.737 25.3692 119.162 26.5334C118.592 27.7216 118.585 29.2672 119.14 31.1703C119.44 32.2565 119.927 33.2769 120.603 34.2314C121.253 35.1409 122.045 35.8365 122.979 36.3181C123.91 36.7878 124.859 36.8893 125.826 36.6228Z" fill="white"/>
<path d="M153.283 32.5692C153.32 32.5657 153.346 32.5757 153.361 32.5991C153.388 32.6215 153.396 32.6455 153.386 32.6714C153.376 32.6972 153.346 32.7124 153.297 32.7171C152.94 32.7509 152.526 32.7776 152.055 32.7973C151.598 32.8281 151.363 32.8441 151.351 32.8452L149.466 33.0421C149.405 33.0479 149.146 33.0786 148.692 33.134C148.25 33.2007 147.863 33.2559 147.532 33.2997C147.495 33.3032 147.463 33.2938 147.436 33.2714C147.421 33.2479 147.419 33.2233 147.429 33.1975C147.451 33.1705 147.481 33.1552 147.518 33.1517C147.801 33.1126 148.014 33.0737 148.16 33.0351C148.318 32.9952 148.468 32.9314 148.609 32.8434C148.749 32.7431 148.844 32.6346 148.896 32.5178C148.959 32.3998 149.005 32.2214 149.033 31.9825C149.073 31.7424 149.086 31.48 149.072 31.1953C149.069 30.8971 149.051 30.507 149.019 30.025L148.201 21.1855L144.356 27.7985L145.11 28.6972C144.448 29.3319 144.048 29.8485 143.911 30.247C143.89 30.2863 143.859 30.2893 143.818 30.2558L137.117 22.7376L137.837 30.523C137.925 31.4723 138.235 32.27 138.768 32.9161C139.298 33.5375 139.983 33.8209 140.823 33.7663C140.86 33.7628 140.886 33.7728 140.901 33.7963C140.928 33.8186 140.93 33.8433 140.908 33.8702C140.898 33.8961 140.874 33.9107 140.837 33.9142C140.591 33.9375 140.035 33.9777 139.17 34.0346C138.749 34.0619 138.373 34.0913 138.04 34.1228C137.781 34.1473 137.486 34.1814 137.154 34.2252C136.491 34.3129 136.054 34.3666 135.845 34.3864C135.796 34.3911 135.769 34.3749 135.766 34.3379C135.775 34.2998 135.797 34.2728 135.833 34.2569C136.484 34.1705 136.968 33.8201 137.284 33.2057C137.612 32.5901 137.738 31.8693 137.662 31.0433C137.553 29.8721 137.446 28.7816 137.34 27.7718L137.034 24.4616C136.946 23.5123 136.826 22.821 136.674 22.3877C136.522 21.9543 136.31 21.6821 136.039 21.571C135.779 21.4464 135.371 21.4103 134.817 21.4627C134.743 21.4697 134.704 21.4486 134.699 21.3993C134.694 21.3499 134.729 21.3218 134.803 21.3148C135.197 21.2775 135.642 21.2479 136.138 21.2259C136.644 21.1904 136.904 21.1721 136.916 21.1709L138.469 21.024L144.191 27.6276L148.583 20.0675L150.154 19.9188C150.167 19.9177 150.4 19.8893 150.855 19.8339C151.321 19.7649 151.733 19.7135 152.09 19.6797C152.189 19.6704 152.223 19.6983 152.191 19.7635C152.17 19.8028 152.141 19.8242 152.104 19.8277C151.687 19.892 151.383 19.9581 151.19 20.0261C151.01 20.0929 150.856 20.2442 150.728 20.4801C150.6 20.7037 150.534 20.996 150.53 21.357C150.525 21.7057 150.549 22.232 150.601 22.9359L151.236 29.7967C151.314 30.4982 151.387 31.026 151.457 31.3801C151.526 31.7218 151.645 31.9966 151.813 32.2045C151.981 32.4001 152.159 32.5138 152.349 32.5456C152.55 32.5763 152.862 32.5841 153.283 32.5692Z" fill="white"/>
<path d="M162.657 27.6985L160.097 27.5841L159.976 29.549C159.968 30.0815 159.966 30.5089 159.971 30.8313C159.977 31.1414 160.015 31.4281 160.085 31.6915C160.156 31.9549 160.231 32.1503 160.31 32.2777C160.402 32.3933 160.557 32.4994 160.774 32.5958C161.004 32.6928 161.229 32.7587 161.45 32.7933C161.671 32.828 161.997 32.8673 162.429 32.9114C162.491 32.9141 162.533 32.9284 162.556 32.9542C162.58 32.9801 162.578 33.0048 162.552 33.0284C162.526 33.052 162.481 33.0624 162.42 33.0597C161.875 33.0354 161.258 32.9954 160.567 32.9397C159.887 32.897 159.541 32.8754 159.529 32.8748L157.711 32.7936C157.698 32.7931 157.457 32.7885 156.986 32.7799C156.514 32.7836 156.099 32.7774 155.74 32.7614C155.703 32.7598 155.673 32.746 155.65 32.7202C155.639 32.6949 155.641 32.6702 155.655 32.6461C155.681 32.6225 155.713 32.6115 155.75 32.6131C156.097 32.6039 156.359 32.5846 156.535 32.5552C156.711 32.5135 156.876 32.4528 157.03 32.3729C157.196 32.2812 157.311 32.1252 157.375 31.905C157.451 31.673 157.517 31.4033 157.573 31.096C157.63 30.7764 157.683 30.3264 157.731 29.7462L158.156 22.8506C158.18 22.2692 158.182 21.8233 158.164 21.5127C158.147 21.1897 158.114 20.9156 158.066 20.6904C158.031 20.4534 157.936 20.2881 157.781 20.1944C157.638 20.0889 157.482 20.0138 157.311 19.969C157.141 19.9118 156.883 19.8631 156.538 19.8229C156.501 19.8213 156.471 19.8075 156.448 19.7817C156.437 19.7565 156.439 19.7317 156.452 19.7076C156.479 19.684 156.51 19.673 156.548 19.6746C156.906 19.6907 157.32 19.7215 157.788 19.7672C158.258 19.8006 158.498 19.8175 158.511 19.8181L162.834 20.0111C164.726 20.0956 166.189 20.5141 167.221 21.2665C168.268 21.9948 168.754 22.9521 168.681 24.1384C168.608 25.3247 168.037 26.2348 166.969 26.8687C165.9 27.5025 164.463 27.7791 162.657 27.6985ZM162.152 20.2037L160.705 20.1391C160.575 20.629 160.483 21.3188 160.428 22.2085L160.112 27.3432L161.763 27.4169C163.086 27.476 164.145 27.2011 164.939 26.5922C165.734 25.9833 166.165 25.1227 166.233 24.0105C166.301 22.923 165.965 22.0344 165.226 21.3447C164.5 20.6431 163.475 20.2628 162.152 20.2037Z" fill="white"/>
<path d="M178.508 24.5681L176.602 34.1112L178.762 34.4779C180.471 34.7679 181.855 34.5697 182.913 33.8831C183.969 33.2088 184.947 31.8496 185.848 29.8057C185.867 29.7713 185.89 29.7501 185.917 29.7421C185.944 29.7341 185.969 29.7383 185.991 29.7546C186.013 29.7709 186.02 29.7972 186.013 29.8336L183.238 36.2355C183.212 36.3063 183.175 36.3001 183.129 36.2169C182.898 35.6631 182.155 35.2796 180.897 35.0662L174.526 33.9848C174.513 33.9828 174.274 33.9484 173.808 33.8819C173.339 33.8274 172.928 33.7702 172.574 33.7101C172.537 33.7039 172.509 33.6866 172.489 33.6581C172.482 33.6318 172.487 33.6075 172.504 33.5853C172.533 33.5651 172.566 33.5582 172.603 33.5644C172.949 33.5981 173.212 33.6113 173.39 33.6039C173.571 33.5843 173.743 33.5444 173.906 33.4843C174.084 33.4141 174.219 33.2739 174.312 33.0636C174.419 32.8433 174.521 32.5845 174.619 32.2872C174.718 31.9777 174.831 31.5387 174.957 30.9701L176.307 24.2135C176.409 23.6408 176.472 23.1995 176.496 22.8898C176.522 22.5679 176.527 22.2925 176.509 22.0636C176.506 21.8246 176.434 21.6492 176.292 21.5373C176.165 21.4153 176.02 21.3216 175.856 21.2561C175.695 21.1786 175.446 21.0986 175.109 21.0163C175.073 21.0101 175.045 20.9928 175.025 20.9644C175.018 20.938 175.022 20.9137 175.04 20.8915C175.069 20.8714 175.102 20.8644 175.138 20.8707C175.492 20.9307 175.899 21.0123 176.358 21.1153C176.819 21.2061 177.056 21.2526 177.068 21.2547L178.903 21.5472C178.976 21.5596 179.283 21.6053 179.822 21.6844C180.364 21.7512 180.831 21.8117 181.225 21.8659C181.298 21.8783 181.33 21.9088 181.32 21.9574C181.31 22.0059 181.269 22.024 181.195 22.0116C180.69 21.9509 180.317 21.9252 180.075 21.9344C179.846 21.9457 179.624 22.0461 179.409 22.2356C179.194 22.4252 179.029 22.6858 178.912 23.0175C178.808 23.3512 178.673 23.8681 178.508 24.5681Z" fill="white"/>
<path d="M201.463 35.1418C201.523 35.1211 201.57 35.1355 201.605 35.1849L198.409 40.3826C198.369 40.4609 198.334 40.4501 198.303 40.3503L198.092 39.9374C197.854 39.5678 197.32 39.2573 196.49 39.0059L189.452 36.8725C189.44 36.8689 189.207 36.8047 188.753 36.6799C188.295 36.5668 187.894 36.4582 187.55 36.3541C187.515 36.3433 187.489 36.3226 187.473 36.292C187.47 36.265 187.478 36.2416 187.498 36.2218C187.529 36.2056 187.563 36.2029 187.599 36.2137C187.939 36.2908 188.198 36.337 188.376 36.3522C188.558 36.3557 188.734 36.338 188.905 36.2992C189.091 36.2524 189.244 36.1308 189.365 35.9346C189.501 35.7303 189.638 35.4873 189.775 35.2056C189.916 34.9122 190.087 34.4924 190.29 33.9461L192.552 27.4184C192.731 26.865 192.853 26.4366 192.919 26.1334C192.989 25.8184 193.03 25.5467 193.044 25.3182C193.074 25.0815 193.026 24.8989 192.9 24.7704C192.79 24.6337 192.659 24.5226 192.505 24.4373C192.355 24.3402 192.119 24.2297 191.795 24.1057C191.759 24.0949 191.734 24.0742 191.718 24.0437C191.715 24.0167 191.723 23.9933 191.743 23.9735C191.774 23.9573 191.808 23.9545 191.844 23.9653C192.187 24.0695 192.58 24.2015 193.022 24.3614C193.468 24.5095 193.697 24.5854 193.709 24.589L199.806 26.4369C200.955 26.7853 201.755 26.7628 202.205 26.3693C202.285 26.3288 202.32 26.3396 202.312 26.4016L201.677 32.201C201.669 32.2244 201.651 32.2384 201.623 32.2429C201.607 32.251 201.59 32.2456 201.57 32.2267C201.55 32.2078 201.539 32.1849 201.535 32.1579C201.459 28.8255 200.212 26.7929 197.795 26.0602L195.609 25.3976L193.633 31.1006L195.712 31.731C196.399 31.9393 196.975 31.9394 197.44 31.7313C197.909 31.5114 198.245 31.1091 198.448 30.5241C198.464 30.4774 198.49 30.4593 198.526 30.4701C198.557 30.4926 198.573 30.5232 198.572 30.5619L197.216 34.475C197.204 34.5101 197.176 34.534 197.132 34.5466C197.101 34.5241 197.087 34.4877 197.092 34.4373C197.311 33.8056 197.301 33.2856 197.063 32.8772C196.836 32.4725 196.362 32.1606 195.639 31.9415L193.56 31.3112L191.498 37.2599L193.933 37.998C196.812 38.8707 199.322 37.9187 201.463 35.1418Z" fill="white"/>
<path d="M209.429 43.9814L207.818 43.2621C207.807 43.2571 207.493 43.1238 206.877 42.8623C206.255 42.6118 205.707 42.3806 205.232 42.1686C205.176 42.1434 205.142 42.1146 205.13 42.0824C205.119 42.0502 205.13 42.0281 205.164 42.0161C205.198 42.0041 205.243 42.0107 205.299 42.0359C205.842 42.2782 206.257 42.4297 206.545 42.4906C206.838 42.5403 207.129 42.5141 207.416 42.4119C207.702 42.3098 207.958 42.1054 208.181 41.799C208.422 41.4865 208.706 41.0041 209.035 40.3517L213.363 31.7602L212.617 31.4271C211.781 31.0536 210.8 31.0898 209.675 31.5357C208.567 31.9756 207.389 32.8309 206.139 34.1015C206.105 34.1407 206.069 34.1446 206.029 34.1134L206.046 34.0395L209.838 29.1095C209.877 29.0593 209.911 29.0744 209.94 29.1549C209.964 29.491 210.138 29.792 210.461 30.0581C210.79 30.3131 211.384 30.6325 212.243 31.0161L216.703 33.0073C217.562 33.391 218.2 33.6218 218.618 33.6999C219.041 33.767 219.399 33.7032 219.691 33.5085C219.77 33.4623 219.803 33.4774 219.793 33.5539L218.137 39.4378C218.126 39.4871 218.104 39.5042 218.07 39.489C218.047 39.479 218.033 39.4523 218.027 39.409C218.298 37.6882 218.259 36.2823 217.908 35.1912C217.569 34.1052 216.964 33.3679 216.094 32.9792L215.398 32.6688L211.07 41.2602C210.741 41.9126 210.519 42.4228 210.403 42.7908C210.304 43.1528 210.303 43.4707 210.4 43.7445C210.498 44.0183 210.66 44.2464 210.886 44.4288C211.118 44.6002 211.5 44.8045 212.032 45.0417C212.088 45.067 212.122 45.0957 212.134 45.1279C212.145 45.1601 212.134 45.1822 212.1 45.1943C212.066 45.2063 212.021 45.1997 211.965 45.1744C211.49 44.9624 210.953 44.7091 210.353 44.4144C209.749 44.1308 209.44 43.9864 209.429 43.9814Z" fill="white"/>
<path d="M225.966 37.7897L227.609 38.7316C227.62 38.7377 227.827 38.8495 228.232 39.0668C228.653 39.2799 229.02 39.4757 229.331 39.6543C229.417 39.7035 229.427 39.745 229.362 39.7786C229.331 39.8037 229.294 39.8039 229.251 39.7793C228.747 39.5335 228.371 39.4104 228.121 39.4099C227.872 39.4094 227.604 39.5408 227.317 39.8041C227.041 40.0736 226.638 40.598 226.108 41.3775L222.375 47.1906C221.888 47.9947 221.582 48.5745 221.456 48.9302C221.342 49.2919 221.342 49.5772 221.458 49.7861C221.573 49.9949 221.863 50.2535 222.326 50.5617C222.359 50.5802 222.373 50.6029 222.371 50.6299C222.379 50.6631 222.371 50.687 222.347 50.7017C222.323 50.7164 222.289 50.7114 222.246 50.6868C221.934 50.5082 221.581 50.2916 221.186 50.0368C220.796 49.7986 220.595 49.6764 220.584 49.6703L218.941 48.7284C218.93 48.7223 218.717 48.6074 218.302 48.3839C217.881 48.1708 217.514 47.975 217.203 47.7965C217.17 47.778 217.15 47.7522 217.142 47.719C217.145 47.6921 217.158 47.6712 217.182 47.6565C217.217 47.648 217.251 47.653 217.283 47.6715C217.597 47.823 217.839 47.9262 218.01 47.9812C218.187 48.0257 218.363 48.0484 218.539 48.0493C218.732 48.046 218.911 47.9629 219.074 47.8C219.255 47.6329 219.445 47.4283 219.644 47.1863C219.851 46.9339 220.116 46.566 220.441 46.0825L224.175 40.2694C224.478 39.7736 224.698 39.3862 224.833 39.1073C224.975 38.818 225.079 38.5642 225.146 38.3459C225.23 38.1233 225.225 37.9355 225.133 37.7826C225.057 37.6254 224.954 37.488 224.824 37.3706C224.7 37.2427 224.495 37.0822 224.207 36.889C224.175 36.8705 224.155 36.8447 224.147 36.8116C224.15 36.7846 224.163 36.7637 224.187 36.7491C224.222 36.7405 224.255 36.7455 224.288 36.764C224.599 36.9425 224.952 37.1592 225.347 37.4139C225.749 37.6583 225.955 37.7835 225.966 37.7897Z" fill="white"/>
<path d="M239.617 46.3254C241.335 47.5838 242.336 49.0756 242.62 50.8009C242.922 52.5239 242.446 54.1528 241.194 55.6878C239.957 57.2035 238.369 58.0553 236.428 58.2432C234.495 58.4215 232.695 57.8998 231.027 56.678C229.359 55.4562 228.379 53.9874 228.087 52.2718C227.813 50.5538 228.295 48.937 229.532 47.4212C230.768 45.9055 232.347 45.0463 234.267 44.8438C236.196 44.6317 237.979 45.1256 239.617 46.3254ZM231.566 56.7509C232.59 57.4706 233.756 57.704 235.064 57.4509C236.379 57.1882 237.643 56.2748 238.856 54.7106C240.004 53.2835 240.64 51.7414 240.763 50.0844C240.914 48.4325 240.387 47.1808 239.183 46.3293C238.148 45.6023 236.974 45.3701 235.658 45.6327C234.327 45.9146 233.056 46.8376 231.843 48.4018C231.141 49.2821 230.61 50.2651 230.251 51.3507C229.913 52.3907 229.84 53.4097 230.031 54.4079C230.23 55.3964 230.741 56.1774 231.566 56.7509Z" fill="white"/>
<path d="M259.343 63.9698C259.378 64.0044 259.382 64.0343 259.355 64.0595C259.319 64.0761 259.283 64.0755 259.248 64.058C258.76 63.6158 258.166 63.4578 257.464 63.5841C256.762 63.7275 256.111 64.0764 255.511 64.6308L248.252 71.3338C248.225 71.359 248.193 71.3542 248.158 71.3196C248.122 71.302 248.109 71.272 248.119 71.2294L248.82 56.3173L243.267 61.4454C242.567 62.0922 242.121 62.8066 241.93 63.5888C241.766 64.3628 241.954 65.031 242.493 65.5934C242.52 65.6194 242.528 65.6451 242.519 65.6706C242.519 65.7047 242.5 65.7215 242.464 65.721C242.437 65.7291 242.411 65.7202 242.384 65.6942C242.198 65.5124 241.831 65.1359 241.283 64.5648C241.009 64.2793 240.762 64.0283 240.54 63.8118C240.346 63.6212 240.124 63.4132 239.876 63.1878C239.38 62.7369 239.057 62.4379 238.907 62.2907C238.871 62.256 238.867 62.2261 238.895 62.2009C238.931 62.1844 238.967 62.1849 239.002 62.2025C239.489 62.6447 240.079 62.7983 240.772 62.6633C241.474 62.537 242.13 62.1925 242.739 61.6297L247.419 57.308C248.174 56.6108 248.68 56.0593 248.937 55.6535C249.213 55.248 249.316 54.9082 249.248 54.6342C249.181 54.3602 248.948 54.0284 248.549 53.6386C248.496 53.5867 248.488 53.5439 248.524 53.5103C248.57 53.4683 248.619 53.4733 248.672 53.5252C248.955 53.8024 249.265 54.1226 249.6 54.4858C249.954 54.8493 250.135 55.0353 250.144 55.044L251.14 56.0183L250.289 69.1493L254.983 64.8151C255.683 64.1683 256.12 63.4537 256.293 62.6713C256.484 61.8891 256.305 61.221 255.757 60.667C255.73 60.641 255.717 60.611 255.717 60.5768C255.727 60.5514 255.745 60.5346 255.772 60.5264C255.808 60.527 255.839 60.5402 255.866 60.5662C256.052 60.7481 256.418 61.1245 256.967 61.6956C257.241 61.9811 257.488 62.2322 257.709 62.4487C257.904 62.6392 258.125 62.8472 258.373 63.0726C258.869 63.5235 259.193 63.8225 259.343 63.9698Z" fill="white"/>
<path d="M258.799 84.8819C258.395 84.303 258.011 83.6535 257.644 82.9334C257.278 82.2134 257.049 81.7874 256.957 81.6553C256.738 81.3404 256.342 81.2697 255.769 81.4432C255.731 81.453 255.701 81.4426 255.68 81.4122C255.665 81.3919 255.67 81.3667 255.695 81.3366L259.95 76.9605C259.985 76.9238 260.009 76.9156 260.023 76.9359C260.059 76.9867 260.064 77.0271 260.04 77.0572C259.084 78.3684 258.512 79.7434 258.324 81.1823C258.132 82.6381 258.358 83.8281 259.003 84.7524C259.534 85.5142 260.175 86.0229 260.926 86.2784C261.694 86.5374 262.381 86.4743 262.987 86.089C263.709 85.7182 264.058 85.0935 264.033 84.2148C264.031 83.9523 263.985 83.6153 263.894 83.2039L263.591 81.9897C263.54 81.7873 263.382 81.2575 263.116 80.4004C262.654 78.9357 262.482 77.7697 262.601 76.9024C262.731 76.0284 263.203 75.3324 264.018 74.8143C264.854 74.2829 265.758 74.1628 266.73 74.4538C267.712 74.7382 268.571 75.4086 269.307 76.4649C269.633 76.9322 269.954 77.4903 270.271 78.1392C270.587 78.7881 270.795 79.1837 270.894 79.3259C271.014 79.4548 271.143 79.5417 271.279 79.5867C271.434 79.6351 271.563 79.648 271.668 79.6253C271.78 79.6128 271.918 79.5837 272.082 79.538C272.121 79.5282 272.147 79.5335 272.161 79.5538C272.175 79.5741 272.17 79.5993 272.146 79.6294L268.177 83.7353C268.115 83.7752 268.076 83.763 268.062 83.699C268.047 83.6787 268.058 83.6501 268.092 83.6134C269.031 82.3425 269.581 81.0547 269.742 79.7502C269.907 78.4727 269.661 77.3616 269.002 76.4169C268.613 75.8582 268.094 75.492 267.445 75.3182C266.81 75.1646 266.237 75.2506 265.725 75.5761C265.304 75.8586 265.016 76.159 264.861 76.4774C264.713 76.806 264.678 77.2752 264.756 77.8851C264.841 78.5051 265.067 79.3804 265.433 80.5111C265.977 82.1144 266.218 83.4342 266.156 84.4703C266.095 85.5064 265.661 86.2802 264.857 86.7916C263.906 87.396 262.85 87.5031 261.688 87.1129C260.527 86.7226 259.564 85.979 258.799 84.8819Z" fill="white"/>
<path d="M265.604 97.6973L264.787 96.1334C264.781 96.1224 264.618 95.8233 264.297 95.236C263.965 94.6541 263.679 94.1327 263.438 93.6717C263.41 93.6169 263.401 93.5731 263.412 93.5404C263.423 93.5078 263.445 93.4971 263.479 93.5083C263.513 93.5195 263.544 93.5526 263.572 93.6075C263.848 94.1342 264.079 94.5104 264.267 94.7361C264.465 94.9563 264.708 95.1142 264.996 95.2097C265.283 95.3052 265.608 95.3 265.972 95.1941C266.352 95.0939 266.871 94.8857 267.53 94.5696L276.203 90.4065L275.824 89.6821C275.4 88.87 274.611 88.2948 273.457 87.9565C272.32 87.6238 270.872 87.5777 269.113 87.8181C269.063 87.8286 269.032 87.8092 269.02 87.7599L269.079 87.7113L275.078 86.1284C275.14 86.1126 275.157 86.1455 275.13 86.2272C274.942 86.5094 274.893 86.8557 274.981 87.2661C275.081 87.6711 275.349 88.2907 275.785 89.1248L278.046 93.4543C278.481 94.2883 278.838 94.865 279.117 95.1843C279.406 95.4983 279.725 95.6678 280.073 95.6928C280.163 95.7046 280.18 95.7375 280.125 95.7916L275.208 99.4487C275.169 99.4811 275.141 99.4809 275.124 99.4479C275.113 99.426 275.118 99.396 275.14 99.358C276.412 98.1574 277.246 97.0156 277.644 95.9325C278.047 94.8605 278.028 93.9019 277.587 93.0568L277.234 92.3819L268.562 96.545C267.903 96.8611 267.415 97.1297 267.098 97.3506C266.797 97.5772 266.601 97.8294 266.509 98.107C266.416 98.3847 266.403 98.6658 266.467 98.9503C266.543 99.2295 266.716 99.6271 266.986 100.143C267.014 100.198 267.023 100.242 267.012 100.274C267.001 100.307 266.979 100.318 266.945 100.306C266.911 100.295 266.88 100.262 266.852 100.207C266.611 99.7462 266.347 99.2141 266.06 98.6107C265.761 98.0127 265.609 97.7083 265.604 97.6973Z" fill="white"/>
<path d="M273.803 117.51C273.82 117.557 273.805 117.588 273.758 117.604C273.711 117.619 273.679 117.604 273.662 117.557C273.567 117.289 273.46 116.972 273.343 116.607L273.184 116.053L272.485 114.094C272.481 114.082 272.39 113.845 272.211 113.383C272.025 112.936 271.872 112.543 271.751 112.205C271.739 112.17 271.74 112.137 271.755 112.106C271.775 112.087 271.798 112.079 271.826 112.083C271.858 112.098 271.88 112.123 271.892 112.158C272.154 112.854 272.503 113.188 272.94 113.16C273.393 113.14 274.067 112.747 274.963 111.979C275.017 111.909 275.188 111.761 275.475 111.535L274.463 108.702L273.389 105.694L272.98 105.653C272.083 105.534 271.355 105.685 270.796 106.105C270.256 106.545 270.112 107.135 270.362 107.873C270.375 107.908 270.371 107.935 270.352 107.955C270.337 107.986 270.313 107.994 270.281 107.978C270.254 107.975 270.234 107.955 270.221 107.92C270.13 107.664 269.958 107.147 269.707 106.369C269.581 105.981 269.466 105.64 269.362 105.349C269.3 105.174 269.223 104.978 269.132 104.76C268.951 104.325 268.833 104.031 268.779 103.88C268.766 103.845 268.783 103.82 268.83 103.804C268.877 103.788 268.907 103.798 268.92 103.833C269.077 104.237 269.499 104.573 270.186 104.84C270.873 105.108 271.73 105.299 272.757 105.414L281.187 106.331C281.778 105.704 282.205 105.242 282.467 104.946C282.502 104.896 282.533 104.892 282.562 104.935C282.829 105.315 283.125 105.647 283.45 105.931C283.778 106.226 284.077 106.401 284.346 106.455C284.378 106.47 284.387 106.493 284.371 106.525L275.756 114.201C274.83 115.03 274.227 115.661 273.948 116.093C273.688 116.505 273.639 116.978 273.803 117.51ZM273.656 105.722L274.686 108.608L275.673 111.372C278.108 109.284 279.879 107.672 280.984 106.535L273.656 105.722Z" fill="white"/>
<path d="M275.739 126.867L275.385 125.138C275.382 125.126 275.308 124.794 275.162 124.141C275.003 123.491 274.872 122.911 274.768 122.401C274.755 122.341 274.759 122.296 274.778 122.267C274.797 122.238 274.822 122.233 274.851 122.253C274.88 122.272 274.901 122.312 274.913 122.373C275.033 122.955 275.151 123.38 275.269 123.647C275.399 123.912 275.589 124.127 275.837 124.293C276.086 124.458 276.399 124.536 276.776 124.525C277.168 124.524 277.722 124.454 278.439 124.314L287.88 122.467L287.716 121.666C287.532 120.769 286.934 120.009 285.922 119.387C284.925 118.775 283.551 118.362 281.802 118.149C281.751 118.147 281.726 118.12 281.728 118.069L281.798 118.037L287.974 118.02C288.037 118.021 288.045 118.057 287.996 118.13C287.74 118.356 287.597 118.681 287.57 119.102C287.555 119.522 287.642 120.192 287.83 121.114L288.81 125.899C288.999 126.821 289.183 127.473 289.362 127.854C289.553 128.233 289.812 128.479 290.139 128.591C290.222 128.626 290.229 128.662 290.161 128.7L284.454 131.009C284.408 131.031 284.381 131.023 284.374 130.987C284.369 130.963 284.382 130.935 284.413 130.903C285.959 130.059 287.071 129.16 287.747 128.208C288.427 127.267 288.671 126.33 288.48 125.396L288.327 124.65L278.886 126.497C278.169 126.637 277.628 126.774 277.264 126.909C276.914 127.053 276.657 127.248 276.493 127.495C276.329 127.741 276.239 128.011 276.223 128.305C276.219 128.595 276.276 129.026 276.393 129.596C276.405 129.657 276.402 129.702 276.382 129.731C276.363 129.76 276.339 129.764 276.309 129.745C276.28 129.725 276.259 129.685 276.247 129.625C276.142 129.115 276.035 128.531 275.926 127.871C275.804 127.213 275.741 126.879 275.739 126.867Z" fill="white"/>
<path d="M291.666 148.42C291.671 148.469 291.656 148.496 291.619 148.5C291.58 148.492 291.553 148.47 291.537 148.434C291.452 147.796 291.105 147.318 290.496 147.001C289.887 146.684 289.195 146.569 288.42 146.656L284.452 147.105C283.246 147.241 282.137 147.18 281.123 146.921C279.111 146.426 277.986 145.126 277.748 143.023C277.573 141.472 277.821 140.092 278.495 138.882C279.255 137.563 280.718 136.781 282.883 136.536L287.146 136.054C287.723 135.976 288.163 135.901 288.466 135.829C288.782 135.756 289.047 135.677 289.261 135.59C289.49 135.514 289.638 135.392 289.706 135.222C289.788 135.063 289.837 134.896 289.855 134.719C289.884 134.541 289.892 134.279 289.878 133.932C289.873 133.895 289.882 133.863 289.904 133.835C289.927 133.82 289.952 133.817 289.978 133.827C290.005 133.849 290.021 133.878 290.025 133.915C290.066 134.272 290.099 134.679 290.126 135.137C290.167 135.606 290.188 135.847 290.189 135.859L290.404 137.76C290.405 137.772 290.438 138.005 290.502 138.459C290.579 138.924 290.638 139.334 290.679 139.691C290.683 139.728 290.673 139.754 290.65 139.769C290.628 139.796 290.604 139.799 290.576 139.777C290.55 139.768 290.535 139.745 290.531 139.708C290.431 139.158 290.308 138.786 290.162 138.591C290.015 138.396 289.751 138.27 289.371 138.213C288.992 138.169 288.334 138.187 287.396 138.268L283.429 138.717C282.162 138.86 281.118 139.109 280.298 139.463C278.723 140.19 278.039 141.463 278.245 143.284C278.408 144.723 279.015 145.739 280.066 146.33C281.117 146.922 282.553 147.114 284.374 146.908L287.308 146.576C288.378 146.455 289.266 146.1 289.972 145.509C290.679 144.93 290.996 144.203 290.921 143.327C290.917 143.29 290.926 143.258 290.948 143.23C290.983 143.214 291.014 143.21 291.04 143.22C291.08 143.24 291.102 143.269 291.106 143.306C291.138 143.589 291.192 144.175 291.267 145.063C291.288 145.248 291.303 145.433 291.312 145.619C291.332 145.804 291.342 145.946 291.341 146.046C291.352 146.144 291.36 146.212 291.364 146.249C291.393 146.507 291.433 146.801 291.483 147.132C291.582 147.794 291.643 148.223 291.666 148.42Z" fill="white"/>
<path d="M279.577 159.686C279.497 158.984 279.468 158.228 279.488 157.415C279.508 156.603 279.509 156.117 279.491 155.957C279.448 155.576 279.135 155.337 278.551 155.241C278.512 155.233 278.491 155.211 278.487 155.174C278.484 155.149 278.5 155.129 278.536 155.112L284.338 153.035C284.386 153.018 284.411 153.021 284.414 153.046C284.421 153.107 284.407 153.146 284.371 153.163C282.912 153.926 281.76 154.916 280.913 156.133C280.055 157.364 279.69 158.539 279.816 159.659C279.921 160.581 280.242 161.324 280.779 161.886C281.329 162.459 281.962 162.705 282.675 162.625C283.483 162.608 284.085 162.197 284.48 161.393C284.602 161.155 284.721 160.83 284.837 160.418L285.146 159.187C285.197 158.981 285.31 158.433 285.483 157.541C285.771 156.013 286.173 154.884 286.688 154.153C287.216 153.42 287.96 153 288.919 152.891C289.904 152.78 290.753 153.07 291.466 153.762C292.192 154.452 292.628 155.437 292.772 156.717C292.836 157.283 292.853 157.929 292.823 158.655C292.793 159.381 292.788 159.83 292.808 160.002C292.852 160.172 292.923 160.307 293.022 160.408C293.134 160.52 293.241 160.589 293.344 160.614C293.448 160.652 293.583 160.687 293.748 160.718C293.787 160.726 293.807 160.743 293.81 160.767C293.813 160.792 293.796 160.812 293.761 160.829L288.338 162.788C288.264 162.796 288.236 162.768 288.254 162.704C288.251 162.679 288.273 162.658 288.321 162.64C289.746 161.906 290.838 160.985 291.597 159.877C292.347 158.796 292.657 157.683 292.528 156.539C292.451 155.862 292.17 155.302 291.684 154.859C291.2 154.44 290.657 154.265 290.054 154.333C289.551 154.402 289.157 154.546 288.87 154.766C288.585 154.997 288.332 155.406 288.111 155.992C287.892 156.59 287.675 157.48 287.46 158.663C287.178 160.352 286.764 161.651 286.219 162.56C285.674 163.469 284.928 163.977 283.98 164.084C282.861 164.211 281.884 163.842 281.051 162.977C280.218 162.111 279.727 161.014 279.577 159.686Z" fill="white"/>
</svg>
