<svg width="37" height="28" viewBox="0 0 37 28" fill="none" xmlns="http://www.w3.org/2000/svg">
<rect width="2" height="9.1" rx="1" transform="matrix(-1 0 0 1 37 9.1001)" fill="#9F9196"/>
<rect width="2" height="7.7" rx="1" transform="matrix(-1 0 0 1 22 9.7998)" fill="#9F9196"/>
<rect width="2" height="16.8" rx="1" transform="matrix(-1 0 0 1 12 5.6001)" fill="#9F9196"/>
<rect width="2" height="12.6" rx="1" transform="matrix(-1 0 0 1 7 7.7002)" fill="#9F9196"/>
<rect width="2" height="9.1" rx="1" transform="matrix(-1 0 0 1 2 9.1001)" fill="#9F9196"/>
<rect width="2" height="19.6" rx="1" transform="matrix(-1 0 0 1 32 4.2002)" fill="#9F9196"/>
<rect width="2" height="16.8" rx="1" transform="matrix(-1 0 0 1 27 5.6001)" fill="#9F9196"/>
<rect width="2" height="28" rx="1" transform="matrix(-1 0 0 1 17 0)" fill="#9F9196"/>
</svg>
