<svg width="21" height="21" viewBox="0 0 21 21" fill="none" xmlns="http://www.w3.org/2000/svg">
<path d="M3.69141 5.33203L0.410156 9.43359H5.57812L8.03906 5.33203H3.69141Z" fill="white"/>
<path d="M0.410168 9.43359H3.77345L6.97656 16.694L0.410168 9.43359Z" fill="#EBE6E6"/>
<path d="M10.5 5.33203L12.9609 9.43359C10.1053 9.43359 5.7666 9.43359 5.57813 9.43359L8.03907 5.33203H10.5Z" fill="#EBE6E6"/>
<path d="M5.57813 9.43359L10.5 20.5898L15.4219 9.43359C15.1442 9.43359 5.85569 9.43359 5.57813 9.43359Z" fill="white"/>
<path d="M15.4219 9.43359H18.498L12.4922 16.0742L15.4219 9.43359Z" fill="#EBE6E6"/>
<path d="M12.9609 5.33203L15.4219 9.43359H20.5898L17.3086 5.33203H12.9609Z" fill="white"/>
<path fill-rule="evenodd" clip-rule="evenodd" d="M20.8976 9.70422L20.8962 9.70594L20.8944 9.70815L20.8939 9.70873L10.8041 20.865C10.7289 20.9481 10.6149 21 10.4998 21C10.3851 21 10.2714 20.9487 10.1956 20.865L0.105791 9.70873L0.105337 9.70815L0.102097 9.70422C-0.0293579 9.55467 -0.0328026 9.33503 0.0865116 9.182C0.0876598 9.18053 0.0885201 9.17885 0.0897102 9.17737L3.37096 5.07581C3.44877 4.97852 3.56665 4.92188 3.69125 4.92188H17.3084C17.433 4.92188 17.5509 4.97852 17.6287 5.07581L20.91 9.17737L20.9116 9.17974L20.9132 9.182C21.0337 9.33663 21.0276 9.55635 20.8976 9.70422ZM12.7286 5.74219H8.27114L6.30239 9.02344H14.6973L12.7286 5.74219ZM6.20727 9.84375L10.4999 19.5737L14.7925 9.84375H6.20727ZM5.31063 9.84375H1.33396L9.28827 18.6615L5.31063 9.84375ZM15.6891 9.84375L11.9133 18.4596L19.6658 9.84375H15.6891ZM1.26341 9.02344H5.34578L7.31453 5.74219H3.88842L1.26341 9.02344ZM17.1114 5.74219H13.6852L15.654 9.02344H19.7364L17.1114 5.74219ZM8.03897 10.6641C8.26538 10.6641 8.44913 10.8478 8.44913 11.0742C8.44913 11.3006 8.26538 11.4844 8.03897 11.4844C7.81256 11.4844 7.62881 11.3006 7.62881 11.0742C7.62881 10.8478 7.81256 10.6641 8.03897 10.6641ZM12.7236 10.6641H9.67945C9.45292 10.6641 9.26929 10.8477 9.26929 11.0742C9.26929 11.3007 9.45292 11.4844 9.67945 11.4844H12.7236C12.9502 11.4844 13.1338 11.3007 13.1338 11.0742C13.1338 10.8477 12.9502 10.6641 12.7236 10.6641Z" fill="#503C3C"/>
</svg>
