<svg width="373" height="335" viewBox="0 0 373 335" fill="none" xmlns="http://www.w3.org/2000/svg">
<mask id="mask0_124_503" style="mask-type:alpha" maskUnits="userSpaceOnUse" x="0" y="0" width="373" height="335">
<rect width="373" height="335" fill="#343131"/>
</mask>
<g mask="url(#mask0_124_503)">
<path d="M323.723 269.634L324.783 274.416L329.718 275.443L324.783 276.47L323.723 281.252L322.664 276.47L317.729 275.443L322.664 274.416L323.723 269.634Z" fill="#EBE6E6"/>
<path d="M324.923 14.3652L325.982 19.1474L330.917 20.1743L325.982 21.2012L324.923 25.9834L323.863 21.2012L318.928 20.1743L323.863 19.1474L324.923 14.3652Z" fill="#EBE6E6"/>
<path d="M34.7703 308.263L35.83 313.046L40.7651 314.073L35.83 315.099L34.7703 319.882L33.7105 315.099L28.7754 314.073L33.7105 313.046L34.7703 308.263Z" fill="#EBE6E6" fill-opacity="0.5"/>
<path d="M-20.5176 -222.41C-20.5176 -222.41 -38.6085 125.467 117.58 194.777C212.478 236.888 322.059 204.28 375.712 134.162C384.04 123.277 389.06 109.676 378.095 101.304C368.862 94.2542 356.824 97.4974 347.629 102.628C298.418 130.083 309.723 194.944 331.515 237.272C362.394 297.25 514.412 265.836 514.412 265.836" stroke="#A83248"/>
</g>
</svg>
