<svg width="623" height="779" viewBox="0 0 623 779" fill="none" xmlns="http://www.w3.org/2000/svg">
<mask id="mask0_303_378" style="mask-type:alpha" maskUnits="userSpaceOnUse" x="0" y="0" width="623" height="779">
<rect width="623" height="779" fill="#343131"/>
</mask>
<g mask="url(#mask0_303_378)">
<path d="M540 697L541.768 705.644L550 707.5L541.768 709.356L540 718L538.232 709.356L530 707.5L538.232 705.644L540 697Z" fill="#EBE6E6"/>
<path d="M542 66L543.768 74.6438L552 76.5L543.768 78.3562L542 87L540.232 78.3562L532 76.5L540.232 74.6438L542 66Z" fill="#EBE6E6"/>
<path d="M58 543L59.7678 551.644L68 553.5L59.7678 555.356L58 564L56.2322 555.356L48 553.5L56.2322 551.644L58 543Z" fill="#EBE6E6" fill-opacity="0.5"/>
<path d="M-139 -220C-139 -220 -41.9985 436.461 247.5 507.968C423.395 551.414 596.712 449.856 661.709 298.987C671.798 275.568 675.298 248.302 653.687 236.732C635.49 226.991 616.328 237.515 602.662 250.508C529.528 320.044 572.43 436.994 624.799 507.968C699.007 608.537 944.512 493.465 944.512 493.465" stroke="#A83248"/>
</g>
</svg>
