<svg width="52" height="52" viewBox="0 0 52 52" fill="none" xmlns="http://www.w3.org/2000/svg">
<path d="M19.5007 47.6666H32.5007C43.334 47.6666 47.6673 43.3333 47.6673 32.4999V19.4999C47.6673 8.66659 43.334 4.33325 32.5007 4.33325H19.5007C8.66732 4.33325 4.33398 8.66659 4.33398 19.4999V32.4999C4.33398 43.3333 8.66732 47.6666 19.5007 47.6666Z" stroke="#BAB1B3" stroke-width="1.5" stroke-linecap="round" stroke-linejoin="round"/>
<path d="M19.4993 21.6667C21.8926 21.6667 23.8327 19.7266 23.8327 17.3333C23.8327 14.9401 21.8926 13 19.4993 13C17.1061 13 15.166 14.9401 15.166 17.3333C15.166 19.7266 17.1061 21.6667 19.4993 21.6667Z" stroke="#BAB1B3" stroke-width="1.5" stroke-linecap="round" stroke-linejoin="round"/>
<path d="M5.78516 41.0584L16.4668 33.8867C18.1785 32.7384 20.6485 32.8684 22.1868 34.19L22.9018 34.8184C24.5918 36.27 27.3218 36.27 29.0118 34.8184L38.0252 27.0834C39.7152 25.6317 42.4452 25.6317 44.1352 27.0834L47.6668 30.1167" stroke="#BAB1B3" stroke-width="1.5" stroke-linecap="round" stroke-linejoin="round"/>
</svg>
