<svg width="266" height="29" viewBox="0 0 266 29" fill="none" xmlns="http://www.w3.org/2000/svg">
<rect y="9.1001" width="2" height="9.1" rx="1" fill="#9F9196"/>
<rect x="18" y="9.7998" width="2" height="7.7" rx="1" fill="#9F9196"/>
<rect x="30" y="5.6001" width="2" height="16.8" rx="1" fill="#9F9196"/>
<rect x="36" y="7.7002" width="2" height="12.6" rx="1" fill="#9F9196"/>
<rect x="42" y="9.1001" width="2" height="9.1" rx="1" fill="#9F9196"/>
<rect x="48" y="7" width="2" height="14" rx="1" fill="#9F9196"/>
<rect x="84" y="7" width="2" height="14" rx="1" fill="#9F9196"/>
<rect x="54" y="5.6001" width="2" height="16.8" rx="1" fill="#9F9196"/>
<rect x="90" y="5.6001" width="2" height="16.8" rx="1" fill="#9F9196"/>
<rect x="66" y="6.2998" width="2" height="15.4" rx="1" fill="#9F9196"/>
<rect x="72" y="9.7998" width="2" height="8.4" rx="1" fill="#9F9196"/>
<rect x="78" y="10.5" width="2" height="7" rx="1" fill="#9F9196"/>
<rect x="96" y="10.5" width="2" height="7" rx="1" fill="#9F9196"/>
<rect x="60" width="2" height="28" rx="1" fill="#9F9196"/>
<rect x="102" width="2" height="28" rx="1" fill="#9F9196"/>
<rect x="6" y="4.2002" width="2" height="19.6" rx="1" fill="#9F9196"/>
<rect x="12" y="5.6001" width="2" height="16.8" rx="1" fill="#9F9196"/>
<rect x="24" width="2" height="28" rx="1" fill="#9F9196"/>
<rect x="108" y="10.1001" width="2" height="9.1" rx="1" fill="#C7BDC0"/>
<rect x="126" y="10.7998" width="2" height="7.7" rx="1" fill="#C7BDC0"/>
<rect x="138" y="6.6001" width="2" height="16.8" rx="1" fill="#C7BDC0"/>
<rect x="234" y="6.6001" width="2" height="16.8" rx="1" fill="#C7BDC0"/>
<rect x="144" y="8.7002" width="2" height="12.6" rx="1" fill="#C7BDC0"/>
<rect x="240" y="8.7002" width="2" height="12.6" rx="1" fill="#C7BDC0"/>
<rect x="150" y="10.1001" width="2" height="9.1" rx="1" fill="#C7BDC0"/>
<rect x="246" y="10.1001" width="2" height="9.1" rx="1" fill="#C7BDC0"/>
<rect x="264" y="10.1001" width="2" height="9.1" rx="1" fill="#C7BDC0"/>
<rect x="156" y="8" width="2" height="14" rx="1" fill="#C7BDC0"/>
<rect x="192" y="8" width="2" height="14" rx="1" fill="#C7BDC0"/>
<rect x="162" y="6.6001" width="2" height="16.8" rx="1" fill="#C7BDC0"/>
<rect x="198" y="6.6001" width="2" height="16.8" rx="1" fill="#C7BDC0"/>
<rect x="174" y="7.2998" width="2" height="15.4" rx="1" fill="#C7BDC0"/>
<rect x="216" y="7.2998" width="2" height="15.4" rx="1" fill="#C7BDC0"/>
<rect x="258" y="7.2998" width="2" height="15.4" rx="1" fill="#C7BDC0"/>
<rect x="180" y="10.7998" width="2" height="8.4" rx="1" fill="#C7BDC0"/>
<rect x="222" y="10.7998" width="2" height="8.4" rx="1" fill="#C7BDC0"/>
<rect x="186" y="11.5" width="2" height="7" rx="1" fill="#C7BDC0"/>
<rect x="228" y="11.5" width="2" height="7" rx="1" fill="#C7BDC0"/>
<rect x="204" y="11.5" width="2" height="7" rx="1" fill="#C7BDC0"/>
<rect x="168" y="1" width="2" height="28" rx="1" fill="#C7BDC0"/>
<rect x="210" y="3.7998" width="2" height="22.4" rx="1" fill="#C7BDC0"/>
<rect x="252" y="3.7998" width="2" height="22.4" rx="1" fill="#C7BDC0"/>
<rect x="114" y="5.2002" width="2" height="19.6" rx="1" fill="#C7BDC0"/>
<rect x="120" y="6.6001" width="2" height="16.8" rx="1" fill="#C7BDC0"/>
<rect x="132" y="1" width="2" height="28" rx="1" fill="#C7BDC0"/>
</svg>
