<svg width="52" height="52" viewBox="0 0 52 52" fill="none" xmlns="http://www.w3.org/2000/svg">
<path d="M13.6077 47.6662C17.3411 47.6662 20.3677 44.6397 20.3677 40.9062C20.3677 37.1728 17.3411 34.1462 13.6077 34.1462C9.87421 34.1462 6.84766 37.1728 6.84766 40.9062C6.84766 44.6397 9.87421 47.6662 13.6077 47.6662Z" stroke="#BAB1B3" stroke-width="1.5" stroke-linecap="round" stroke-linejoin="round"/>
<path d="M45.1539 36.3996V9.96626C45.1539 4.33293 41.6222 3.55293 38.0472 4.52793L24.5272 8.21126C22.0572 8.88293 20.3672 10.8329 20.3672 13.6496V18.3513V21.5146V40.8846" stroke="#BAB1B3" stroke-width="1.5" stroke-linecap="round" stroke-linejoin="round"/>
<path d="M38.3928 43.1604C42.1263 43.1604 45.1528 40.1338 45.1528 36.4004C45.1528 32.6669 42.1263 29.6404 38.3928 29.6404C34.6594 29.6404 31.6328 32.6669 31.6328 36.4004C31.6328 40.1338 34.6594 43.1604 38.3928 43.1604Z" stroke="#BAB1B3" stroke-width="1.5" stroke-linecap="round" stroke-linejoin="round"/>
<path d="M20.3672 20.6265L45.1539 13.8665" stroke="#BAB1B3" stroke-width="1.5" stroke-linecap="round" stroke-linejoin="round"/>
</svg>
