<svg width="578" height="42" viewBox="0 0 578 42" fill="none" xmlns="http://www.w3.org/2000/svg">
<rect y="13.041" width="2" height="13.041" rx="1" fill="#9F9196"/>
<rect x="24" y="14.0439" width="2" height="11.0347" rx="1" fill="#9F9196"/>
<rect x="40" y="8.02539" width="2" height="24.0757" rx="1" fill="#9F9196"/>
<rect x="48" y="11.0352" width="2" height="18.0568" rx="1" fill="#9F9196"/>
<rect x="56" y="13.041" width="2" height="13.041" rx="1" fill="#9F9196"/>
<rect x="64" y="10.0317" width="2" height="20.0631" rx="1" fill="#9F9196"/>
<rect x="112" y="10.0317" width="2" height="20.0631" rx="1" fill="#9F9196"/>
<rect x="72" y="8.02539" width="2" height="24.0757" rx="1" fill="#9F9196"/>
<rect x="120" y="8.02539" width="2" height="24.0757" rx="1" fill="#9F9196"/>
<rect x="88" y="9.02783" width="2" height="22.0694" rx="1" fill="#9F9196"/>
<rect x="96" y="14.0439" width="2" height="12.0378" rx="1" fill="#9F9196"/>
<rect x="104" y="15.0474" width="2" height="10.0315" rx="1" fill="#9F9196"/>
<rect x="128" y="15.0474" width="2" height="10.0315" rx="1" fill="#9F9196"/>
<rect x="80" width="2" height="40.1261" rx="1" fill="#9F9196"/>
<rect x="136" width="2" height="40.1261" rx="1" fill="#9F9196"/>
<rect x="8" y="6.01953" width="2" height="28.0883" rx="1" fill="#9F9196"/>
<rect x="16" y="8.02539" width="2" height="24.0757" rx="1" fill="#9F9196"/>
<rect x="32" width="2" height="40.1261" rx="1" fill="#9F9196"/>
<rect x="144" y="14.4746" width="2" height="13.041" rx="1" fill="#C7BDC0"/>
<rect x="168" y="15.4771" width="2" height="11.0347" rx="1" fill="#C7BDC0"/>
<rect x="184" y="9.45898" width="2" height="24.0757" rx="1" fill="#C7BDC0"/>
<rect x="312" y="9.45898" width="2" height="24.0757" rx="1" fill="#C7BDC0"/>
<rect x="559.889" y="9.45898" width="2" height="24.0757" rx="1" fill="#C7BDC0"/>
<rect x="192" y="12.4683" width="2" height="18.0568" rx="1" fill="#C7BDC0"/>
<rect x="359.889" y="12.4683" width="2" height="18.0568" rx="1" fill="#C7BDC0"/>
<rect x="320" y="12.4683" width="2" height="18.0568" rx="1" fill="#C7BDC0"/>
<rect x="200" y="14.4746" width="2" height="13.041" rx="1" fill="#C7BDC0"/>
<rect x="367.889" y="14.4746" width="2" height="13.041" rx="1" fill="#C7BDC0"/>
<rect x="328" y="14.4746" width="2" height="13.041" rx="1" fill="#C7BDC0"/>
<rect x="352" y="14.4746" width="2" height="13.041" rx="1" fill="#C7BDC0"/>
<rect x="208" y="11.4648" width="2" height="20.0631" rx="1" fill="#C7BDC0"/>
<rect x="375.889" y="11.4648" width="2" height="20.0631" rx="1" fill="#C7BDC0"/>
<rect x="256" y="11.4648" width="2" height="20.0631" rx="1" fill="#C7BDC0"/>
<rect x="423.889" y="11.4648" width="2" height="20.0631" rx="1" fill="#C7BDC0"/>
<rect x="216" y="9.45898" width="2" height="24.0757" rx="1" fill="#C7BDC0"/>
<rect x="383.889" y="9.45898" width="2" height="24.0757" rx="1" fill="#C7BDC0"/>
<rect x="264" y="9.45898" width="2" height="24.0757" rx="1" fill="#C7BDC0"/>
<rect x="511.889" y="9.45898" width="2" height="24.0757" rx="1" fill="#C7BDC0"/>
<rect x="431.889" y="9.45898" width="2" height="24.0757" rx="1" fill="#C7BDC0"/>
<rect x="232" y="10.4614" width="2" height="22.0694" rx="1" fill="#C7BDC0"/>
<rect x="399.889" y="10.4614" width="2" height="22.0694" rx="1" fill="#C7BDC0"/>
<rect x="487.889" y="10.4614" width="2" height="22.0694" rx="1" fill="#C7BDC0"/>
<rect x="288" y="10.4614" width="2" height="22.0694" rx="1" fill="#C7BDC0"/>
<rect x="535.889" y="10.4614" width="2" height="22.0694" rx="1" fill="#C7BDC0"/>
<rect x="455.889" y="10.4614" width="2" height="22.0694" rx="1" fill="#C7BDC0"/>
<rect x="344" y="10.4614" width="2" height="22.0694" rx="1" fill="#C7BDC0"/>
<rect x="240" y="15.4771" width="2" height="12.0378" rx="1" fill="#C7BDC0"/>
<rect x="407.889" y="15.4771" width="2" height="12.0378" rx="1" fill="#C7BDC0"/>
<rect x="495.889" y="15.4771" width="2" height="12.0378" rx="1" fill="#C7BDC0"/>
<rect x="567.889" y="15.4771" width="2" height="12.0378" rx="1" fill="#C7BDC0"/>
<rect x="296" y="15.4771" width="2" height="12.0378" rx="1" fill="#C7BDC0"/>
<rect x="543.889" y="15.4771" width="2" height="12.0378" rx="1" fill="#C7BDC0"/>
<rect x="463.889" y="15.4771" width="2" height="12.0378" rx="1" fill="#C7BDC0"/>
<rect x="248" y="16.4805" width="2" height="10.0315" rx="1" fill="#C7BDC0"/>
<rect x="415.889" y="16.4805" width="2" height="10.0315" rx="1" fill="#C7BDC0"/>
<rect x="503.889" y="16.4805" width="2" height="10.0315" rx="1" fill="#C7BDC0"/>
<rect x="575.889" y="16.4805" width="2" height="10.0315" rx="1" fill="#C7BDC0"/>
<rect x="304" y="16.4805" width="2" height="10.0315" rx="1" fill="#C7BDC0"/>
<rect x="551.889" y="16.4805" width="2" height="10.0315" rx="1" fill="#C7BDC0"/>
<rect x="471.889" y="16.4805" width="2" height="10.0315" rx="1" fill="#C7BDC0"/>
<rect x="272" y="16.4805" width="2" height="10.0315" rx="1" fill="#C7BDC0"/>
<rect x="519.889" y="16.4805" width="2" height="10.0315" rx="1" fill="#C7BDC0"/>
<rect x="439.889" y="16.4805" width="2" height="10.0315" rx="1" fill="#C7BDC0"/>
<rect x="224" y="1.43311" width="2" height="40.1261" rx="1" fill="#C7BDC0"/>
<rect x="391.889" y="1.43311" width="2" height="40.1261" rx="1" fill="#C7BDC0"/>
<rect x="479.889" y="1.43311" width="2" height="40.1261" rx="1" fill="#C7BDC0"/>
<rect x="280" y="5.4458" width="2" height="32.1009" rx="1" fill="#C7BDC0"/>
<rect x="527.889" y="5.4458" width="2" height="32.1009" rx="1" fill="#C7BDC0"/>
<rect x="447.889" y="5.4458" width="2" height="32.1009" rx="1" fill="#C7BDC0"/>
<rect x="336" y="5.4458" width="2" height="32.1009" rx="1" fill="#C7BDC0"/>
<rect x="152" y="7.45264" width="2" height="28.0883" rx="1" fill="#C7BDC0"/>
<rect x="160" y="9.45898" width="2" height="24.0757" rx="1" fill="#C7BDC0"/>
<rect x="176" y="1.43311" width="2" height="40.1261" rx="1" fill="#C7BDC0"/>
</svg>
