<svg width="109" height="67" viewBox="0 0 109 67" fill="none" xmlns="http://www.w3.org/2000/svg">
<path d="M2.55291 59.346L10.1669 58.32L6.20691 50.346L2.55291 59.346ZM12.4889 63L10.4549 58.896L2.35491 59.832L1.05891 63H0.446914L5.91891 49.752C5.87091 49.668 5.81091 49.608 5.73891 49.572C5.66691 49.524 5.58291 49.482 5.48691 49.446L5.43291 49.428V49.104L6.94491 49.212L13.8209 63H12.4889ZM22.3746 63.144C21.7986 63.144 21.2946 62.838 20.8626 62.226C20.4426 61.602 20.2326 60.684 20.2326 59.472V58.068C20.2326 56.532 19.9626 55.518 19.4226 55.026C18.8946 54.522 18.4326 54.27 18.0366 54.27C17.9166 54.27 17.8026 54.282 17.6946 54.306C17.5866 54.33 17.4726 54.378 17.3526 54.45L17.3886 54.036C18.0126 53.928 18.5946 53.664 19.1346 53.244C19.6866 52.824 19.9626 52.206 19.9626 51.39C19.9626 50.73 19.7826 50.196 19.4226 49.788C19.0746 49.38 18.6186 49.176 18.0546 49.176C17.7426 49.176 17.4726 49.224 17.2446 49.32C17.0286 49.404 16.8186 49.512 16.6146 49.644V63H15.4446V49.176L15.4806 49.158C15.5766 49.182 15.6606 49.2 15.7326 49.212C15.8046 49.224 15.8886 49.23 15.9846 49.23C16.3926 49.23 16.7286 49.164 16.9926 49.032C17.2566 48.9 17.6466 48.834 18.1626 48.834C18.9786 48.834 19.6986 49.08 20.3226 49.572C20.9586 50.064 21.2766 50.67 21.2766 51.39C21.2766 52.134 20.8926 52.74 20.1246 53.208C19.3566 53.664 18.8046 53.934 18.4686 54.018C18.9966 54.066 19.6146 54.378 20.3226 54.954C21.0426 55.53 21.4026 56.568 21.4026 58.068V59.256C21.4026 60.648 21.5346 61.578 21.7986 62.046C22.0626 62.514 22.3626 62.748 22.6986 62.748C22.8426 62.748 22.9806 62.724 23.1126 62.676C23.2566 62.628 23.4006 62.532 23.5446 62.388L23.6526 62.496C23.4966 62.7 23.3106 62.862 23.0946 62.982C22.8786 63.09 22.6386 63.144 22.3746 63.144ZM28.2548 49.608H28.1468V63H27.0128V49.608H26.9048C26.3408 49.608 25.6748 49.644 24.9068 49.716C24.1388 49.788 23.5988 49.932 23.2868 50.148L23.2148 50.094L23.6648 49.176H31.4948L31.9448 50.094L31.8728 50.148C31.5608 49.932 31.0208 49.788 30.2528 49.716C29.4848 49.644 28.8188 49.608 28.2548 49.608ZM41.547 63.288C41.127 63.288 40.701 63.24 40.269 63.144C39.837 63.036 39.435 62.982 39.063 62.982C39.003 62.982 38.949 62.988 38.901 63C38.853 63 38.805 63.006 38.757 63.018L38.721 63V49.176L38.757 49.158C38.853 49.182 38.937 49.2 39.009 49.212C39.081 49.224 39.165 49.23 39.261 49.23C39.681 49.23 40.035 49.164 40.323 49.032C40.611 48.9 41.013 48.834 41.529 48.834C42.213 48.834 42.927 49.056 43.671 49.5C44.415 49.944 44.787 50.604 44.787 51.48C44.787 52.104 44.535 52.632 44.031 53.064C43.527 53.496 42.993 53.79 42.429 53.946C43.353 53.922 44.289 54.342 45.237 55.206C46.185 56.07 46.659 57.174 46.659 58.518C46.659 59.838 46.173 60.966 45.201 61.902C44.229 62.826 43.011 63.288 41.547 63.288ZM41.529 49.212C41.169 49.212 40.851 49.26 40.575 49.356C40.311 49.44 40.083 49.56 39.891 49.716V62.406C40.071 62.562 40.287 62.688 40.539 62.784C40.803 62.868 41.139 62.91 41.547 62.91C42.699 62.91 43.587 62.502 44.211 61.686C44.847 60.858 45.165 59.802 45.165 58.518C45.165 57.09 44.877 56.028 44.301 55.332C43.725 54.624 43.017 54.27 42.177 54.27C41.973 54.27 41.799 54.288 41.655 54.324C41.511 54.36 41.373 54.402 41.241 54.45L41.277 54.036C41.781 53.952 42.273 53.694 42.753 53.262C43.233 52.83 43.473 52.29 43.473 51.642C43.473 50.886 43.305 50.292 42.969 49.86C42.633 49.428 42.153 49.212 41.529 49.212ZM49.8381 59.346L57.4521 58.32L53.4921 50.346L49.8381 59.346ZM59.7741 63L57.7401 58.896L49.6401 59.832L48.3441 63H47.7321L53.2041 49.752C53.1561 49.668 53.0961 49.608 53.0241 49.572C52.9521 49.524 52.8681 49.482 52.7721 49.446L52.7181 49.428V49.104L54.2301 49.212L61.1061 63H59.7741ZM70.9102 63H61.7302L61.6582 62.91L69.9202 49.626H65.0602C64.3522 49.626 63.8542 49.656 63.5662 49.716C63.2782 49.764 62.9662 49.95 62.6302 50.274L62.5222 50.238L62.9182 49.176H71.2522L71.3242 49.266L63.1882 62.55H68.3182C69.0862 62.55 69.7402 62.49 70.2802 62.37C70.8322 62.25 71.2402 62.058 71.5042 61.794L71.5942 61.866L70.9102 63ZM73.7971 59.346L81.4111 58.32L77.4511 50.346L73.7971 59.346ZM83.7331 63L81.6991 58.896L73.5991 59.832L72.3031 63H71.6911L77.1631 49.752C77.1151 49.668 77.0551 49.608 76.9831 49.572C76.9111 49.524 76.8271 49.482 76.7311 49.446L76.6771 49.428V49.104L78.1891 49.212L85.0651 63H83.7331ZM87.8947 59.346L95.5087 58.32L91.5487 50.346L87.8947 59.346ZM97.8307 63L95.7967 58.896L87.6967 59.832L86.4007 63H85.7887L91.2607 49.752C91.2127 49.668 91.1527 49.608 91.0807 49.572C91.0087 49.524 90.9247 49.482 90.8287 49.446L90.7747 49.428V49.104L92.2867 49.212L99.1627 63H97.8307ZM107.716 63.144C107.14 63.144 106.636 62.838 106.204 62.226C105.784 61.602 105.574 60.684 105.574 59.472V58.068C105.574 56.532 105.304 55.518 104.764 55.026C104.236 54.522 103.774 54.27 103.378 54.27C103.258 54.27 103.144 54.282 103.036 54.306C102.928 54.33 102.814 54.378 102.694 54.45L102.73 54.036C103.354 53.928 103.936 53.664 104.476 53.244C105.028 52.824 105.304 52.206 105.304 51.39C105.304 50.73 105.124 50.196 104.764 49.788C104.416 49.38 103.96 49.176 103.396 49.176C103.084 49.176 102.814 49.224 102.586 49.32C102.37 49.404 102.16 49.512 101.956 49.644V63H100.786V49.176L100.822 49.158C100.918 49.182 101.002 49.2 101.074 49.212C101.146 49.224 101.23 49.23 101.326 49.23C101.734 49.23 102.07 49.164 102.334 49.032C102.598 48.9 102.988 48.834 103.504 48.834C104.32 48.834 105.04 49.08 105.664 49.572C106.3 50.064 106.618 50.67 106.618 51.39C106.618 52.134 106.234 52.74 105.466 53.208C104.698 53.664 104.146 53.934 103.81 54.018C104.338 54.066 104.956 54.378 105.664 54.954C106.384 55.53 106.744 56.568 106.744 58.068V59.256C106.744 60.648 106.876 61.578 107.14 62.046C107.404 62.514 107.704 62.748 108.04 62.748C108.184 62.748 108.322 62.724 108.454 62.676C108.598 62.628 108.742 62.532 108.886 62.388L108.994 62.496C108.838 62.7 108.652 62.862 108.436 62.982C108.22 63.09 107.98 63.144 107.716 63.144Z" fill="#503C3C"/>
<path d="M2.55291 59.346L2.41393 59.2896L2.31665 59.5292L2.57295 59.4947L2.55291 59.346ZM10.1669 58.32L10.1869 58.4687L10.3943 58.4407L10.3013 58.2533L10.1669 58.32ZM6.20691 50.346L6.34126 50.2793L6.19317 49.9811L6.06793 50.2896L6.20691 50.346ZM12.4889 63L12.3545 63.0666L12.3958 63.15H12.4889V63ZM10.4549 58.896L10.5893 58.8294L10.5425 58.7349L10.4377 58.747L10.4549 58.896ZM2.35491 59.832L2.3377 59.683L2.24964 59.6932L2.21608 59.7752L2.35491 59.832ZM1.05891 63V63.15H1.15962L1.19775 63.0568L1.05891 63ZM0.446914 63L0.308275 62.9427L0.222666 63.15H0.446914V63ZM5.91891 49.752L6.05755 49.8093L6.0856 49.7414L6.04915 49.6776L5.91891 49.752ZM5.73891 49.572L5.65571 49.6968L5.66348 49.702L5.67183 49.7062L5.73891 49.572ZM5.48691 49.446L5.53962 49.3055L5.53435 49.3037L5.48691 49.446ZM5.43291 49.428H5.28291V49.5361L5.38548 49.5703L5.43291 49.428ZM5.43291 49.104L5.4436 48.9544L5.28291 48.9429V49.104H5.43291ZM6.94491 49.212L7.07915 49.1451L7.04096 49.0685L6.9556 49.0624L6.94491 49.212ZM13.8209 63V63.15H14.0633L13.9551 62.9331L13.8209 63ZM2.57295 59.4947L10.1869 58.4687L10.1469 58.1713L2.53288 59.1973L2.57295 59.4947ZM10.3013 58.2533L6.34126 50.2793L6.07257 50.4127L10.0326 58.3867L10.3013 58.2533ZM6.06793 50.2896L2.41393 59.2896L2.6919 59.4024L6.3459 50.4024L6.06793 50.2896ZM12.6233 62.9334L10.5893 58.8294L10.3205 58.9626L12.3545 63.0666L12.6233 62.9334ZM10.4377 58.747L2.3377 59.683L2.37213 59.981L10.4721 59.045L10.4377 58.747ZM2.21608 59.7752L0.920082 62.9432L1.19775 63.0568L2.49375 59.8888L2.21608 59.7752ZM1.05891 62.85H0.446914V63.15H1.05891V62.85ZM0.585553 63.0573L6.05755 49.8093L5.78027 49.6947L0.308275 62.9427L0.585553 63.0573ZM6.04915 49.6776C5.98947 49.5731 5.90943 49.4896 5.806 49.4378L5.67183 49.7062C5.7124 49.7264 5.75236 49.7629 5.78868 49.8264L6.04915 49.6776ZM5.82212 49.4472C5.73901 49.3918 5.64441 49.3449 5.53958 49.3056L5.43425 49.5864C5.52142 49.6191 5.59482 49.6562 5.65571 49.6968L5.82212 49.4472ZM5.53435 49.3037L5.48035 49.2857L5.38548 49.5703L5.43948 49.5883L5.53435 49.3037ZM5.58291 49.428V49.104H5.28291V49.428H5.58291ZM5.42223 49.2536L6.93423 49.3616L6.9556 49.0624L5.4436 48.9544L5.42223 49.2536ZM6.81068 49.2789L13.6867 63.0669L13.9551 62.9331L7.07915 49.1451L6.81068 49.2789ZM13.8209 62.85H12.4889V63.15H13.8209V62.85ZM20.8626 62.226L20.7381 62.3098L20.74 62.3125L20.8626 62.226ZM19.4226 55.026L19.319 55.1345L19.3215 55.1369L19.4226 55.026ZM17.6946 54.306L17.7271 54.4524L17.6946 54.306ZM17.3526 54.45L17.2031 54.437L17.1777 54.7299L17.4297 54.5786L17.3526 54.45ZM17.3886 54.036L17.363 53.8882L17.2491 53.9079L17.2391 54.023L17.3886 54.036ZM19.1346 53.244L19.0437 53.1246L19.0425 53.1256L19.1346 53.244ZM19.4226 49.788L19.3084 49.8854L19.3101 49.8872L19.4226 49.788ZM17.2446 49.32L17.299 49.4599L17.3028 49.4582L17.2446 49.32ZM16.6146 49.644L16.5331 49.5181L16.4646 49.5624V49.644H16.6146ZM16.6146 63V63.15H16.7646V63H16.6146ZM15.4446 63H15.2946V63.15H15.4446V63ZM15.4446 49.176L15.3775 49.0418L15.2946 49.0833V49.176H15.4446ZM15.4806 49.158L15.517 49.0125L15.4631 48.999L15.4135 49.0238L15.4806 49.158ZM15.7326 49.212L15.7079 49.36L15.7326 49.212ZM16.9926 49.032L17.0597 49.1662V49.1662L16.9926 49.032ZM20.3226 49.572L20.2297 49.6898L20.2308 49.6906L20.3226 49.572ZM20.1246 53.208L20.2012 53.337L20.2026 53.3361L20.1246 53.208ZM18.4686 54.018L18.4322 53.8725L18.455 54.1674L18.4686 54.018ZM20.3226 54.954L20.2279 55.0704L20.2289 55.0711L20.3226 54.954ZM21.7986 62.046L21.6679 62.1197L21.7986 62.046ZM23.1126 62.676L23.0651 62.5336L23.0613 62.535L23.1126 62.676ZM23.5446 62.388L23.6506 62.2819L23.5446 62.1759L23.4385 62.2819L23.5446 62.388ZM23.6526 62.496L23.7717 62.5871L23.8515 62.4828L23.7586 62.3899L23.6526 62.496ZM23.0946 62.982L23.1617 63.1163L23.1674 63.1131L23.0946 62.982ZM22.3746 62.994C21.8615 62.994 21.3984 62.7249 20.9851 62.1395L20.74 62.3125C21.1908 62.9511 21.7356 63.294 22.3746 63.294V62.994ZM20.987 62.1422C20.591 61.5539 20.3826 60.6708 20.3826 59.472H20.0826C20.0826 60.6972 20.2941 61.6501 20.7381 62.3098L20.987 62.1422ZM20.3826 59.472V58.068H20.0826V59.472H20.3826ZM20.3826 58.068C20.3826 57.2924 20.3145 56.6408 20.175 56.1169C20.0357 55.5936 19.8222 55.1872 19.5236 54.9151L19.3215 55.1369C19.5629 55.3568 19.7545 55.7034 19.8851 56.1941C20.0156 56.6842 20.0826 57.3076 20.0826 58.068H20.3826ZM19.5261 54.9175C18.9913 54.407 18.4928 54.12 18.0366 54.12V54.42C18.3723 54.42 18.7978 54.637 19.319 55.1345L19.5261 54.9175ZM18.0366 54.12C17.9065 54.12 17.7816 54.133 17.662 54.1596L17.7271 54.4524C17.8236 54.431 17.9266 54.42 18.0366 54.42V54.12ZM17.662 54.1596C17.5348 54.1879 17.4057 54.2432 17.2754 54.3214L17.4297 54.5786C17.5394 54.5128 17.6384 54.4721 17.7271 54.4524L17.662 54.1596ZM17.502 54.463L17.538 54.049L17.2391 54.023L17.2031 54.437L17.502 54.463ZM17.4142 54.1838C18.0643 54.0713 18.6688 53.7963 19.2267 53.3624L19.0425 53.1256C18.5203 53.5317 17.9608 53.7847 17.363 53.8882L17.4142 54.1838ZM19.2254 53.3634C19.8215 52.9098 20.1126 52.2435 20.1126 51.39H19.8126C19.8126 52.1685 19.5516 52.7382 19.0437 53.1246L19.2254 53.3634ZM20.1126 51.39C20.1126 50.7016 19.9241 50.1297 19.535 49.6888L19.3101 49.8872C19.641 50.2623 19.8126 50.7584 19.8126 51.39H20.1126ZM19.5367 49.6907C19.1586 49.2473 18.6599 49.026 18.0546 49.026V49.326C18.5772 49.326 18.9906 49.5127 19.3084 49.8853L19.5367 49.6907ZM18.0546 49.026C17.7276 49.026 17.4369 49.0763 17.1864 49.1818L17.3028 49.4582C17.5082 49.3717 17.7575 49.326 18.0546 49.326V49.026ZM17.1902 49.1802C16.9643 49.2681 16.7452 49.3808 16.5331 49.5181L16.6961 49.7699C16.8919 49.6432 17.0929 49.5399 17.2989 49.4598L17.1902 49.1802ZM16.4646 49.644V63H16.7646V49.644H16.4646ZM16.6146 62.85H15.4446V63.15H16.6146V62.85ZM15.5946 63V49.176H15.2946V63H15.5946ZM15.5117 49.3102L15.5477 49.2922L15.4135 49.0238L15.3775 49.0418L15.5117 49.3102ZM15.4442 49.3035C15.5428 49.3282 15.6309 49.3471 15.7079 49.36L15.7572 49.064C15.6903 49.0529 15.6103 49.0358 15.517 49.0125L15.4442 49.3035ZM15.7079 49.36C15.7901 49.3737 15.8827 49.38 15.9846 49.38V49.08C15.8944 49.08 15.819 49.0743 15.7572 49.064L15.7079 49.36ZM15.9846 49.38C16.4075 49.38 16.7684 49.3118 17.0597 49.1662L16.9255 48.8978C16.6887 49.0162 16.3777 49.08 15.9846 49.08V49.38ZM17.0597 49.1662C17.2926 49.0497 17.6549 48.984 18.1626 48.984V48.684C17.6383 48.684 17.2205 48.7503 16.9255 48.8978L17.0597 49.1662ZM18.1626 48.984C18.9459 48.984 19.6329 49.2193 20.2297 49.6898L20.4154 49.4542C19.7642 48.9407 19.0113 48.684 18.1626 48.684V48.984ZM20.2308 49.6906C20.835 50.158 21.1266 50.7223 21.1266 51.39H21.4266C21.4266 50.6177 21.0822 49.97 20.4144 49.4534L20.2308 49.6906ZM21.1266 51.39C21.1266 52.0701 20.7807 52.6325 20.0465 53.0799L20.2026 53.3361C21.0044 52.8475 21.4266 52.1979 21.4266 51.39H21.1266ZM20.048 53.079C19.2788 53.5357 18.7442 53.7945 18.4322 53.8725L18.505 54.1635C18.8649 54.0735 19.4343 53.7923 20.2012 53.337L20.048 53.079ZM18.455 54.1674C18.9387 54.2114 19.5282 54.5011 20.2279 55.0704L20.4172 54.8376C19.7009 54.2549 19.0544 53.9206 18.4822 53.8686L18.455 54.1674ZM20.2289 55.0711C20.8959 55.6047 21.2526 56.5853 21.2526 58.068H21.5526C21.5526 56.5507 21.1893 55.4553 20.4163 54.8369L20.2289 55.0711ZM21.2526 58.068V59.256H21.5526V58.068H21.2526ZM21.2526 59.256C21.2526 59.956 21.2857 60.5441 21.3531 61.0186C21.42 61.4903 21.5223 61.8616 21.6679 62.1197L21.9292 61.9723C21.8108 61.7624 21.7151 61.4347 21.6501 60.9764C21.5854 60.5209 21.5526 59.948 21.5526 59.256H21.2526ZM21.6679 62.1197C21.9416 62.6048 22.2811 62.898 22.6986 62.898V62.598C22.4441 62.598 22.1835 62.4232 21.9292 61.9723L21.6679 62.1197ZM22.6986 62.898C22.8596 62.898 23.015 62.8711 23.1638 62.817L23.0613 62.535C22.9462 62.5769 22.8255 62.598 22.6986 62.598V62.898ZM23.16 62.8183C23.3323 62.7609 23.4955 62.6492 23.6506 62.4941L23.4385 62.2819C23.3056 62.4148 23.1808 62.4951 23.0651 62.5337L23.16 62.8183ZM23.4385 62.4941L23.5465 62.6021L23.7586 62.3899L23.6506 62.2819L23.4385 62.4941ZM23.5334 62.4049C23.3894 62.5932 23.219 62.7413 23.0217 62.8509L23.1674 63.1131C23.4021 62.9827 23.6037 62.8068 23.7717 62.5871L23.5334 62.4049ZM23.0275 62.8478C22.8342 62.9445 22.6175 62.994 22.3746 62.994V63.294C22.6596 63.294 22.9229 63.2355 23.1617 63.1162L23.0275 62.8478ZM28.1468 49.608V49.458H27.9968V49.608H28.1468ZM28.1468 63V63.15H28.2968V63H28.1468ZM27.0128 63H26.8628V63.15H27.0128V63ZM27.0128 49.608H27.1628V49.458H27.0128V49.608ZM23.2868 50.148L23.1968 50.268L23.2833 50.3329L23.3722 50.2713L23.2868 50.148ZM23.2148 50.094L23.0801 50.028L23.0255 50.1395L23.1248 50.214L23.2148 50.094ZM23.6648 49.176V49.026H23.5713L23.5301 49.11L23.6648 49.176ZM31.4948 49.176L31.6295 49.11L31.5883 49.026H31.4948V49.176ZM31.9448 50.094L32.0348 50.214L32.1342 50.1395L32.0795 50.028L31.9448 50.094ZM31.8728 50.148L31.7874 50.2713L31.8763 50.3329L31.9628 50.268L31.8728 50.148ZM30.2528 49.716L30.2668 49.5667L30.2528 49.716ZM28.2548 49.458H28.1468V49.758H28.2548V49.458ZM27.9968 49.608V63H28.2968V49.608H27.9968ZM28.1468 62.85H27.0128V63.15H28.1468V62.85ZM27.1628 63V49.608H26.8628V63H27.1628ZM27.0128 49.458H26.9048V49.758H27.0128V49.458ZM26.9048 49.458C26.3348 49.458 25.6639 49.4944 24.8928 49.5667L24.9208 49.8653C25.6857 49.7936 26.3468 49.758 26.9048 49.758V49.458ZM24.8928 49.5667C24.1206 49.6391 23.5471 49.7853 23.2014 50.0247L23.3722 50.2713C23.6505 50.0787 24.1571 49.9369 24.9208 49.8653L24.8928 49.5667ZM23.3768 50.028L23.3048 49.974L23.1248 50.214L23.1968 50.268L23.3768 50.028ZM23.3495 50.16L23.7995 49.242L23.5301 49.11L23.0801 50.028L23.3495 50.16ZM23.6648 49.326H31.4948V49.026H23.6648V49.326ZM31.3601 49.242L31.8101 50.16L32.0795 50.028L31.6295 49.11L31.3601 49.242ZM31.8548 49.974L31.7828 50.028L31.9628 50.268L32.0348 50.214L31.8548 49.974ZM31.9582 50.0247C31.6125 49.7853 31.0391 49.6391 30.2668 49.5667L30.2388 49.8653C31.0026 49.9369 31.5091 50.0787 31.7874 50.2713L31.9582 50.0247ZM30.2668 49.5667C29.4957 49.4944 28.8248 49.458 28.2548 49.458V49.758C28.8128 49.758 29.4739 49.7936 30.2388 49.8653L30.2668 49.5667ZM40.269 63.144L40.2326 63.2896L40.2364 63.2904L40.269 63.144ZM38.901 63V63.15H38.9194L38.9373 63.1455L38.901 63ZM38.757 63.018L38.6899 63.1522L38.7395 63.177L38.7933 63.1635L38.757 63.018ZM38.721 63H38.571V63.0927L38.6539 63.1342L38.721 63ZM38.721 49.176L38.6539 49.0418L38.571 49.0833V49.176H38.721ZM38.757 49.158L38.7933 49.0125L38.7395 48.999L38.6899 49.0238L38.757 49.158ZM39.009 49.212L38.9843 49.36L39.009 49.212ZM40.323 49.032L40.3855 49.1684L40.323 49.032ZM44.031 53.064L43.9333 52.9501V52.9501L44.031 53.064ZM42.429 53.946L42.389 53.8014L42.4329 54.0959L42.429 53.946ZM45.237 55.206L45.338 55.0951L45.237 55.206ZM45.201 61.902L45.3043 62.0107L45.305 62.01L45.201 61.902ZM40.575 49.356L40.6205 49.499L40.6242 49.4977L40.575 49.356ZM39.891 49.716L39.7964 49.5996L39.741 49.6446V49.716H39.891ZM39.891 62.406H39.741V62.4745L39.7927 62.5194L39.891 62.406ZM40.539 62.784L40.4855 62.9244L40.4935 62.9269L40.539 62.784ZM44.211 61.686L44.092 61.5946L44.0918 61.5949L44.211 61.686ZM44.301 55.332L44.1846 55.4267L44.1854 55.4276L44.301 55.332ZM41.241 54.45L41.0915 54.437L41.0711 54.6714L41.2922 54.591L41.241 54.45ZM41.277 54.036L41.2523 53.888L41.1376 53.9072L41.1275 54.023L41.277 54.036ZM42.753 53.262L42.8533 53.3735L42.753 53.262ZM41.547 63.138C41.1385 63.138 40.7234 63.0913 40.3015 62.9976L40.2364 63.2904C40.6785 63.3887 41.1154 63.438 41.547 63.438V63.138ZM40.3053 62.9985C39.8637 62.8881 39.4493 62.832 39.063 62.832V63.132C39.4206 63.132 39.8102 63.1839 40.2326 63.2895L40.3053 62.9985ZM39.063 62.832C38.9932 62.832 38.9267 62.839 38.8646 62.8545L38.9373 63.1455C38.9712 63.137 39.0127 63.132 39.063 63.132V62.832ZM38.901 62.85C38.8403 62.85 38.7801 62.8576 38.7206 62.8725L38.7933 63.1635C38.8298 63.1544 38.8656 63.15 38.901 63.15V62.85ZM38.824 62.8838L38.788 62.8658L38.6539 63.1342L38.6899 63.1522L38.824 62.8838ZM38.871 63V49.176H38.571V63H38.871ZM38.788 49.3102L38.824 49.2922L38.6899 49.0238L38.6539 49.0418L38.788 49.3102ZM38.7206 49.3035C38.8192 49.3282 38.9073 49.3471 38.9843 49.36L39.0336 49.064C38.9667 49.0529 38.8867 49.0358 38.7933 49.0125L38.7206 49.3035ZM38.9843 49.36C39.0665 49.3737 39.1591 49.38 39.261 49.38V49.08C39.1708 49.08 39.0954 49.0743 39.0336 49.064L38.9843 49.36ZM39.261 49.38C39.6958 49.38 40.0726 49.3118 40.3855 49.1684L40.2605 48.8956C39.9974 49.0162 39.6661 49.08 39.261 49.08V49.38ZM40.3855 49.1684C40.6453 49.0493 41.0226 48.984 41.529 48.984V48.684C41.0033 48.684 40.5766 48.7507 40.2605 48.8956L40.3855 49.1684ZM41.529 48.984C42.1796 48.984 42.8672 49.195 43.5941 49.6288L43.7478 49.3712C42.9867 48.917 42.2464 48.684 41.529 48.684V48.984ZM43.5941 49.6288C44.2921 50.0454 44.637 50.6561 44.637 51.48H44.937C44.937 50.5519 44.5378 49.8426 43.7478 49.3712L43.5941 49.6288ZM44.637 51.48C44.637 52.0571 44.4065 52.5445 43.9333 52.9501L44.1286 53.1779C44.6634 52.7195 44.937 52.1509 44.937 51.48H44.637ZM43.9333 52.9501C43.4438 53.3697 42.9291 53.652 42.389 53.8014L42.4689 54.0906C43.0569 53.928 43.6101 53.6223 44.1286 53.1779L43.9333 52.9501ZM42.4329 54.0959C43.3052 54.0733 44.2053 54.4687 45.1359 55.3169L45.338 55.0951C44.3726 54.2153 43.4007 53.7707 42.4251 53.7961L42.4329 54.0959ZM45.1359 55.3169C46.0511 56.1509 46.509 57.2139 46.509 58.518H46.809C46.809 57.1341 46.3188 55.9891 45.338 55.0951L45.1359 55.3169ZM46.509 58.518C46.509 59.7962 46.0403 60.8855 45.0969 61.794L45.305 62.01C46.3056 61.0465 46.809 59.8798 46.809 58.518H46.509ZM45.0976 61.7933C44.1562 62.6882 42.9763 63.138 41.547 63.138V63.438C43.0456 63.438 44.3018 62.9638 45.3043 62.0107L45.0976 61.7933ZM41.529 49.062C41.1559 49.062 40.8207 49.1117 40.5257 49.2143L40.6242 49.4977C40.8812 49.4083 41.182 49.362 41.529 49.362V49.062ZM40.5295 49.2131C40.2497 49.3021 40.0046 49.4304 39.7964 49.5996L39.9855 49.8324C40.1613 49.6896 40.3722 49.5779 40.6204 49.4989L40.5295 49.2131ZM39.741 49.716V62.406H40.041V49.716H39.741ZM39.7927 62.5194C39.9876 62.6883 40.2193 62.8227 40.4856 62.9242L40.5924 62.6438C40.3546 62.5533 40.1543 62.4357 39.9892 62.2926L39.7927 62.5194ZM40.4935 62.9269C40.7774 63.0173 41.1301 63.06 41.547 63.06V62.76C41.1478 62.76 40.8286 62.7187 40.5844 62.6411L40.4935 62.9269ZM41.547 63.06C42.7392 63.06 43.674 62.6351 44.3301 61.7771L44.0918 61.5949C43.4999 62.3689 42.6587 62.76 41.547 62.76V63.06ZM44.3299 61.7774C44.9903 60.9176 45.315 59.8273 45.315 58.518H45.015C45.015 59.7767 44.7036 60.7984 44.092 61.5946L44.3299 61.7774ZM45.315 58.518C45.315 57.0742 45.0245 55.971 44.4165 55.2364L44.1854 55.4276C44.7294 56.085 45.015 57.1058 45.015 58.518H45.315ZM44.4173 55.2373C43.8156 54.4978 43.0664 54.12 42.177 54.12V54.42C42.9675 54.42 43.6343 54.7502 44.1846 55.4267L44.4173 55.2373ZM42.177 54.12C41.9649 54.12 41.778 54.1386 41.6186 54.1785L41.6913 54.4695C41.82 54.4374 41.981 54.42 42.177 54.42V54.12ZM41.6186 54.1785C41.4698 54.2157 41.3268 54.2592 41.1897 54.309L41.2922 54.591C41.4191 54.5448 41.5521 54.5043 41.6913 54.4695L41.6186 54.1785ZM41.3904 54.463L41.4264 54.049L41.1275 54.023L41.0915 54.437L41.3904 54.463ZM41.3016 54.184C41.8404 54.0942 42.3576 53.8196 42.8533 53.3735L42.6526 53.1505C42.1883 53.5684 41.7215 53.8098 41.2523 53.888L41.3016 54.184ZM42.8533 53.3735C43.365 52.9129 43.623 52.3324 43.623 51.642H43.323C43.323 52.2476 43.1009 52.7471 42.6526 53.1505L42.8533 53.3735ZM43.623 51.642C43.623 50.8652 43.4504 50.2347 43.0874 49.7679L42.8506 49.9521C43.1595 50.3493 43.323 50.9068 43.323 51.642H43.623ZM43.0874 49.7679C42.7187 49.2939 42.1919 49.062 41.529 49.062V49.362C42.114 49.362 42.5472 49.5621 42.8506 49.9521L43.0874 49.7679ZM49.8381 59.346L49.6991 59.2896L49.6018 59.5292L49.8581 59.4947L49.8381 59.346ZM57.4521 58.32L57.4721 58.4687L57.6795 58.4407L57.5864 58.2533L57.4521 58.32ZM53.4921 50.346L53.6264 50.2793L53.4783 49.9811L53.3531 50.2896L53.4921 50.346ZM59.7741 63L59.6397 63.0666L59.681 63.15H59.7741V63ZM57.7401 58.896L57.8745 58.8294L57.8276 58.7349L57.7229 58.747L57.7401 58.896ZM49.6401 59.832L49.6229 59.683L49.5348 59.6932L49.5012 59.7752L49.6401 59.832ZM48.3441 63V63.15H48.4448L48.4829 63.0568L48.3441 63ZM47.7321 63L47.5934 62.9427L47.5078 63.15H47.7321V63ZM53.2041 49.752L53.3427 49.8093L53.3708 49.7414L53.3343 49.6776L53.2041 49.752ZM53.0241 49.572L52.9409 49.6968L52.9486 49.702L52.957 49.7062L53.0241 49.572ZM52.7721 49.446L52.8248 49.3055L52.8195 49.3037L52.7721 49.446ZM52.7181 49.428H52.5681V49.5361L52.6706 49.5703L52.7181 49.428ZM52.7181 49.104L52.7288 48.9544L52.5681 48.9429V49.104H52.7181ZM54.2301 49.212L54.3643 49.1451L54.3261 49.0685L54.2408 49.0624L54.2301 49.212ZM61.1061 63V63.15H61.3485L61.2403 62.9331L61.1061 63ZM49.8581 59.4947L57.4721 58.4687L57.432 58.1713L49.818 59.1973L49.8581 59.4947ZM57.5864 58.2533L53.6264 50.2793L53.3577 50.4127L57.3177 58.3867L57.5864 58.2533ZM53.3531 50.2896L49.6991 59.2896L49.9771 59.4024L53.6311 50.4024L53.3531 50.2896ZM59.9085 62.9334L57.8745 58.8294L57.6057 58.9626L59.6397 63.0666L59.9085 62.9334ZM57.7229 58.747L49.6229 59.683L49.6573 59.981L57.7573 59.045L57.7229 58.747ZM49.5012 59.7752L48.2052 62.9432L48.4829 63.0568L49.7789 59.8888L49.5012 59.7752ZM48.3441 62.85H47.7321V63.15H48.3441V62.85ZM47.8707 63.0573L53.3427 49.8093L53.0654 49.6947L47.5934 62.9427L47.8707 63.0573ZM53.3343 49.6776C53.2746 49.5731 53.1946 49.4896 53.0912 49.4378L52.957 49.7062C52.9976 49.7264 53.0375 49.7629 53.0738 49.8264L53.3343 49.6776ZM53.1073 49.4472C53.0242 49.3918 52.9296 49.3449 52.8247 49.3056L52.7194 49.5864C52.8066 49.6191 52.88 49.6562 52.9409 49.6968L53.1073 49.4472ZM52.8195 49.3037L52.7655 49.2857L52.6706 49.5703L52.7246 49.5883L52.8195 49.3037ZM52.8681 49.428V49.104H52.5681V49.428H52.8681ZM52.7074 49.2536L54.2194 49.3616L54.2408 49.0624L52.7288 48.9544L52.7074 49.2536ZM54.0958 49.2789L60.9718 63.0669L61.2403 62.9331L54.3643 49.1451L54.0958 49.2789ZM61.1061 62.85H59.7741V63.15H61.1061V62.85ZM70.9102 63V63.15H70.9949L71.0386 63.0775L70.9102 63ZM61.7302 63L61.613 63.0937L61.6581 63.15H61.7302V63ZM61.6582 62.91L61.5308 62.8308L61.4748 62.9209L61.541 63.0037L61.6582 62.91ZM69.9202 49.626L70.0475 49.7052L70.1901 49.476H69.9202V49.626ZM63.5662 49.716L63.5908 49.8641L63.5968 49.8628L63.5662 49.716ZM62.6302 50.274L62.5827 50.4163L62.6689 50.445L62.7343 50.382L62.6302 50.274ZM62.5222 50.238L62.3816 50.1856L62.3273 50.3312L62.4747 50.3803L62.5222 50.238ZM62.9182 49.176V49.026H62.814L62.7776 49.1236L62.9182 49.176ZM71.2522 49.176L71.3693 49.0823L71.3243 49.026H71.2522V49.176ZM71.3242 49.266L71.4521 49.3443L71.5071 49.2545L71.4413 49.1723L71.3242 49.266ZM63.1882 62.55L63.0602 62.4717L62.9204 62.7H63.1882V62.55ZM70.2802 62.37L70.2483 62.2234L70.2476 62.2236L70.2802 62.37ZM71.5042 61.794L71.5979 61.6769L71.493 61.593L71.3981 61.6879L71.5042 61.794ZM71.5942 61.866L71.7226 61.9435L71.7905 61.831L71.6879 61.7489L71.5942 61.866ZM70.9102 62.85H61.7302V63.15H70.9102V62.85ZM61.8473 62.9063L61.7753 62.8163L61.541 63.0037L61.613 63.0937L61.8473 62.9063ZM61.7855 62.9892L70.0475 49.7052L69.7928 49.5468L61.5308 62.8308L61.7855 62.9892ZM69.9202 49.476H65.0602V49.776H69.9202V49.476ZM65.0602 49.476C64.3522 49.476 63.8403 49.5057 63.5356 49.5692L63.5968 49.8628C63.8681 49.8063 64.3521 49.776 65.0602 49.776V49.476ZM63.5415 49.568C63.2105 49.6232 62.8719 49.8325 62.526 50.166L62.7343 50.382C63.0604 50.0675 63.3458 49.9048 63.5908 49.864L63.5415 49.568ZM62.6776 50.1317L62.5696 50.0957L62.4747 50.3803L62.5827 50.4163L62.6776 50.1317ZM62.6627 50.2904L63.0587 49.2284L62.7776 49.1236L62.3816 50.1856L62.6627 50.2904ZM62.9182 49.326H71.2522V49.026H62.9182V49.326ZM71.135 49.2697L71.207 49.3597L71.4413 49.1723L71.3693 49.0823L71.135 49.2697ZM71.1963 49.1877L63.0602 62.4717L63.3161 62.6283L71.4521 49.3443L71.1963 49.1877ZM63.1882 62.7H68.3182V62.4H63.1882V62.7ZM68.3182 62.7C69.0932 62.7 69.7588 62.6395 70.3127 62.5164L70.2476 62.2236C69.7215 62.3405 69.0791 62.4 68.3182 62.4V62.7ZM70.312 62.5166C70.8787 62.3934 71.318 62.1923 71.6102 61.9001L71.3981 61.6879C71.1624 61.9237 70.7856 62.1066 70.2483 62.2234L70.312 62.5166ZM71.4105 61.9111L71.5005 61.9831L71.6879 61.7489L71.5979 61.6769L71.4105 61.9111ZM71.4657 61.7885L70.7817 62.9225L71.0386 63.0775L71.7226 61.9435L71.4657 61.7885ZM73.7971 59.346L73.6581 59.2896L73.5608 59.5292L73.8171 59.4947L73.7971 59.346ZM81.4111 58.32L81.4311 58.4687L81.6385 58.4407L81.5454 58.2533L81.4111 58.32ZM77.4511 50.346L77.5854 50.2793L77.4373 49.9811L77.3121 50.2896L77.4511 50.346ZM83.7331 63L83.5987 63.0666L83.64 63.15H83.7331V63ZM81.6991 58.896L81.8335 58.8294L81.7866 58.7349L81.6818 58.747L81.6991 58.896ZM73.5991 59.832L73.5818 59.683L73.4938 59.6932L73.4602 59.7752L73.5991 59.832ZM72.3031 63V63.15H72.4038L72.4419 63.0568L72.3031 63ZM71.6911 63L71.5524 62.9427L71.4668 63.15H71.6911V63ZM77.1631 49.752L77.3017 49.8093L77.3297 49.7414L77.2933 49.6776L77.1631 49.752ZM76.9831 49.572L76.8998 49.6968L76.9076 49.702L76.916 49.7062L76.9831 49.572ZM76.7311 49.446L76.7838 49.3055L76.7785 49.3037L76.7311 49.446ZM76.6771 49.428H76.5271V49.5361L76.6296 49.5703L76.6771 49.428ZM76.6771 49.104L76.6877 48.9544L76.5271 48.9429V49.104H76.6771ZM78.1891 49.212L78.3233 49.1451L78.2851 49.0685L78.1997 49.0624L78.1891 49.212ZM85.0651 63V63.15H85.3075L85.1993 62.9331L85.0651 63ZM73.8171 59.4947L81.4311 58.4687L81.391 58.1713L73.777 59.1973L73.8171 59.4947ZM81.5454 58.2533L77.5854 50.2793L77.3167 50.4127L81.2767 58.3867L81.5454 58.2533ZM77.3121 50.2896L73.6581 59.2896L73.936 59.4024L77.59 50.4024L77.3121 50.2896ZM83.8675 62.9334L81.8335 58.8294L81.5647 58.9626L83.5987 63.0666L83.8675 62.9334ZM81.6818 58.747L73.5818 59.683L73.6163 59.981L81.7163 59.045L81.6818 58.747ZM73.4602 59.7752L72.1642 62.9432L72.4419 63.0568L73.7379 59.8888L73.4602 59.7752ZM72.3031 62.85H71.6911V63.15H72.3031V62.85ZM71.8297 63.0573L77.3017 49.8093L77.0244 49.6947L71.5524 62.9427L71.8297 63.0573ZM77.2933 49.6776C77.2336 49.5731 77.1536 49.4896 77.0501 49.4378L76.916 49.7062C76.9565 49.7264 76.9965 49.7629 77.0328 49.8264L77.2933 49.6776ZM77.0663 49.4472C76.9832 49.3918 76.8885 49.3449 76.7837 49.3056L76.6784 49.5864C76.7656 49.6191 76.839 49.6562 76.8998 49.6968L77.0663 49.4472ZM76.7785 49.3037L76.7245 49.2857L76.6296 49.5703L76.6836 49.5883L76.7785 49.3037ZM76.8271 49.428V49.104H76.5271V49.428H76.8271ZM76.6664 49.2536L78.1784 49.3616L78.1997 49.0624L76.6877 48.9544L76.6664 49.2536ZM78.0548 49.2789L84.9308 63.0669L85.1993 62.9331L78.3233 49.1451L78.0548 49.2789ZM85.0651 62.85H83.7331V63.15H85.0651V62.85ZM87.8947 59.346L87.7557 59.2896L87.6584 59.5292L87.9147 59.4947L87.8947 59.346ZM95.5087 58.32L95.5287 58.4687L95.7361 58.4407L95.6431 58.2533L95.5087 58.32ZM91.5487 50.346L91.6831 50.2793L91.535 49.9811L91.4097 50.2896L91.5487 50.346ZM97.8307 63L97.6963 63.0666L97.7376 63.15H97.8307V63ZM95.7967 58.896L95.9311 58.8294L95.8843 58.7349L95.7795 58.747L95.7967 58.896ZM87.6967 59.832L87.6795 59.683L87.5914 59.6932L87.5579 59.7752L87.6967 59.832ZM86.4007 63V63.15H86.5014L86.5395 63.0568L86.4007 63ZM85.7887 63L85.6501 62.9427L85.5645 63.15H85.7887V63ZM91.2607 49.752L91.3994 49.8093L91.4274 49.7414L91.3909 49.6776L91.2607 49.752ZM91.0807 49.572L90.9975 49.6968L91.0053 49.702L91.0136 49.7062L91.0807 49.572ZM90.8287 49.446L90.8814 49.3055L90.8761 49.3037L90.8287 49.446ZM90.7747 49.428H90.6247V49.5361L90.7273 49.5703L90.7747 49.428ZM90.7747 49.104L90.7854 48.9544L90.6247 48.9429V49.104H90.7747ZM92.2867 49.212L92.4209 49.1451L92.3828 49.0685L92.2974 49.0624L92.2867 49.212ZM99.1627 63V63.15H99.4051L99.2969 62.9331L99.1627 63ZM87.9147 59.4947L95.5287 58.4687L95.4887 58.1713L87.8747 59.1973L87.9147 59.4947ZM95.6431 58.2533L91.6831 50.2793L91.4144 50.4127L95.3744 58.3867L95.6431 58.2533ZM91.4097 50.2896L87.7557 59.2896L88.0337 59.4024L91.6877 50.4024L91.4097 50.2896ZM97.9651 62.9334L95.9311 58.8294L95.6623 58.9626L97.6963 63.0666L97.9651 62.9334ZM95.7795 58.747L87.6795 59.683L87.7139 59.981L95.8139 59.045L95.7795 58.747ZM87.5579 59.7752L86.2619 62.9432L86.5395 63.0568L87.8355 59.8888L87.5579 59.7752ZM86.4007 62.85H85.7887V63.15H86.4007V62.85ZM85.9274 63.0573L91.3994 49.8093L91.1221 49.6947L85.6501 62.9427L85.9274 63.0573ZM91.3909 49.6776C91.3313 49.5731 91.2512 49.4896 91.1478 49.4378L91.0136 49.7062C91.0542 49.7264 91.0942 49.7629 91.1305 49.8264L91.3909 49.6776ZM91.1639 49.4472C91.0808 49.3918 90.9862 49.3449 90.8814 49.3056L90.776 49.5864C90.8632 49.6191 90.9366 49.6562 90.9975 49.6968L91.1639 49.4472ZM90.8761 49.3037L90.8221 49.2857L90.7273 49.5703L90.7813 49.5883L90.8761 49.3037ZM90.9247 49.428V49.104H90.6247V49.428H90.9247ZM90.764 49.2536L92.276 49.3616L92.2974 49.0624L90.7854 48.9544L90.764 49.2536ZM92.1525 49.2789L99.0285 63.0669L99.2969 62.9331L92.4209 49.1451L92.1525 49.2789ZM99.1627 62.85H97.8307V63.15H99.1627V62.85ZM106.204 62.226L106.08 62.3098L106.082 62.3125L106.204 62.226ZM104.764 55.026L104.661 55.1345L104.663 55.1369L104.764 55.026ZM103.036 54.306L103.069 54.4524L103.036 54.306ZM102.694 54.45L102.545 54.437L102.519 54.7299L102.772 54.5786L102.694 54.45ZM102.73 54.036L102.705 53.8882L102.591 53.9079L102.581 54.023L102.73 54.036ZM104.476 53.244L104.386 53.1246L104.384 53.1256L104.476 53.244ZM104.764 49.788L104.65 49.8854L104.652 49.8872L104.764 49.788ZM102.586 49.32L102.641 49.4599L102.645 49.4582L102.586 49.32ZM101.956 49.644L101.875 49.5181L101.806 49.5624V49.644H101.956ZM101.956 63V63.15H102.106V63H101.956ZM100.786 63H100.636V63.15H100.786V63ZM100.786 49.176L100.719 49.0418L100.636 49.0833V49.176H100.786ZM100.822 49.158L100.859 49.0125L100.805 48.999L100.755 49.0238L100.822 49.158ZM101.074 49.212L101.05 49.36L101.074 49.212ZM102.334 49.032L102.401 49.1662V49.1662L102.334 49.032ZM105.664 49.572L105.571 49.6898L105.573 49.6906L105.664 49.572ZM105.466 53.208L105.543 53.337L105.544 53.3361L105.466 53.208ZM103.81 54.018L103.774 53.8725L103.797 54.1674L103.81 54.018ZM105.664 54.954L105.57 55.0704L105.571 55.0711L105.664 54.954ZM107.14 62.046L107.01 62.1197L107.14 62.046ZM108.454 62.676L108.407 62.5336L108.403 62.535L108.454 62.676ZM108.886 62.388L108.992 62.2819L108.886 62.1759L108.78 62.2819L108.886 62.388ZM108.994 62.496L109.114 62.5871L109.193 62.4828L109.1 62.3899L108.994 62.496ZM108.436 62.982L108.504 63.1163L108.509 63.1131L108.436 62.982ZM107.716 62.994C107.203 62.994 106.74 62.7249 106.327 62.1395L106.082 62.3125C106.533 62.9511 107.077 63.294 107.716 63.294V62.994ZM106.329 62.1422C105.933 61.5539 105.724 60.6708 105.724 59.472H105.424C105.424 60.6972 105.636 61.6501 106.08 62.3098L106.329 62.1422ZM105.724 59.472V58.068H105.424V59.472H105.724ZM105.724 58.068C105.724 57.2924 105.656 56.6408 105.517 56.1169C105.377 55.5936 105.164 55.1872 104.865 54.9151L104.663 55.1369C104.905 55.3568 105.096 55.7034 105.227 56.1941C105.357 56.6842 105.424 57.3076 105.424 58.068H105.724ZM104.868 54.9175C104.333 54.407 103.835 54.12 103.378 54.12V54.42C103.714 54.42 104.14 54.637 104.661 55.1345L104.868 54.9175ZM103.378 54.12C103.248 54.12 103.123 54.133 103.004 54.1596L103.069 54.4524C103.165 54.431 103.268 54.42 103.378 54.42V54.12ZM103.004 54.1596C102.877 54.1879 102.748 54.2432 102.617 54.3214L102.772 54.5786C102.881 54.5128 102.98 54.4721 103.069 54.4524L103.004 54.1596ZM102.844 54.463L102.88 54.049L102.581 54.023L102.545 54.437L102.844 54.463ZM102.756 54.1838C103.406 54.0713 104.011 53.7963 104.568 53.3624L104.384 53.1256C103.862 53.5317 103.303 53.7847 102.705 53.8882L102.756 54.1838ZM104.567 53.3634C105.163 52.9098 105.454 52.2435 105.454 51.39H105.154C105.154 52.1685 104.893 52.7382 104.386 53.1246L104.567 53.3634ZM105.454 51.39C105.454 50.7016 105.266 50.1297 104.877 49.6888L104.652 49.8872C104.983 50.2623 105.154 50.7584 105.154 51.39H105.454ZM104.878 49.6907C104.5 49.2473 104.002 49.026 103.396 49.026V49.326C103.919 49.326 104.332 49.5127 104.65 49.8853L104.878 49.6907ZM103.396 49.026C103.069 49.026 102.779 49.0763 102.528 49.1818L102.645 49.4582C102.85 49.3717 103.099 49.326 103.396 49.326V49.026ZM102.532 49.1802C102.306 49.2681 102.087 49.3808 101.875 49.5181L102.038 49.7699C102.234 49.6432 102.435 49.5399 102.641 49.4598L102.532 49.1802ZM101.806 49.644V63H102.106V49.644H101.806ZM101.956 62.85H100.786V63.15H101.956V62.85ZM100.936 63V49.176H100.636V63H100.936ZM100.853 49.3102L100.889 49.2922L100.755 49.0238L100.719 49.0418L100.853 49.3102ZM100.786 49.3035C100.885 49.3282 100.973 49.3471 101.05 49.36L101.099 49.064C101.032 49.0529 100.952 49.0358 100.859 49.0125L100.786 49.3035ZM101.05 49.36C101.132 49.3737 101.225 49.38 101.326 49.38V49.08C101.236 49.08 101.161 49.0743 101.099 49.064L101.05 49.36ZM101.326 49.38C101.749 49.38 102.11 49.3118 102.401 49.1662L102.267 48.8978C102.031 49.0162 101.719 49.08 101.326 49.08V49.38ZM102.401 49.1662C102.634 49.0497 102.997 48.984 103.504 48.984V48.684C102.98 48.684 102.562 48.7503 102.267 48.8978L102.401 49.1662ZM103.504 48.984C104.288 48.984 104.975 49.2193 105.571 49.6898L105.757 49.4542C105.106 48.9407 104.353 48.684 103.504 48.684V48.984ZM105.573 49.6906C106.177 50.158 106.468 50.7223 106.468 51.39H106.768C106.768 50.6177 106.424 49.97 105.756 49.4534L105.573 49.6906ZM106.468 51.39C106.468 52.0701 106.123 52.6325 105.388 53.0799L105.544 53.3361C106.346 52.8475 106.768 52.1979 106.768 51.39H106.468ZM105.39 53.079C104.621 53.5357 104.086 53.7945 103.774 53.8725L103.847 54.1635C104.207 54.0735 104.776 53.7923 105.543 53.337L105.39 53.079ZM103.797 54.1674C104.281 54.2114 104.87 54.5011 105.57 55.0704L105.759 54.8376C105.043 54.2549 104.396 53.9206 103.824 53.8686L103.797 54.1674ZM105.571 55.0711C106.238 55.6047 106.594 56.5853 106.594 58.068H106.894C106.894 56.5507 106.531 55.4553 105.758 54.8369L105.571 55.0711ZM106.594 58.068V59.256H106.894V58.068H106.594ZM106.594 59.256C106.594 59.956 106.628 60.5441 106.695 61.0186C106.762 61.4903 106.864 61.8616 107.01 62.1197L107.271 61.9723C107.153 61.7624 107.057 61.4347 106.992 60.9764C106.927 60.5209 106.894 59.948 106.894 59.256H106.594ZM107.01 62.1197C107.283 62.6048 107.623 62.898 108.04 62.898V62.598C107.786 62.598 107.525 62.4232 107.271 61.9723L107.01 62.1197ZM108.04 62.898C108.201 62.898 108.357 62.8711 108.506 62.817L108.403 62.535C108.288 62.5769 108.167 62.598 108.04 62.598V62.898ZM108.502 62.8183C108.674 62.7609 108.837 62.6492 108.992 62.4941L108.78 62.2819C108.647 62.4148 108.523 62.4951 108.407 62.5337L108.502 62.8183ZM108.78 62.4941L108.888 62.6021L109.1 62.3899L108.992 62.2819L108.78 62.4941ZM108.875 62.4049C108.731 62.5932 108.561 62.7413 108.364 62.8509L108.509 63.1131C108.744 62.9827 108.946 62.8068 109.114 62.5871L108.875 62.4049ZM108.369 62.8478C108.176 62.9445 107.959 62.994 107.716 62.994V63.294C108.001 63.294 108.265 63.2355 108.503 63.1162L108.369 62.8478Z" fill="#503C3C"/>
<path fill-rule="evenodd" clip-rule="evenodd" d="M51.4369 6.07064C52.9488 5.8919 54.1215 4.60581 54.1215 3.04583C54.1215 1.36355 52.7577 -0.000210196 51.0755 -0.000210196C49.3932 -0.000210196 48.0294 1.36355 48.0294 3.04583C48.0294 4.7009 49.3494 6.04768 50.9941 6.0908L50.9941 27.428C50.0134 32.0636 45.9253 35.5581 41 35.6149L51.0605 35.6546L61.1669 35.6149C56.3362 35.5563 52.3244 32.0877 51.4369 27.4959L51.4369 6.07064ZM60.2919 19.4003C64.3096 19.4003 67.5666 22.6412 67.5666 26.6392C67.5666 30.6371 64.3096 33.878 60.2919 33.878C58.0793 33.878 56.0974 32.8951 54.7632 31.3441C54.49 31.0265 54.2439 30.6851 54.0286 30.3235C53.0909 28.8916 52.6184 27.2023 52.6797 25.4873L52.8358 21.126L52.8358 14.844H52.8493V14.546H56.7567C60.9655 14.546 64.3774 11.1341 64.3774 6.92526V6.8121H64.8202V6.92526C64.8202 11.3786 61.21 14.9888 56.7567 14.9888H53.2786L53.2786 20.7491C54.0686 21.6468 55.4021 21.8954 56.4691 21.3101C56.6585 21.1368 56.8723 20.9279 57.087 20.7117C57.542 20.2534 58.0497 19.9183 58.6066 19.7017C58.8605 19.5789 59.1353 19.5009 59.4189 19.4727L59.4177 19.4752C59.6988 19.4251 59.9904 19.4003 60.2919 19.4003ZM63.7299 6.84706C63.7299 10.3652 60.8779 13.2173 57.3597 13.2173H52.8716V6.84706H63.7299Z" fill="url(#paint0_linear_319_294)"/>
<defs>
<linearGradient id="paint0_linear_319_294" x1="52.4385" y1="-8.28163e-08" x2="54.2833" y2="35.6548" gradientUnits="userSpaceOnUse">
<stop stop-color="#917878"/>
<stop offset="1" stop-color="#543737"/>
</linearGradient>
</defs>
</svg>
