<svg width="192" height="49" viewBox="0 0 192 49" fill="none" xmlns="http://www.w3.org/2000/svg">
<path d="M57.014 31.5208L66.32 30.2668L61.48 20.5208L57.014 31.5208ZM69.158 35.9868L66.672 30.9708L56.772 32.1148L55.188 35.9868H54.44L61.128 19.7948C61.0693 19.6921 60.996 19.6188 60.908 19.5748C60.82 19.5161 60.7173 19.4648 60.6 19.4208L60.534 19.3988V19.0028L62.382 19.1348L70.786 35.9868H69.158ZM81.6805 36.1628C80.9765 36.1628 80.3605 35.7888 79.8325 35.0408C79.3191 34.2781 79.0625 33.1561 79.0625 31.6748V29.9588C79.0625 28.0815 78.7325 26.8421 78.0725 26.2408C77.4271 25.6248 76.8625 25.3168 76.3785 25.3168C76.2318 25.3168 76.0925 25.3315 75.9605 25.3608C75.8285 25.3901 75.6891 25.4488 75.5425 25.5368L75.5865 25.0308C76.3491 24.8988 77.0605 24.5761 77.7205 24.0628C78.3951 23.5495 78.7325 22.7941 78.7325 21.7968C78.7325 20.9901 78.5125 20.3375 78.0725 19.8388C77.6471 19.3401 77.0898 19.0908 76.4005 19.0908C76.0191 19.0908 75.6891 19.1495 75.4105 19.2668C75.1465 19.3695 74.8898 19.5015 74.6405 19.6628V35.9868H73.2105V19.0908L73.2545 19.0688C73.3718 19.0981 73.4745 19.1201 73.5625 19.1348C73.6505 19.1495 73.7531 19.1568 73.8705 19.1568C74.3691 19.1568 74.7798 19.0761 75.1025 18.9148C75.4251 18.7535 75.9018 18.6728 76.5325 18.6728C77.5298 18.6728 78.4098 18.9735 79.1725 19.5748C79.9498 20.1761 80.3385 20.9168 80.3385 21.7968C80.3385 22.7061 79.8691 23.4468 78.9305 24.0188C77.9918 24.5761 77.3171 24.9061 76.9065 25.0088C77.5518 25.0675 78.3071 25.4488 79.1725 26.1528C80.0525 26.8568 80.4925 28.1255 80.4925 29.9588V31.4108C80.4925 33.1121 80.6538 34.2488 80.9765 34.8208C81.2991 35.3928 81.6658 35.6788 82.0765 35.6788C82.2525 35.6788 82.4211 35.6495 82.5825 35.5908C82.7585 35.5321 82.9345 35.4148 83.1105 35.2388L83.2425 35.3708C83.0518 35.6201 82.8245 35.8181 82.5605 35.9648C82.2965 36.0968 82.0031 36.1628 81.6805 36.1628ZM89.3074 19.6188H89.1754V35.9868H87.7894V19.6188H87.6574C86.9681 19.6188 86.1541 19.6628 85.2154 19.7508C84.2768 19.8388 83.6168 20.0148 83.2354 20.2788L83.1474 20.2128L83.6974 19.0908H93.2674L93.8174 20.2128L93.7294 20.2788C93.3481 20.0148 92.6881 19.8388 91.7494 19.7508C90.8108 19.6628 89.9968 19.6188 89.3074 19.6188ZM106.433 36.3388C105.92 36.3388 105.399 36.2801 104.871 36.1628C104.343 36.0308 103.852 35.9648 103.397 35.9648C103.324 35.9648 103.258 35.9721 103.199 35.9868C103.141 35.9868 103.082 35.9941 103.023 36.0088L102.979 35.9868V19.0908L103.023 19.0688C103.141 19.0981 103.243 19.1201 103.331 19.1348C103.419 19.1495 103.522 19.1568 103.639 19.1568C104.153 19.1568 104.585 19.0761 104.937 18.9148C105.289 18.7535 105.781 18.6728 106.411 18.6728C107.247 18.6728 108.12 18.9441 109.029 19.4868C109.939 20.0295 110.393 20.8361 110.393 21.9068C110.393 22.6695 110.085 23.3148 109.469 23.8428C108.853 24.3708 108.201 24.7301 107.511 24.9208C108.641 24.8915 109.785 25.4048 110.943 26.4608C112.102 27.5168 112.681 28.8661 112.681 30.5088C112.681 32.1221 112.087 33.5008 110.899 34.6448C109.711 35.7741 108.223 36.3388 106.433 36.3388ZM106.411 19.1348C105.971 19.1348 105.583 19.1935 105.245 19.3108C104.923 19.4135 104.644 19.5601 104.409 19.7508V35.2608C104.629 35.4515 104.893 35.6055 105.201 35.7228C105.524 35.8255 105.935 35.8768 106.433 35.8768C107.841 35.8768 108.927 35.3781 109.689 34.3808C110.467 33.3688 110.855 32.0781 110.855 30.5088C110.855 28.7635 110.503 27.4655 109.799 26.6148C109.095 25.7495 108.23 25.3168 107.203 25.3168C106.954 25.3168 106.741 25.3388 106.565 25.3828C106.389 25.4268 106.221 25.4781 106.059 25.5368L106.103 25.0308C106.719 24.9281 107.321 24.6128 107.907 24.0848C108.494 23.5568 108.787 22.8968 108.787 22.1048C108.787 21.1808 108.582 20.4548 108.171 19.9268C107.761 19.3988 107.174 19.1348 106.411 19.1348ZM117.007 31.5208L126.313 30.2668L121.473 20.5208L117.007 31.5208ZM129.151 35.9868L126.665 30.9708L116.765 32.1148L115.181 35.9868H114.433L121.121 19.7948C121.062 19.6921 120.989 19.6188 120.901 19.5748C120.813 19.5161 120.71 19.4648 120.593 19.4208L120.527 19.3988V19.0028L122.375 19.1348L130.779 35.9868H129.151ZM143.202 35.9868H131.982L131.894 35.8768L141.992 19.6408H136.052C135.186 19.6408 134.578 19.6775 134.226 19.7508C133.874 19.8095 133.492 20.0368 133.082 20.4328L132.95 20.3888L133.434 19.0908H143.62L143.708 19.2008L133.764 35.4368H140.034C140.972 35.4368 141.772 35.3635 142.432 35.2168C143.106 35.0701 143.605 34.8355 143.928 34.5128L144.038 34.6008L143.202 35.9868ZM147.17 31.5208L156.476 30.2668L151.636 20.5208L147.17 31.5208ZM159.314 35.9868L156.828 30.9708L146.928 32.1148L145.344 35.9868H144.596L151.284 19.7948C151.226 19.6921 151.152 19.6188 151.064 19.5748C150.976 19.5161 150.874 19.4648 150.756 19.4208L150.69 19.3988V19.0028L152.538 19.1348L160.942 35.9868H159.314ZM164.841 31.5208L174.147 30.2668L169.307 20.5208L164.841 31.5208ZM176.985 35.9868L174.499 30.9708L164.599 32.1148L163.015 35.9868H162.267L168.955 19.7948C168.896 19.6921 168.823 19.6188 168.735 19.5748C168.647 19.5161 168.544 19.4648 168.427 19.4208L168.361 19.3988V19.0028L170.209 19.1348L178.613 35.9868H176.985ZM189.507 36.1628C188.803 36.1628 188.187 35.7888 187.659 35.0408C187.146 34.2781 186.889 33.1561 186.889 31.6748V29.9588C186.889 28.0815 186.559 26.8421 185.899 26.2408C185.254 25.6248 184.689 25.3168 184.205 25.3168C184.058 25.3168 183.919 25.3315 183.787 25.3608C183.655 25.3901 183.516 25.4488 183.369 25.5368L183.413 25.0308C184.176 24.8988 184.887 24.5761 185.547 24.0628C186.222 23.5495 186.559 22.7941 186.559 21.7968C186.559 20.9901 186.339 20.3375 185.899 19.8388C185.474 19.3401 184.916 19.0908 184.227 19.0908C183.846 19.0908 183.516 19.1495 183.237 19.2668C182.973 19.3695 182.716 19.5015 182.467 19.6628V35.9868H181.037V19.0908L181.081 19.0688C181.198 19.0981 181.301 19.1201 181.389 19.1348C181.477 19.1495 181.58 19.1568 181.697 19.1568C182.196 19.1568 182.606 19.0761 182.929 18.9148C183.252 18.7535 183.728 18.6728 184.359 18.6728C185.356 18.6728 186.236 18.9735 186.999 19.5748C187.776 20.1761 188.165 20.9168 188.165 21.7968C188.165 22.7061 187.696 23.4468 186.757 24.0188C185.818 24.5761 185.144 24.9061 184.733 25.0088C185.378 25.0675 186.134 25.4488 186.999 26.1528C187.879 26.8568 188.319 28.1255 188.319 29.9588V31.4108C188.319 33.1121 188.48 34.2488 188.803 34.8208C189.126 35.3928 189.492 35.6788 189.903 35.6788C190.079 35.6788 190.248 35.6495 190.409 35.5908C190.585 35.5321 190.761 35.4148 190.937 35.2388L191.069 35.3708C190.878 35.6201 190.651 35.8181 190.387 35.9648C190.123 36.0968 189.83 36.1628 189.507 36.1628Z" fill="#503C3C"/>
<path d="M57.014 31.5208L56.875 31.4644L56.7777 31.704L57.034 31.6695L57.014 31.5208ZM66.32 30.2668L66.34 30.4155L66.5474 30.3875L66.4543 30.2001L66.32 30.2668ZM61.48 20.5208L61.6143 20.4541L61.4663 20.1559L61.341 20.4644L61.48 20.5208ZM69.158 35.9868L69.0236 36.0534L69.0649 36.1368H69.158V35.9868ZM66.672 30.9708L66.8064 30.9042L66.7596 30.8097L66.6548 30.8218L66.672 30.9708ZM56.772 32.1148L56.7548 31.9658L56.6667 31.976L56.6332 32.058L56.772 32.1148ZM55.188 35.9868V36.1368H55.2887L55.3268 36.0436L55.188 35.9868ZM54.44 35.9868L54.3014 35.9296L54.2158 36.1368H54.44V35.9868ZM61.128 19.7948L61.2666 19.8521L61.2947 19.7842L61.2582 19.7204L61.128 19.7948ZM60.908 19.5748L60.8248 19.6996L60.8326 19.7048L60.8409 19.709L60.908 19.5748ZM60.6 19.4208L60.6527 19.2803L60.6474 19.2785L60.6 19.4208ZM60.534 19.3988H60.384V19.5069L60.4866 19.5411L60.534 19.3988ZM60.534 19.0028L60.5447 18.8532L60.384 18.8417V19.0028H60.534ZM62.382 19.1348L62.5162 19.0679L62.478 18.9913L62.3927 18.9852L62.382 19.1348ZM70.786 35.9868V36.1368H71.0284L70.9202 35.9199L70.786 35.9868ZM57.034 31.6695L66.34 30.4155L66.3 30.1182L56.994 31.3722L57.034 31.6695ZM66.4543 30.2001L61.6143 20.4541L61.3457 20.5875L66.1857 30.3335L66.4543 30.2001ZM61.341 20.4644L56.875 31.4644L57.153 31.5772L61.619 20.5772L61.341 20.4644ZM69.2924 35.9202L66.8064 30.9042L66.5376 31.0374L69.0236 36.0534L69.2924 35.9202ZM66.6548 30.8218L56.7548 31.9658L56.7892 32.2638L66.6892 31.1198L66.6548 30.8218ZM56.6332 32.058L55.0492 35.93L55.3268 36.0436L56.9108 32.1716L56.6332 32.058ZM55.188 35.8368H54.44V36.1368H55.188V35.8368ZM54.5786 36.0441L61.2666 19.8521L60.9894 19.7376L54.3014 35.9296L54.5786 36.0441ZM61.2582 19.7204C61.1879 19.5973 61.0945 19.5004 60.9751 19.4407L60.8409 19.709C60.8975 19.7373 60.9508 19.787 60.9978 19.8692L61.2582 19.7204ZM60.9912 19.45C60.8921 19.3839 60.7788 19.3277 60.6527 19.2804L60.5473 19.5613C60.6558 19.602 60.7479 19.6484 60.8248 19.6996L60.9912 19.45ZM60.6474 19.2785L60.5814 19.2565L60.4866 19.5411L60.5526 19.5631L60.6474 19.2785ZM60.684 19.3988V19.0028H60.384V19.3988H60.684ZM60.5233 19.1524L62.3713 19.2844L62.3927 18.9852L60.5447 18.8532L60.5233 19.1524ZM62.2478 19.2018L70.6518 36.0538L70.9202 35.9199L62.5162 19.0679L62.2478 19.2018ZM70.786 35.8368H69.158V36.1368H70.786V35.8368ZM79.8325 35.0408L79.708 35.1246L79.7099 35.1273L79.8325 35.0408ZM78.0725 26.2408L77.9689 26.3493L77.9714 26.3517L78.0725 26.2408ZM75.9605 25.3608L75.993 25.5072L75.9605 25.3608ZM75.5425 25.5368L75.393 25.5238L75.3676 25.8167L75.6196 25.6654L75.5425 25.5368ZM75.5865 25.0308L75.5609 24.883L75.447 24.9027L75.437 25.0178L75.5865 25.0308ZM77.7205 24.0628L77.6296 23.9434L77.6284 23.9444L77.7205 24.0628ZM78.0725 19.8388L77.9583 19.9362L77.96 19.9381L78.0725 19.8388ZM75.4105 19.2668L75.4649 19.4067L75.4687 19.4051L75.4105 19.2668ZM74.6405 19.6628L74.559 19.5369L74.4905 19.5812V19.6628H74.6405ZM74.6405 35.9868V36.1368H74.7905V35.9868H74.6405ZM73.2105 35.9868H73.0605V36.1368H73.2105V35.9868ZM73.2105 19.0908L73.1434 18.9567L73.0605 18.9981V19.0908H73.2105ZM73.2545 19.0688L73.2908 18.9233L73.237 18.9098L73.1874 18.9347L73.2545 19.0688ZM73.5625 19.1348L73.5378 19.2828L73.5625 19.1348ZM75.1025 18.9148L75.1696 19.049V19.049L75.1025 18.9148ZM79.1725 19.5748L79.0796 19.6926L79.0807 19.6935L79.1725 19.5748ZM78.9305 24.0188L79.0071 24.1478L79.0085 24.1469L78.9305 24.0188ZM76.9065 25.0088L76.8701 24.8633L76.8929 25.1582L76.9065 25.0088ZM79.1725 26.1528L79.0778 26.2692L79.0788 26.2699L79.1725 26.1528ZM80.9765 34.8208L80.8458 34.8945L80.9765 34.8208ZM82.5825 35.5908L82.535 35.4485L82.5312 35.4498L82.5825 35.5908ZM83.1105 35.2388L83.2165 35.1327L83.1105 35.0267L83.0044 35.1327L83.1105 35.2388ZM83.2425 35.3708L83.3616 35.4619L83.4414 35.3576L83.3485 35.2648L83.2425 35.3708ZM82.5605 35.9648L82.6276 36.0991L82.6333 36.0959L82.5605 35.9648ZM81.6805 36.0128C81.0394 36.0128 80.4643 35.6757 79.955 34.9543L79.7099 35.1273C80.2567 35.9019 80.9135 36.3128 81.6805 36.3128V36.0128ZM79.9569 34.9571C79.4676 34.2301 79.2125 33.143 79.2125 31.6748H78.9125C78.9125 33.1693 79.1707 34.3262 79.708 35.1246L79.9569 34.9571ZM79.2125 31.6748V29.9588H78.9125V31.6748H79.2125ZM79.2125 29.9588C79.2125 29.0126 79.1294 28.2193 78.9599 27.5827C78.7906 26.9468 78.5321 26.4567 78.1735 26.1299L77.9714 26.3517C78.2728 26.6263 78.5094 27.0565 78.67 27.6599C78.8305 28.2626 78.9125 29.0277 78.9125 29.9588H79.2125ZM78.176 26.1323C77.5239 25.5098 76.9227 25.1668 76.3785 25.1668V25.4668C76.8022 25.4668 77.3304 25.7398 77.9689 26.3493L78.176 26.1323ZM76.3785 25.1668C76.2218 25.1668 76.0715 25.1825 75.9279 25.2144L75.993 25.5072C76.1135 25.4805 76.2418 25.4668 76.3785 25.4668V25.1668ZM75.9279 25.2144C75.7767 25.248 75.6223 25.314 75.4653 25.4082L75.6196 25.6654C75.756 25.5836 75.8803 25.5323 75.993 25.5072L75.9279 25.2144ZM75.6919 25.5498L75.7359 25.0438L75.437 25.0178L75.393 25.5238L75.6919 25.5498ZM75.6121 25.1786C76.4009 25.0421 77.1347 24.7084 77.8126 24.1812L77.6284 23.9444C76.9862 24.4439 76.2974 24.7555 75.5609 24.883L75.6121 25.1786ZM77.8113 24.1822C78.5301 23.6353 78.8825 22.8317 78.8825 21.7968H78.5825C78.5825 22.7566 78.2602 23.4637 77.6296 23.9434L77.8113 24.1822ZM78.8825 21.7968C78.8825 20.9618 78.654 20.2712 78.1849 19.7396L77.96 19.9381C78.3709 20.4038 78.5825 21.0185 78.5825 21.7968H78.8825ZM78.1866 19.7415C77.7311 19.2075 77.1311 18.9408 76.4005 18.9408V19.2408C77.0485 19.2408 77.5632 19.4728 77.9583 19.9362L78.1866 19.7415ZM76.4005 18.9408C76.0042 18.9408 75.6535 19.0017 75.3523 19.1286L75.4687 19.4051C75.7248 19.2972 76.0341 19.2408 76.4005 19.2408V18.9408ZM75.3561 19.127C75.0822 19.2335 74.8165 19.3703 74.559 19.5369L74.722 19.7888C74.9632 19.6327 75.2108 19.5054 75.4648 19.4066L75.3561 19.127ZM74.4905 19.6628V35.9868H74.7905V19.6628H74.4905ZM74.6405 35.8368H73.2105V36.1368H74.6405V35.8368ZM73.3605 35.9868V19.0908H73.0605V35.9868H73.3605ZM73.2776 19.225L73.3216 19.203L73.1874 18.9347L73.1434 18.9567L73.2776 19.225ZM73.2181 19.2143C73.338 19.2443 73.4448 19.2673 73.5378 19.2828L73.5871 18.9869C73.5042 18.973 73.4056 18.952 73.2908 18.9233L73.2181 19.2143ZM73.5378 19.2828C73.636 19.2991 73.7473 19.3068 73.8705 19.3068V19.0068C73.759 19.0068 73.6649 18.9998 73.5871 18.9869L73.5378 19.2828ZM73.8705 19.3068C74.384 19.3068 74.8197 19.2239 75.1696 19.049L75.0354 18.7807C74.7399 18.9284 74.3543 19.0068 73.8705 19.0068V19.3068ZM75.1696 19.049C75.4612 18.9032 75.9101 18.8228 76.5325 18.8228V18.5228C75.8935 18.5228 75.3891 18.6038 75.0354 18.7807L75.1696 19.049ZM76.5325 18.8228C77.4971 18.8228 78.3442 19.1127 79.0796 19.6926L79.2653 19.457C78.4755 18.8342 77.5625 18.5228 76.5325 18.5228V18.8228ZM79.0807 19.6935C79.8262 20.2702 80.1885 20.9691 80.1885 21.7968H80.4885C80.4885 20.8645 80.0734 20.0821 79.2642 19.4562L79.0807 19.6935ZM80.1885 21.7968C80.1885 22.6422 79.7573 23.3393 78.8524 23.8907L79.0085 24.1469C79.981 23.5543 80.4885 22.7701 80.4885 21.7968H80.1885ZM78.8539 23.8898C77.9141 24.4479 77.2568 24.7666 76.8701 24.8633L76.9429 25.1543C77.3775 25.0457 78.0695 24.7044 79.007 24.1478L78.8539 23.8898ZM76.8929 25.1582C77.4939 25.2128 78.2208 25.572 79.0778 26.2692L79.2671 26.0365C78.3935 25.3257 77.6097 24.9221 76.92 24.8594L76.8929 25.1582ZM79.0788 26.2699C79.9058 26.9316 80.3425 28.1428 80.3425 29.9588H80.6425C80.6425 28.1082 80.1992 26.7821 79.2662 26.0357L79.0788 26.2699ZM80.3425 29.9588V31.4108H80.6425V29.9588H80.3425ZM80.3425 31.4108C80.3425 32.2655 80.383 32.9826 80.465 33.5604C80.5466 34.1355 80.6709 34.5844 80.8458 34.8945L81.1071 34.7471C80.9594 34.4852 80.8417 34.0798 80.762 33.5182C80.6827 32.9593 80.6425 32.2574 80.6425 31.4108H80.3425ZM80.8458 34.8945C81.1782 35.4837 81.5843 35.8288 82.0765 35.8288V35.5288C81.7473 35.5288 81.4201 35.302 81.1071 34.7471L80.8458 34.8945ZM82.0765 35.8288C82.2695 35.8288 82.4556 35.7966 82.6337 35.7318L82.5312 35.4498C82.3867 35.5024 82.2354 35.5288 82.0765 35.5288V35.8288ZM82.6299 35.7331C82.8342 35.665 83.0294 35.532 83.2165 35.3449L83.0044 35.1327C82.8395 35.2977 82.6827 35.3993 82.535 35.4485L82.6299 35.7331ZM83.0044 35.3449L83.1364 35.4769L83.3485 35.2648L83.2165 35.1327L83.0044 35.3449ZM83.1233 35.2797C82.9447 35.5133 82.7329 35.6974 82.4876 35.8337L82.6333 36.0959C82.916 35.9389 83.1589 35.727 83.3616 35.4619L83.1233 35.2797ZM82.4934 35.8307C82.2521 35.9513 81.9821 36.0128 81.6805 36.0128V36.3128C82.0242 36.3128 82.3408 36.2423 82.6276 36.099L82.4934 35.8307ZM89.1754 19.6188V19.4688H89.0254V19.6188H89.1754ZM89.1754 35.9868V36.1368H89.3254V35.9868H89.1754ZM87.7894 35.9868H87.6394V36.1368H87.7894V35.9868ZM87.7894 19.6188H87.9394V19.4688H87.7894V19.6188ZM83.2354 20.2788L83.1454 20.3988L83.2319 20.4637L83.3208 20.4021L83.2354 20.2788ZM83.1474 20.2128L83.0127 20.1468L82.9581 20.2583L83.0574 20.3328L83.1474 20.2128ZM83.6974 19.0908V18.9408H83.6039L83.5627 19.0248L83.6974 19.0908ZM93.2674 19.0908L93.4021 19.0248L93.3609 18.9408H93.2674V19.0908ZM93.8174 20.2128L93.9074 20.3328L94.0068 20.2583L93.9521 20.1468L93.8174 20.2128ZM93.7294 20.2788L93.644 20.4021L93.7329 20.4637L93.8194 20.3988L93.7294 20.2788ZM91.7494 19.7508L91.7634 19.6015L91.7494 19.7508ZM89.3074 19.4688H89.1754V19.7688H89.3074V19.4688ZM89.0254 19.6188V35.9868H89.3254V19.6188H89.0254ZM89.1754 35.8368H87.7894V36.1368H89.1754V35.8368ZM87.9394 35.9868V19.6188H87.6394V35.9868H87.9394ZM87.7894 19.4688H87.6574V19.7688H87.7894V19.4688ZM87.6574 19.4688C86.9621 19.4688 86.1432 19.5132 85.2014 19.6015L85.2294 19.9002C86.165 19.8125 86.9741 19.7688 87.6574 19.7688V19.4688ZM85.2014 19.6015C84.2585 19.6899 83.5651 19.8682 83.15 20.1555L83.3208 20.4021C83.6684 20.1615 84.295 19.9878 85.2294 19.9002L85.2014 19.6015ZM83.3254 20.1588L83.2374 20.0928L83.0574 20.3328L83.1454 20.3988L83.3254 20.1588ZM83.2821 20.2788L83.8321 19.1568L83.5627 19.0248L83.0127 20.1468L83.2821 20.2788ZM83.6974 19.2408H93.2674V18.9408H83.6974V19.2408ZM93.1327 19.1568L93.6827 20.2788L93.9521 20.1468L93.4021 19.0248L93.1327 19.1568ZM93.7274 20.0928L93.6394 20.1588L93.8194 20.3988L93.9074 20.3328L93.7274 20.0928ZM93.8148 20.1555C93.3998 19.8682 92.7063 19.6899 91.7634 19.6015L91.7354 19.9002C92.6698 19.9878 93.2964 20.1615 93.644 20.4021L93.8148 20.1555ZM91.7634 19.6015C90.8217 19.5132 90.0028 19.4688 89.3074 19.4688V19.7688C89.9907 19.7688 90.7998 19.8125 91.7354 19.9002L91.7634 19.6015ZM104.871 36.1628L104.835 36.3084L104.839 36.3092L104.871 36.1628ZM103.199 35.9868V36.1368H103.218L103.236 36.1323L103.199 35.9868ZM103.023 36.0088L102.956 36.143L103.006 36.1678L103.06 36.1543L103.023 36.0088ZM102.979 35.9868H102.829V36.0795L102.912 36.121L102.979 35.9868ZM102.979 19.0908L102.912 18.9567L102.829 18.9981V19.0908H102.979ZM103.023 19.0688L103.06 18.9233L103.006 18.9098L102.956 18.9347L103.023 19.0688ZM103.331 19.1348L103.307 19.2828L103.331 19.1348ZM104.937 18.9148L105 19.0512H105L104.937 18.9148ZM109.469 23.8428L109.372 23.7289L109.469 23.8428ZM107.511 24.9208L107.471 24.7762L107.515 25.0708L107.511 24.9208ZM110.943 26.4608L111.044 26.35L110.943 26.4608ZM110.899 34.6448L111.003 34.7535L111.003 34.7529L110.899 34.6448ZM105.245 19.3108L105.291 19.4538L105.295 19.4525L105.245 19.3108ZM104.409 19.7508L104.315 19.6344L104.259 19.6794V19.7508H104.409ZM104.409 35.2608H104.259V35.3293L104.311 35.3742L104.409 35.2608ZM105.201 35.7228L105.148 35.8632L105.156 35.8658L105.201 35.7228ZM109.689 34.3808L109.57 34.2894L109.57 34.2897L109.689 34.3808ZM109.799 26.6148L109.683 26.7095L109.684 26.7105L109.799 26.6148ZM106.059 25.5368L105.91 25.5238L105.89 25.7582L106.111 25.6778L106.059 25.5368ZM106.103 25.0308L106.079 24.8829L105.964 24.902L105.954 25.0178L106.103 25.0308ZM107.907 24.0848L108.008 24.1963H108.008L107.907 24.0848ZM108.171 19.9268L108.053 20.0189L108.171 19.9268ZM106.433 36.1888C105.932 36.1888 105.422 36.1315 104.904 36.0164L104.839 36.3092C105.377 36.4288 105.909 36.4888 106.433 36.4888V36.1888ZM104.908 36.0173C104.37 35.8829 103.866 35.8148 103.397 35.8148V36.1148C103.838 36.1148 104.317 36.1787 104.835 36.3083L104.908 36.0173ZM103.397 35.8148C103.314 35.8148 103.236 35.8231 103.163 35.8413L103.236 36.1323C103.28 36.1212 103.334 36.1148 103.397 36.1148V35.8148ZM103.199 35.8368C103.128 35.8368 103.057 35.8457 102.987 35.8633L103.06 36.1543C103.107 36.1426 103.153 36.1368 103.199 36.1368V35.8368ZM103.09 35.8747L103.046 35.8527L102.912 36.121L102.956 36.143L103.09 35.8747ZM103.129 35.9868V19.0908H102.829V35.9868H103.129ZM103.046 19.225L103.09 19.203L102.956 18.9347L102.912 18.9567L103.046 19.225ZM102.987 19.2143C103.107 19.2443 103.214 19.2673 103.307 19.2828L103.356 18.9869C103.273 18.973 103.174 18.952 103.06 18.9233L102.987 19.2143ZM103.307 19.2828C103.405 19.2991 103.516 19.3068 103.639 19.3068V19.0068C103.528 19.0068 103.434 18.9998 103.356 18.9869L103.307 19.2828ZM103.639 19.3068C104.168 19.3068 104.623 19.2239 105 19.0512L104.875 18.7785C104.548 18.9284 104.138 19.0068 103.639 19.0068V19.3068ZM105 19.0512C105.324 18.9027 105.79 18.8228 106.411 18.8228V18.5228C105.771 18.5228 105.255 18.6042 104.875 18.7785L105 19.0512ZM106.411 18.8228C107.214 18.8228 108.06 19.0832 108.953 19.6156L109.106 19.358C108.18 18.8051 107.281 18.5228 106.411 18.5228V18.8228ZM108.953 19.6156C109.816 20.1309 110.243 20.8882 110.243 21.9068H110.543C110.543 20.7841 110.062 19.9281 109.106 19.358L108.953 19.6156ZM110.243 21.9068C110.243 22.6226 109.957 23.2274 109.372 23.7289L109.567 23.9567C110.214 23.4023 110.543 22.7164 110.543 21.9068H110.243ZM109.372 23.7289C108.77 24.2445 108.137 24.5922 107.471 24.7762L107.551 25.0654C108.265 24.8681 108.937 24.4971 109.567 23.9567L109.372 23.7289ZM107.515 25.0708C108.593 25.0428 109.701 25.5315 110.842 26.5717L111.044 26.35C109.868 25.2781 108.688 24.7402 107.507 24.7709L107.515 25.0708ZM110.842 26.5717C111.968 27.5978 112.531 28.9061 112.531 30.5088H112.831C112.831 28.8262 112.236 27.4359 111.044 26.35L110.842 26.5717ZM112.531 30.5088C112.531 32.0804 111.955 33.4203 110.795 34.5368L111.003 34.7529C112.22 33.5813 112.831 32.1639 112.831 30.5088H112.531ZM110.796 34.5361C109.639 35.6364 108.188 36.1888 106.433 36.1888V36.4888C108.257 36.4888 109.784 35.9119 111.003 34.7535L110.796 34.5361ZM106.411 18.9848C105.958 18.9848 105.552 19.0452 105.196 19.1691L105.295 19.4525C105.613 19.3418 105.984 19.2848 106.411 19.2848V18.9848ZM105.2 19.1679C104.861 19.2756 104.566 19.4306 104.315 19.6344L104.504 19.8672C104.722 19.6897 104.984 19.5514 105.291 19.4538L105.2 19.1679ZM104.259 19.7508V35.2608H104.559V19.7508H104.259ZM104.311 35.3742C104.546 35.5777 104.826 35.7402 105.148 35.863L105.255 35.5826C104.961 35.4707 104.713 35.3252 104.508 35.1475L104.311 35.3742ZM105.156 35.8658C105.498 35.9747 105.926 36.0268 106.433 36.0268V35.7268C105.944 35.7268 105.55 35.6762 105.247 35.5799L105.156 35.8658ZM106.433 36.0268C107.882 36.0268 109.014 35.5112 109.809 34.4719L109.57 34.2897C108.84 35.2451 107.801 35.7268 106.433 35.7268V36.0268ZM109.808 34.4722C110.61 33.4284 111.005 32.1034 111.005 30.5088H110.705C110.705 32.0529 110.323 33.3092 109.57 34.2894L109.808 34.4722ZM111.005 30.5088C111.005 28.7477 110.651 27.4085 109.915 26.5192L109.684 26.7105C110.356 27.5225 110.705 28.7793 110.705 30.5088H111.005ZM109.916 26.5202C109.186 25.6233 108.279 25.1668 107.203 25.1668V25.4668C108.181 25.4668 109.005 25.8757 109.683 26.7095L109.916 26.5202ZM107.203 25.1668C106.946 25.1668 106.72 25.1894 106.529 25.2373L106.602 25.5283C106.762 25.4882 106.962 25.4668 107.203 25.4668V25.1668ZM106.529 25.2373C106.348 25.2825 106.175 25.3353 106.008 25.3958L106.111 25.6778C106.267 25.621 106.431 25.5711 106.602 25.5283L106.529 25.2373ZM106.209 25.5498L106.253 25.0438L105.954 25.0178L105.91 25.5238L106.209 25.5498ZM106.128 25.1788C106.779 25.0703 107.405 24.7384 108.008 24.1963L107.807 23.9733C107.236 24.4872 106.66 24.786 106.079 24.8829L106.128 25.1788ZM108.008 24.1963C108.626 23.6398 108.937 22.9392 108.937 22.1048H108.637C108.637 22.8545 108.362 23.4739 107.807 23.9733L108.008 24.1963ZM108.937 22.1048C108.937 21.16 108.727 20.3975 108.29 19.8347L108.053 20.0189C108.437 20.5122 108.637 21.2016 108.637 22.1048H108.937ZM108.29 19.8347C107.846 19.2647 107.213 18.9848 106.411 18.9848V19.2848C107.135 19.2848 107.675 19.5329 108.053 20.0189L108.29 19.8347ZM117.007 31.5208L116.868 31.4644L116.771 31.704L117.027 31.6695L117.007 31.5208ZM126.313 30.2668L126.333 30.4155L126.54 30.3875L126.447 30.2001L126.313 30.2668ZM121.473 20.5208L121.607 20.4541L121.459 20.1559L121.334 20.4644L121.473 20.5208ZM129.151 35.9868L129.017 36.0534L129.058 36.1368H129.151V35.9868ZM126.665 30.9708L126.799 30.9042L126.753 30.8097L126.648 30.8218L126.665 30.9708ZM116.765 32.1148L116.748 31.9658L116.66 31.976L116.626 32.058L116.765 32.1148ZM115.181 35.9868V36.1368H115.282L115.32 36.0436L115.181 35.9868ZM114.433 35.9868L114.294 35.9296L114.209 36.1368H114.433V35.9868ZM121.121 19.7948L121.26 19.8521L121.288 19.7842L121.251 19.7204L121.121 19.7948ZM120.901 19.5748L120.818 19.6996L120.826 19.7048L120.834 19.709L120.901 19.5748ZM120.593 19.4208L120.646 19.2803L120.64 19.2785L120.593 19.4208ZM120.527 19.3988H120.377V19.5069L120.48 19.5411L120.527 19.3988ZM120.527 19.0028L120.538 18.8532L120.377 18.8417V19.0028H120.527ZM122.375 19.1348L122.509 19.0679L122.471 18.9913L122.386 18.9852L122.375 19.1348ZM130.779 35.9868V36.1368H131.021L130.913 35.9199L130.779 35.9868ZM117.027 31.6695L126.333 30.4155L126.293 30.1182L116.987 31.3722L117.027 31.6695ZM126.447 30.2001L121.607 20.4541L121.339 20.5875L126.179 30.3335L126.447 30.2001ZM121.334 20.4644L116.868 31.4644L117.146 31.5772L121.612 20.5772L121.334 20.4644ZM129.285 35.9202L126.799 30.9042L126.531 31.0374L129.017 36.0534L129.285 35.9202ZM126.648 30.8218L116.748 31.9658L116.782 32.2638L126.682 31.1198L126.648 30.8218ZM116.626 32.058L115.042 35.93L115.32 36.0436L116.904 32.1716L116.626 32.058ZM115.181 35.8368H114.433V36.1368H115.181V35.8368ZM114.572 36.0441L121.26 19.8521L120.982 19.7376L114.294 35.9296L114.572 36.0441ZM121.251 19.7204C121.181 19.5973 121.087 19.5004 120.968 19.4407L120.834 19.709C120.89 19.7373 120.944 19.787 120.991 19.8692L121.251 19.7204ZM120.984 19.45C120.885 19.3839 120.772 19.3277 120.646 19.2804L120.54 19.5613C120.649 19.602 120.741 19.6484 120.818 19.6996L120.984 19.45ZM120.64 19.2785L120.574 19.2565L120.48 19.5411L120.546 19.5631L120.64 19.2785ZM120.677 19.3988V19.0028H120.377V19.3988H120.677ZM120.516 19.1524L122.364 19.2844L122.386 18.9852L120.538 18.8532L120.516 19.1524ZM122.241 19.2018L130.645 36.0538L130.913 35.9199L122.509 19.0679L122.241 19.2018ZM130.779 35.8368H129.151V36.1368H130.779V35.8368ZM143.202 35.9868V36.1368H143.286L143.33 36.0643L143.202 35.9868ZM131.982 35.9868L131.865 36.0805L131.91 36.1368H131.982V35.9868ZM131.894 35.8768L131.766 35.7976L131.71 35.8877L131.777 35.9705L131.894 35.8768ZM141.992 19.6408L142.119 19.72L142.262 19.4908H141.992V19.6408ZM134.226 19.7508L134.25 19.8989L134.256 19.8977L134.226 19.7508ZM133.082 20.4328L133.034 20.5751L133.12 20.6038L133.186 20.5408L133.082 20.4328ZM132.95 20.3888L132.809 20.3364L132.755 20.482L132.902 20.5311L132.95 20.3888ZM133.434 19.0908V18.9408H133.33L133.293 19.0384L133.434 19.0908ZM143.62 19.0908L143.737 18.9971L143.692 18.9408H143.62V19.0908ZM143.708 19.2008L143.836 19.2792L143.891 19.1893L143.825 19.1071L143.708 19.2008ZM133.764 35.4368L133.636 35.3585L133.496 35.5868H133.764V35.4368ZM142.432 35.2168L142.4 35.0702L142.399 35.0704L142.432 35.2168ZM143.928 34.5128L144.021 34.3957L143.917 34.3118L143.822 34.4067L143.928 34.5128ZM144.038 34.6008L144.166 34.6783L144.234 34.5658L144.131 34.4837L144.038 34.6008ZM143.202 35.8368H131.982V36.1368H143.202V35.8368ZM132.099 35.8931L132.011 35.7831L131.777 35.9705L131.865 36.0805L132.099 35.8931ZM132.021 35.956L142.119 19.72L141.864 19.5616L131.766 35.7976L132.021 35.956ZM141.992 19.4908H136.052V19.7908H141.992V19.4908ZM136.052 19.4908C135.186 19.4908 134.564 19.5272 134.195 19.604L134.256 19.8977C134.592 19.8278 135.186 19.7908 136.052 19.7908V19.4908ZM134.201 19.6029C133.806 19.6687 133.398 19.9193 132.978 20.3248L133.186 20.5408C133.587 20.1543 133.941 19.9503 134.25 19.8988L134.201 19.6029ZM133.129 20.2905L132.997 20.2465L132.902 20.5311L133.034 20.5751L133.129 20.2905ZM133.09 20.4412L133.574 19.1432L133.293 19.0384L132.809 20.3364L133.09 20.4412ZM133.434 19.2408H143.62V18.9408H133.434V19.2408ZM143.503 19.1845L143.591 19.2945L143.825 19.1071L143.737 18.9971L143.503 19.1845ZM143.58 19.1225L133.636 35.3585L133.892 35.5152L143.836 19.2792L143.58 19.1225ZM133.764 35.5868H140.034V35.2868H133.764V35.5868ZM140.034 35.5868C140.979 35.5868 141.79 35.513 142.464 35.3632L142.399 35.0704C141.753 35.214 140.965 35.2868 140.034 35.2868V35.5868ZM142.464 35.3634C143.153 35.2135 143.683 34.9698 144.034 34.6189L143.822 34.4067C143.527 34.7012 143.06 34.9268 142.4 35.0702L142.464 35.3634ZM143.834 34.6299L143.944 34.7179L144.131 34.4837L144.021 34.3957L143.834 34.6299ZM143.909 34.5233L143.073 35.9093L143.33 36.0643L144.166 34.6783L143.909 34.5233ZM147.17 31.5208L147.031 31.4644L146.934 31.704L147.19 31.6695L147.17 31.5208ZM156.476 30.2668L156.496 30.4155L156.704 30.3875L156.611 30.2001L156.476 30.2668ZM151.636 20.5208L151.771 20.4541L151.622 20.1559L151.497 20.4644L151.636 20.5208ZM159.314 35.9868L159.18 36.0534L159.221 36.1368H159.314V35.9868ZM156.828 30.9708L156.963 30.9042L156.916 30.8097L156.811 30.8218L156.828 30.9708ZM146.928 32.1148L146.911 31.9658L146.823 31.976L146.789 32.058L146.928 32.1148ZM145.344 35.9868V36.1368H145.445L145.483 36.0436L145.344 35.9868ZM144.596 35.9868L144.458 35.9296L144.372 36.1368H144.596V35.9868ZM151.284 19.7948L151.423 19.8521L151.451 19.7842L151.414 19.7204L151.284 19.7948ZM151.064 19.5748L150.981 19.6996L150.989 19.7048L150.997 19.709L151.064 19.5748ZM150.756 19.4208L150.809 19.2803L150.804 19.2785L150.756 19.4208ZM150.69 19.3988H150.54V19.5069L150.643 19.5411L150.69 19.3988ZM150.69 19.0028L150.701 18.8532L150.54 18.8417V19.0028H150.69ZM152.538 19.1348L152.672 19.0679L152.634 18.9913L152.549 18.9852L152.538 19.1348ZM160.942 35.9868V36.1368H161.185L161.076 35.9199L160.942 35.9868ZM147.19 31.6695L156.496 30.4155L156.456 30.1182L147.15 31.3722L147.19 31.6695ZM156.611 30.2001L151.771 20.4541L151.502 20.5875L156.342 30.3335L156.611 30.2001ZM151.497 20.4644L147.031 31.4644L147.309 31.5772L151.775 20.5772L151.497 20.4644ZM159.449 35.9202L156.963 30.9042L156.694 31.0374L159.18 36.0534L159.449 35.9202ZM156.811 30.8218L146.911 31.9658L146.945 32.2638L156.845 31.1198L156.811 30.8218ZM146.789 32.058L145.205 35.93L145.483 36.0436L147.067 32.1716L146.789 32.058ZM145.344 35.8368H144.596V36.1368H145.344V35.8368ZM144.735 36.0441L151.423 19.8521L151.146 19.7376L144.458 35.9296L144.735 36.0441ZM151.414 19.7204C151.344 19.5973 151.251 19.5004 151.131 19.4407L150.997 19.709C151.054 19.7373 151.107 19.787 151.154 19.8692L151.414 19.7204ZM151.147 19.45C151.048 19.3839 150.935 19.3277 150.809 19.2804L150.704 19.5613C150.812 19.602 150.904 19.6484 150.981 19.6996L151.147 19.45ZM150.804 19.2785L150.738 19.2565L150.643 19.5411L150.709 19.5631L150.804 19.2785ZM150.84 19.3988V19.0028H150.54V19.3988H150.84ZM150.679 19.1524L152.527 19.2844L152.549 18.9852L150.701 18.8532L150.679 19.1524ZM152.404 19.2018L160.808 36.0538L161.076 35.9199L152.672 19.0679L152.404 19.2018ZM160.942 35.8368H159.314V36.1368H160.942V35.8368ZM164.841 31.5208L164.702 31.4644L164.604 31.704L164.861 31.6695L164.841 31.5208ZM174.147 30.2668L174.167 30.4155L174.374 30.3875L174.281 30.2001L174.147 30.2668ZM169.307 20.5208L169.441 20.4541L169.293 20.1559L169.168 20.4644L169.307 20.5208ZM176.985 35.9868L176.85 36.0534L176.892 36.1368H176.985V35.9868ZM174.499 30.9708L174.633 30.9042L174.586 30.8097L174.481 30.8218L174.499 30.9708ZM164.599 32.1148L164.581 31.9658L164.493 31.976L164.46 32.058L164.599 32.1148ZM163.015 35.9868V36.1368H163.115L163.153 36.0436L163.015 35.9868ZM162.267 35.9868L162.128 35.9296L162.042 36.1368H162.267V35.9868ZM168.955 19.7948L169.093 19.8521L169.121 19.7842L169.085 19.7204L168.955 19.7948ZM168.735 19.5748L168.651 19.6996L168.659 19.7048L168.668 19.709L168.735 19.5748ZM168.427 19.4208L168.479 19.2803L168.474 19.2785L168.427 19.4208ZM168.361 19.3988H168.211V19.5069L168.313 19.5411L168.361 19.3988ZM168.361 19.0028L168.371 18.8532L168.211 18.8417V19.0028H168.361ZM170.209 19.1348L170.343 19.0679L170.305 18.9913L170.219 18.9852L170.209 19.1348ZM178.613 35.9868V36.1368H178.855L178.747 35.9199L178.613 35.9868ZM164.861 31.6695L174.167 30.4155L174.127 30.1182L164.821 31.3722L164.861 31.6695ZM174.281 30.2001L169.441 20.4541L169.172 20.5875L174.012 30.3335L174.281 30.2001ZM169.168 20.4644L164.702 31.4644L164.98 31.5772L169.446 20.5772L169.168 20.4644ZM177.119 35.9202L174.633 30.9042L174.364 31.0374L176.85 36.0534L177.119 35.9202ZM174.481 30.8218L164.581 31.9658L164.616 32.2638L174.516 31.1198L174.481 30.8218ZM164.46 32.058L162.876 35.93L163.153 36.0436L164.737 32.1716L164.46 32.058ZM163.015 35.8368H162.267V36.1368H163.015V35.8368ZM162.405 36.0441L169.093 19.8521L168.816 19.7376L162.128 35.9296L162.405 36.0441ZM169.085 19.7204C169.015 19.5973 168.921 19.5004 168.802 19.4407L168.668 19.709C168.724 19.7373 168.777 19.787 168.824 19.8692L169.085 19.7204ZM168.818 19.45C168.719 19.3839 168.605 19.3277 168.479 19.2804L168.374 19.5613C168.482 19.602 168.575 19.6484 168.651 19.6996L168.818 19.45ZM168.474 19.2785L168.408 19.2565L168.313 19.5411L168.379 19.5631L168.474 19.2785ZM168.511 19.3988V19.0028H168.211V19.3988H168.511ZM168.35 19.1524L170.198 19.2844L170.219 18.9852L168.371 18.8532L168.35 19.1524ZM170.074 19.2018L178.478 36.0538L178.747 35.9199L170.343 19.0679L170.074 19.2018ZM178.613 35.8368H176.985V36.1368H178.613V35.8368ZM187.659 35.0408L187.535 35.1246L187.537 35.1273L187.659 35.0408ZM185.899 26.2408L185.796 26.3493L185.798 26.3517L185.899 26.2408ZM183.787 25.3608L183.82 25.5072L183.787 25.3608ZM183.369 25.5368L183.22 25.5238L183.194 25.8167L183.446 25.6654L183.369 25.5368ZM183.413 25.0308L183.388 24.883L183.274 24.9027L183.264 25.0178L183.413 25.0308ZM185.547 24.0628L185.456 23.9434L185.455 23.9444L185.547 24.0628ZM185.899 19.8388L185.785 19.9362L185.787 19.9381L185.899 19.8388ZM183.237 19.2668L183.292 19.4067L183.295 19.4051L183.237 19.2668ZM182.467 19.6628L182.386 19.5369L182.317 19.5812V19.6628H182.467ZM182.467 35.9868V36.1368H182.617V35.9868H182.467ZM181.037 35.9868H180.887V36.1368H181.037V35.9868ZM181.037 19.0908L180.97 18.9567L180.887 18.9981V19.0908H181.037ZM181.081 19.0688L181.117 18.9233L181.064 18.9098L181.014 18.9347L181.081 19.0688ZM181.389 19.1348L181.364 19.2828L181.389 19.1348ZM182.929 18.9148L182.996 19.049V19.049L182.929 18.9148ZM186.999 19.5748L186.906 19.6926L186.907 19.6935L186.999 19.5748ZM186.757 24.0188L186.834 24.1478L186.835 24.1469L186.757 24.0188ZM184.733 25.0088L184.697 24.8633L184.72 25.1582L184.733 25.0088ZM186.999 26.1528L186.904 26.2692L186.905 26.2699L186.999 26.1528ZM188.803 34.8208L188.672 34.8945L188.803 34.8208ZM190.409 35.5908L190.362 35.4485L190.358 35.4498L190.409 35.5908ZM190.937 35.2388L191.043 35.1327L190.937 35.0267L190.831 35.1327L190.937 35.2388ZM191.069 35.3708L191.188 35.4619L191.268 35.3576L191.175 35.2648L191.069 35.3708ZM190.387 35.9648L190.454 36.0991L190.46 36.0959L190.387 35.9648ZM189.507 36.0128C188.866 36.0128 188.291 35.6757 187.782 34.9543L187.537 35.1273C188.083 35.9019 188.74 36.3128 189.507 36.3128V36.0128ZM187.784 34.9571C187.294 34.2301 187.039 33.143 187.039 31.6748H186.739C186.739 33.1693 186.997 34.3262 187.535 35.1246L187.784 34.9571ZM187.039 31.6748V29.9588H186.739V31.6748H187.039ZM187.039 29.9588C187.039 29.0126 186.956 28.2193 186.787 27.5827C186.617 26.9468 186.359 26.4567 186 26.1299L185.798 26.3517C186.099 26.6263 186.336 27.0565 186.497 27.6599C186.657 28.2626 186.739 29.0277 186.739 29.9588H187.039ZM186.003 26.1323C185.351 25.5098 184.749 25.1668 184.205 25.1668V25.4668C184.629 25.4668 185.157 25.7398 185.796 26.3493L186.003 26.1323ZM184.205 25.1668C184.048 25.1668 183.898 25.1825 183.755 25.2144L183.82 25.5072C183.94 25.4805 184.068 25.4668 184.205 25.4668V25.1668ZM183.755 25.2144C183.603 25.248 183.449 25.314 183.292 25.4082L183.446 25.6654C183.583 25.5836 183.707 25.5323 183.82 25.5072L183.755 25.2144ZM183.519 25.5498L183.563 25.0438L183.264 25.0178L183.22 25.5238L183.519 25.5498ZM183.439 25.1786C184.228 25.0421 184.961 24.7084 185.639 24.1812L185.455 23.9444C184.813 24.4439 184.124 24.7555 183.388 24.883L183.439 25.1786ZM185.638 24.1822C186.357 23.6353 186.709 22.8317 186.709 21.7968H186.409C186.409 22.7566 186.087 23.4637 185.456 23.9434L185.638 24.1822ZM186.709 21.7968C186.709 20.9618 186.481 20.2712 186.012 19.7396L185.787 19.9381C186.198 20.4038 186.409 21.0185 186.409 21.7968H186.709ZM186.013 19.7415C185.558 19.2075 184.958 18.9408 184.227 18.9408V19.2408C184.875 19.2408 185.39 19.4728 185.785 19.9362L186.013 19.7415ZM184.227 18.9408C183.831 18.9408 183.48 19.0017 183.179 19.1286L183.295 19.4051C183.551 19.2972 183.861 19.2408 184.227 19.2408V18.9408ZM183.183 19.127C182.909 19.2335 182.643 19.3703 182.386 19.5369L182.549 19.7888C182.79 19.6327 183.037 19.5054 183.291 19.4066L183.183 19.127ZM182.317 19.6628V35.9868H182.617V19.6628H182.317ZM182.467 35.8368H181.037V36.1368H182.467V35.8368ZM181.187 35.9868V19.0908H180.887V35.9868H181.187ZM181.104 19.225L181.148 19.203L181.014 18.9347L180.97 18.9567L181.104 19.225ZM181.045 19.2143C181.165 19.2443 181.271 19.2673 181.364 19.2828L181.414 18.9869C181.331 18.973 181.232 18.952 181.117 18.9233L181.045 19.2143ZM181.364 19.2828C181.463 19.2991 181.574 19.3068 181.697 19.3068V19.0068C181.586 19.0068 181.492 18.9998 181.414 18.9869L181.364 19.2828ZM181.697 19.3068C182.211 19.3068 182.646 19.2239 182.996 19.049L182.862 18.7807C182.567 18.9284 182.181 19.0068 181.697 19.0068V19.3068ZM182.996 19.049C183.288 18.9032 183.737 18.8228 184.359 18.8228V18.5228C183.72 18.5228 183.216 18.6038 182.862 18.7807L182.996 19.049ZM184.359 18.8228C185.324 18.8228 186.171 19.1127 186.906 19.6926L187.092 19.457C186.302 18.8342 185.389 18.5228 184.359 18.5228V18.8228ZM186.907 19.6935C187.653 20.2702 188.015 20.9691 188.015 21.7968H188.315C188.315 20.8645 187.9 20.0821 187.091 19.4562L186.907 19.6935ZM188.015 21.7968C188.015 22.6422 187.584 23.3393 186.679 23.8907L186.835 24.1469C187.808 23.5543 188.315 22.7701 188.315 21.7968H188.015ZM186.681 23.8898C185.741 24.4479 185.083 24.7666 184.697 24.8633L184.769 25.1543C185.204 25.0457 185.896 24.7044 186.834 24.1478L186.681 23.8898ZM184.72 25.1582C185.321 25.2128 186.047 25.572 186.904 26.2692L187.094 26.0365C186.22 25.3257 185.436 24.9221 184.747 24.8594L184.72 25.1582ZM186.905 26.2699C187.732 26.9316 188.169 28.1428 188.169 29.9588H188.469C188.469 28.1082 188.026 26.7821 187.093 26.0357L186.905 26.2699ZM188.169 29.9588V31.4108H188.469V29.9588H188.169ZM188.169 31.4108C188.169 32.2655 188.21 32.9826 188.292 33.5604C188.373 34.1355 188.498 34.5844 188.672 34.8945L188.934 34.7471C188.786 34.4852 188.668 34.0798 188.589 33.5182C188.509 32.9593 188.469 32.2574 188.469 31.4108H188.169ZM188.672 34.8945C189.005 35.4837 189.411 35.8288 189.903 35.8288V35.5288C189.574 35.5288 189.247 35.302 188.934 34.7471L188.672 34.8945ZM189.903 35.8288C190.096 35.8288 190.282 35.7966 190.46 35.7318L190.358 35.4498C190.213 35.5024 190.062 35.5288 189.903 35.5288V35.8288ZM190.457 35.7331C190.661 35.665 190.856 35.532 191.043 35.3449L190.831 35.1327C190.666 35.2977 190.509 35.3993 190.362 35.4485L190.457 35.7331ZM190.831 35.3449L190.963 35.4769L191.175 35.2648L191.043 35.1327L190.831 35.3449ZM190.95 35.2797C190.771 35.5133 190.56 35.6974 190.314 35.8337L190.46 36.0959C190.743 35.9389 190.986 35.727 191.188 35.4619L190.95 35.2797ZM190.32 35.8307C190.079 35.9513 189.809 36.0128 189.507 36.0128V36.3128C189.851 36.3128 190.167 36.2423 190.454 36.099L190.32 35.8307Z" fill="#503C3C"/>
<path fill-rule="evenodd" clip-rule="evenodd" d="M14.1428 8.22645C16.1915 7.98424 17.7806 6.2415 17.7806 4.1276C17.7806 1.84799 15.9326 0 13.653 0C11.3734 0 9.52539 1.84799 9.52539 4.1276C9.52539 6.37035 11.3141 8.19533 13.5428 8.25376L13.5428 37.1672C12.2138 43.4488 6.67412 48.184 0 48.261L13.6327 48.3148L27.3276 48.261C20.7817 48.1816 15.3454 43.4815 14.1428 37.2592L14.1428 8.22645ZM26.1419 26.2889C31.5862 26.2889 35.9997 30.6806 35.9997 36.098C35.9997 41.5155 31.5862 45.9072 26.1419 45.9072C23.1437 45.9072 20.458 44.5753 18.65 42.4735C18.2798 42.0432 17.9464 41.5806 17.6547 41.0906C16.384 39.1503 15.7437 36.8611 15.8268 34.5373L16.0384 28.6257L16.0384 20.1149H16.0566V19.7109H21.3514C27.0547 19.7109 31.678 15.0875 31.678 9.3843V9.23096H32.278V9.3843C32.278 15.4189 27.386 20.3109 21.3514 20.3109H16.6384L16.6384 28.1167C17.7089 29.3331 19.5158 29.6699 20.9617 28.8768C21.2183 28.6419 21.5081 28.3589 21.799 28.0659C22.4155 27.4448 23.1035 26.9908 23.8582 26.6972C24.2023 26.5309 24.5746 26.4252 24.9589 26.387L24.9572 26.3904C25.3382 26.3225 25.7333 26.2889 26.1419 26.2889ZM30.8007 9.27832C30.8007 14.0457 26.936 17.9104 22.1686 17.9104H16.0869V9.27832H30.8007Z" fill="url(#paint0_linear_68_44)"/>
<defs>
<linearGradient id="paint0_linear_68_44" x1="15.5" y1="-1.12222e-07" x2="17.9998" y2="48.3148" gradientUnits="userSpaceOnUse">
<stop stop-color="#917878"/>
<stop offset="1" stop-color="#543737"/>
</linearGradient>
</defs>
</svg>
