<svg width="26" height="26" viewBox="0 0 26 26" fill="none" xmlns="http://www.w3.org/2000/svg">
<path d="M3.43359 8.06006L12.9994 13.5959L22.5002 8.09252" stroke="#A8969D" stroke-width="1.2" stroke-linecap="round" stroke-linejoin="round"/>
<path d="M13 23.4108V13.585" stroke="#A8969D" stroke-width="1.2" stroke-linecap="round" stroke-linejoin="round"/>
<path d="M10.7582 2.6865L4.97316 5.90404C3.66232 6.62987 2.58984 8.44985 2.58984 9.94485V16.0657C2.58984 17.5607 3.66232 19.3807 4.97316 20.1065L10.7582 23.3241C11.9932 24.0066 14.019 24.0066 15.254 23.3241L21.039 20.1065C22.3498 19.3807 23.4223 17.5607 23.4223 16.0657V9.94485C23.4223 8.44985 22.3498 6.62987 21.039 5.90404L15.254 2.6865C14.0081 1.99317 11.9932 1.99317 10.7582 2.6865Z" stroke="#A8969D" stroke-width="1.2" stroke-linecap="round" stroke-linejoin="round"/>
<path d="M18.4175 14.3431V10.3781L8.13672 4.44141" stroke="#A8969D" stroke-width="1.2" stroke-linecap="round" stroke-linejoin="round"/>
</svg>
