<svg width="22" height="18" viewBox="0 0 22 18" fill="none" xmlns="http://www.w3.org/2000/svg">
<path d="M19.4578 2.41452C18.9691 1.96607 18.3889 1.61034 17.7503 1.36763C17.1117 1.12492 16.4272 1 15.7359 1C15.0446 1 14.3601 1.12492 13.7215 1.36763C13.0829 1.61034 12.5026 1.96607 12.0139 2.41452L10.9997 3.34476L9.98554 2.41452C8.99842 1.50912 7.6596 1.00047 6.26361 1.00047C4.86761 1.00047 3.52879 1.50912 2.54168 2.41452C1.55456 3.31992 1 4.5479 1 5.82833C1 7.10875 1.55456 8.33674 2.54168 9.24214L3.55588 10.1724L10.9997 17L18.4436 10.1724L19.4578 9.24214C19.9467 8.79391 20.3346 8.26171 20.5992 7.67596C20.8638 7.0902 21 6.46237 21 5.82833C21 5.19428 20.8638 4.56645 20.5992 3.9807C20.3346 3.39494 19.9467 2.86275 19.4578 2.41452V2.41452Z" stroke="#A8969D" stroke-width="1.2" stroke-linecap="round" stroke-linejoin="round"/>
</svg>
