<svg width="26" height="26" viewBox="0 0 26 26" fill="none" xmlns="http://www.w3.org/2000/svg">
<path fill-rule="evenodd" clip-rule="evenodd" d="M8.46214 2.1665H17.5405C21.4838 2.1665 23.8346 4.51734 23.8346 8.46067V15.0582V17.539C23.8346 21.4823 21.4838 23.8332 17.5405 23.8332H8.46214C5.69964 23.8332 3.7063 22.674 2.77464 20.6157C2.3738 19.749 2.16797 18.7198 2.16797 17.539V8.46067C2.16797 4.51734 4.5188 2.1665 8.46214 2.1665ZM19.0138 13.5415C19.8588 12.8157 21.2238 12.8157 22.0688 13.5415L22.2096 13.6607V8.46067C22.2096 5.40567 20.5955 3.7915 17.5405 3.7915H8.46214C5.40714 3.7915 3.79297 5.40567 3.79297 8.46067V17.539C3.79297 18.3623 3.9338 19.0665 4.17214 19.6732L8.2238 16.954C9.09047 16.369 10.3146 16.434 11.0838 17.1057L11.4521 17.409C12.2971 18.1348 13.6621 18.1348 14.5071 17.409L19.0138 13.5415ZM12.3285 8.66671C12.3285 10.0907 11.1742 11.245 9.75021 11.245C8.32623 11.245 7.17188 10.0907 7.17188 8.66671C7.17188 7.24274 8.32623 6.08838 9.75021 6.08838C11.1742 6.08838 12.3285 7.24274 12.3285 8.66671Z" fill="url(#paint0_linear_495_1899)"/>
<defs>
<linearGradient id="paint0_linear_495_1899" x1="10.3948" y1="2.1665" x2="22.7176" y2="26.1635" gradientUnits="userSpaceOnUse">
<stop stop-color="#9E6F7A"/>
<stop offset="1" stop-color="#7E4852"/>
</linearGradient>
</defs>
</svg>
