<svg width="26" height="26" viewBox="0 0 26 26" fill="none" xmlns="http://www.w3.org/2000/svg">
<path fill-rule="evenodd" clip-rule="evenodd" d="M21.7766 7.51815C21.7766 8.10315 21.4624 8.63395 20.9641 8.90478L19.0791 9.92312L17.4757 10.779L14.1499 12.5773C13.7924 12.7723 13.4024 12.8698 13.0016 12.8698C12.6007 12.8698 12.2107 12.7723 11.8532 12.5773L5.03906 8.90478C4.54073 8.63395 4.22656 8.10315 4.22656 7.51815C4.22656 6.93315 4.54073 6.40229 5.03906 6.13145L7.17323 4.98312L8.87407 4.06232L11.8532 2.459C12.5682 2.069 13.4349 2.069 14.1499 2.459L20.9641 6.13145C21.4624 6.40229 21.7766 6.93315 21.7766 7.51815ZM10.7236 13.8561L4.38613 10.6819C3.89863 10.4327 3.3353 10.4652 2.86947 10.7469C2.40364 11.0286 2.13281 11.5269 2.13281 12.0686V18.0594C2.13281 19.0994 2.70696 20.0311 3.63863 20.4969L9.97614 23.6603C10.1928 23.7686 10.4312 23.8228 10.6695 23.8228C10.9512 23.8228 11.2328 23.7469 11.482 23.5844C11.9478 23.3028 12.2186 22.8044 12.2186 22.2627V16.2719C12.2295 15.2536 11.6553 14.3219 10.7236 13.8561ZM23.8662 18.0699V12.0791C23.8662 11.5375 23.5845 11.0391 23.1295 10.7574C22.6637 10.4649 22.1004 10.4433 21.6129 10.6924L19.2295 11.8841L17.6045 12.6966L15.2754 13.8557C14.3437 14.3216 13.7695 15.2532 13.7695 16.2932V22.2733C13.7695 22.8149 14.0512 23.3133 14.5062 23.595C14.7662 23.7575 15.0479 23.8333 15.3295 23.8333C15.5679 23.8333 15.8062 23.7791 16.0229 23.6707L22.3604 20.4966C23.2921 20.0308 23.8662 19.0991 23.8662 18.0699Z" fill="url(#paint0_linear_482_497)"/>
<path d="M19.0777 9.9233L17.4744 10.7792L7.17188 4.98331L8.87272 4.0625L18.8177 9.67416C18.926 9.73916 19.0127 9.8258 19.0777 9.9233Z" fill="white"/>
<path d="M19.2305 11.8843V14.3435C19.2305 14.7876 18.8621 15.156 18.418 15.156C17.9738 15.156 17.6055 14.7876 17.6055 14.3435V12.6968L19.2305 11.8843Z" fill="white"/>
<defs>
<linearGradient id="paint0_linear_482_497" x1="10.385" y1="2.1665" x2="22.6858" y2="26.1944" gradientUnits="userSpaceOnUse">
<stop stop-color="#9E6F7A"/>
<stop offset="1" stop-color="#7E4852"/>
</linearGradient>
</defs>
</svg>
