<svg width="22" height="22" viewBox="0 0 22 22" fill="none" xmlns="http://www.w3.org/2000/svg">
<path d="M20.168 5.50016V7.71849C20.168 9.16683 19.2513 10.0835 17.803 10.0835H14.668V3.67599C14.668 2.65849 15.5021 1.8335 16.5196 1.8335C17.5188 1.84266 18.4355 2.24599 19.0955 2.90599C19.7555 3.57516 20.168 4.49183 20.168 5.50016Z" stroke="#A8969D" stroke-width="1.2" stroke-miterlimit="10" stroke-linecap="round" stroke-linejoin="round"/>
<path d="M1.83203 6.41683V19.2502C1.83203 20.011 2.6937 20.4418 3.2987 19.9835L4.8662 18.8102C5.23286 18.5352 5.7462 18.5718 6.0762 18.9018L7.59787 20.4327C7.95537 20.7902 8.54203 20.7902 8.89953 20.4327L10.4395 18.8927C10.7604 18.5718 11.2737 18.5352 11.6312 18.8102L13.1987 19.9835C13.8037 20.4327 14.6654 20.0018 14.6654 19.2502V3.66683C14.6654 2.6585 15.4904 1.8335 16.4987 1.8335H6.41536H5.4987C2.7487 1.8335 1.83203 3.47433 1.83203 5.50016V6.41683Z" stroke="#A8969D" stroke-width="1.2" stroke-miterlimit="10" stroke-linecap="round" stroke-linejoin="round"/>
<path d="M5.73047 9.1665H10.7721" stroke="#A8969D" stroke-width="1.2" stroke-linecap="round" stroke-linejoin="round"/>
</svg>
