<svg width="26" height="26" viewBox="0 0 26 26" fill="none" xmlns="http://www.w3.org/2000/svg">
<path d="M19.5 20.4315H18.6767C17.81 20.4315 16.9867 20.7673 16.38 21.374L14.5275 23.2048C13.6825 24.039 12.3067 24.039 11.4617 23.2048L9.60916 21.374C9.00249 20.7673 8.16833 20.4315 7.3125 20.4315H6.5C4.70167 20.4315 3.25 18.9907 3.25 17.214V5.384C3.25 3.60734 4.70167 2.1665 6.5 2.1665H19.5C21.2983 2.1665 22.75 3.60734 22.75 5.384V17.2032C22.75 18.9798 21.2983 20.4315 19.5 20.4315Z" stroke="#A8969D" stroke-width="1.2" stroke-miterlimit="10" stroke-linecap="round" stroke-linejoin="round"/>
<path d="M13.0781 9.6957C13.0348 9.6957 12.9697 9.6957 12.9156 9.6957C11.7781 9.65237 10.8789 8.73154 10.8789 7.5832C10.8789 6.4132 11.8214 5.4707 12.9914 5.4707C14.1614 5.4707 15.1039 6.42404 15.1039 7.5832C15.1148 8.73154 14.2156 9.6632 13.0781 9.6957Z" stroke="#A8969D" stroke-width="1.2" stroke-linecap="round" stroke-linejoin="round"/>
<path d="M10.022 12.9565C8.5812 13.9207 8.5812 15.4915 10.022 16.4557C11.6579 17.5499 14.3445 17.5499 15.9804 16.4557C17.4212 15.4915 17.4212 13.9207 15.9804 12.9565C14.3445 11.8732 11.6687 11.8732 10.022 12.9565Z" stroke="#A8969D" stroke-width="1.2" stroke-linecap="round" stroke-linejoin="round"/>
</svg>
