<svg width="28" height="28" viewBox="0 0 28 28" fill="none" xmlns="http://www.w3.org/2000/svg">
<path d="M21 2.3335H7C5.06333 2.3335 3.5 3.88516 3.5 5.7985V18.5268C3.5 20.4402 5.06333 22.0035 7 22.0035H7.88667C8.80833 22.0035 9.70667 22.3652 10.36 23.0185L12.355 24.9902C13.265 25.8885 14.735 25.8885 15.645 24.9902L17.64 23.0185C18.2933 22.3652 19.1917 22.0035 20.1133 22.0035H21C22.9367 22.0035 24.5 20.4402 24.5 18.5268V5.7985C24.5 3.88516 22.9367 2.3335 21 2.3335ZM14 6.47516C15.26 6.47516 16.275 7.50183 16.275 8.75016C16.275 9.98683 15.295 10.9785 14.0817 11.0252C14.035 11.0252 13.965 11.0252 13.9067 11.0252C12.6817 10.9785 11.7133 9.98683 11.7133 8.75016C11.725 7.50183 12.74 6.47516 14 6.47516ZM17.2083 17.1385C15.4467 18.3168 12.5533 18.3168 10.7917 17.1385C9.24 16.1118 9.24 14.4085 10.7917 13.3702C12.565 12.1918 15.4583 12.1918 17.2083 13.3702C18.76 14.4085 18.76 16.1002 17.2083 17.1385Z" fill="url(#paint0_linear_477_4915)"/>
<defs>
<linearGradient id="paint0_linear_477_4915" x1="11.4737" y1="2.33349" x2="25.5282" y2="26.969" gradientUnits="userSpaceOnUse">
<stop stop-color="#9E6F7A"/>
<stop offset="1" stop-color="#7E4852"/>
</linearGradient>
</defs>
</svg>
