<svg width="26" height="26" viewBox="0 0 26 26" fill="none" xmlns="http://www.w3.org/2000/svg">
<path fill-rule="evenodd" clip-rule="evenodd" d="M22.5346 9.47894C23.2496 9.47894 23.8346 8.89394 23.8346 8.17894C23.8346 5.69811 21.8196 3.68311 19.3388 3.68311H6.65297C4.17214 3.68311 2.16797 5.68727 2.16797 8.16811V8.17894C2.16797 8.89394 2.75297 9.47894 3.46797 9.47894H22.5346ZM2.16797 17.8315V12.404C2.16797 11.689 2.75297 11.104 3.46797 11.104H22.5346C23.2496 11.104 23.8346 11.689 23.8346 12.404V17.8207C23.8346 20.3015 21.8196 22.3165 19.3388 22.3165H6.65297C4.17214 22.3165 2.16797 20.3123 2.16797 17.8315ZM6.5013 18.6873H8.66797C9.11213 18.6873 9.48047 18.319 9.48047 17.8748C9.48047 17.4307 9.11213 17.0623 8.66797 17.0623H6.5013C6.05714 17.0623 5.6888 17.4307 5.6888 17.8748C5.6888 18.319 6.05714 18.6873 6.5013 18.6873ZM11.3763 18.6873H15.7096C16.1538 18.6873 16.5221 18.319 16.5221 17.8748C16.5221 17.4307 16.1538 17.0623 15.7096 17.0623H11.3763C10.9321 17.0623 10.5638 17.4307 10.5638 17.8748C10.5638 18.319 10.9321 18.6873 11.3763 18.6873Z" fill="url(#paint0_linear_482_655)"/>
<defs>
<linearGradient id="paint0_linear_482_655" x1="10.3948" y1="3.6831" x2="20.0325" y2="25.5064" gradientUnits="userSpaceOnUse">
<stop stop-color="#9E6F7A"/>
<stop offset="1" stop-color="#7E4852"/>
</linearGradient>
</defs>
</svg>
