<svg width="24" height="24" viewBox="0 0 24 24" fill="none" xmlns="http://www.w3.org/2000/svg">
<path d="M8.5 19H8C4 19 2 18 2 13V8C2 4 4 2 8 2H16C20 2 22 4 22 8V13C22 17 20 19 16 19H15.5C15.19 19 14.89 19.15 14.7 19.4L13.2 21.4C12.54 22.28 11.46 22.28 10.8 21.4L9.3 19.4C9.14 19.18 8.77 19 8.5 19Z" fill="url(#paint0_linear_487_1495)"/>
<path d="M8.5 19H8C4 19 2 18 2 13V8C2 4 4 2 8 2H16C20 2 22 4 22 8V13C22 17 20 19 16 19H15.5C15.19 19 14.89 19.15 14.7 19.4L13.2 21.4C12.54 22.28 11.46 22.28 10.8 21.4L9.3 19.4C9.14 19.18 8.77 19 8.5 19Z" stroke="#A8969D" stroke-width="1.3" stroke-miterlimit="10" stroke-linecap="round" stroke-linejoin="round"/>
<path d="M8.5 19H8C4 19 2 18 2 13V8C2 4 4 2 8 2H16C20 2 22 4 22 8V13C22 17 20 19 16 19H15.5C15.19 19 14.89 19.15 14.7 19.4L13.2 21.4C12.54 22.28 11.46 22.28 10.8 21.4L9.3 19.4C9.14 19.18 8.77 19 8.5 19Z" stroke="url(#paint1_linear_487_1495)" stroke-width="1.3" stroke-miterlimit="10" stroke-linecap="round" stroke-linejoin="round"/>
<path d="M15.9945 11H16.0035" stroke="#FCF7F7" stroke-width="2" stroke-linecap="round" stroke-linejoin="round"/>
<path d="M11.9945 11H12.0035" stroke="#FCF7F7" stroke-width="2" stroke-linecap="round" stroke-linejoin="round"/>
<path d="M7.99451 11H8.00349" stroke="#FCF7F7" stroke-width="2" stroke-linecap="round" stroke-linejoin="round"/>
<defs>
<linearGradient id="paint0_linear_487_1495" x1="9.59399" y1="2" x2="21.0229" y2="24.1897" gradientUnits="userSpaceOnUse">
<stop stop-color="#9E6F7A"/>
<stop offset="1" stop-color="#7E4852"/>
</linearGradient>
<linearGradient id="paint1_linear_487_1495" x1="9.59399" y1="2" x2="21.0229" y2="24.1897" gradientUnits="userSpaceOnUse">
<stop stop-color="#9E6F7A"/>
<stop offset="1" stop-color="#7E4852"/>
</linearGradient>
</defs>
</svg>
